<?xml version="1.0" encoding="UTF-8"?>
<svg width="1863px" height="833px" viewBox="0 0 1863 833" version="1.1" xmlns="http://www.w3.org/2000/svg" xmlns:xlink="http://www.w3.org/1999/xlink">
    <!-- Generator: Sketch 60 (88103) - https://sketch.com -->
    <title>11</title>
    <desc>Created with Sketch.</desc>
    <defs>
        <linearGradient x1="-25%" y1="79%" x2="125%" y2="21%" id="linearGradient-1">
            <stop stop-color="#FC5050" offset="0%"></stop>
            <stop stop-color="#7E4CA8" offset="56%"></stop>
            <stop stop-color="#0048FF" offset="100%"></stop>
        </linearGradient>
        <linearGradient x1="93.699907%" y1="125%" x2="6.300093%" y2="-25%" id="linearGradient-2">
            <stop stop-color="#E9B49F" offset="0%"></stop>
            <stop stop-color="#E9B49F" offset="9.1%"></stop>
            <stop stop-color="#BC457F" offset="43.5%"></stop>
            <stop stop-color="#6F3FBF" offset="100%"></stop>
        </linearGradient>
    </defs>
    <g id="Page-1" stroke="none" stroke-width="1" fill="none" fill-rule="evenodd">
        <g id="11" transform="translate(-1.000000, 0.000000)" fill-rule="nonzero">
            <g id="bg">
                <path d="M393.181,831.463 C371.20524,830.275204 349.40631,826.864462 328.118,821.283 C305.348572,815.346448 283.123605,807.48963 261.682,797.797 C239.188528,787.65695 217.512905,775.792579 196.849,762.31 C175.61133,748.477803 155.468027,733.034002 136.597,716.115 C133.975,713.763 131.381333,711.384333 128.816,708.979 C112.715728,693.909574 97.7109785,677.710794 83.916,660.506 C67.9361045,640.60664 53.8338601,619.269823 41.79,596.769 C16.602,549.426 2.956,500.069 1.232,450.074 C-0.271677224,403.063244 5.28206444,356.092734 17.708,310.729 C29.6305733,266.752134 47.495196,224.606764 70.808,185.458 C82.0297598,166.587742 94.5254199,148.504785 108.208,131.335 C121.428595,114.742155 135.832898,99.1280242 151.308,84.615 C166.15349,70.6884401 182.090432,57.9731292 198.966,46.591 C215.095046,35.7106043 232.187172,26.3310566 250.028,18.57 C273.807,8.316 296.789,2.427 318.334,1.07 C339.303,-0.255 358.879,2.705 376.518,9.87 C392.767975,16.5228244 407.367864,26.6462969 419.296,39.532 C431.624,52.691 441.871,69.008 449.755,88.032 C475.816,150.911 476.908,190.547 477.784,222.395 C478.463,247.101 479.003,266.616 490.84,288.619 C503.772,312.657 518.04,331.043 533.227,345.287 C574.466,383.962 622.54,392.11 669.453,400.068 C684.948,402.697 700.968,405.415 716.353,409.2 C733.619,413.448 748.313,418.638 761.282,425.068 C782.816,435.746 801.364,450.508 814.921,467.754 C822.020831,476.682983 827.767134,486.608783 831.975,497.212 C836.220515,507.996367 838.530242,519.445142 838.798,531.032 C838.987361,543.223583 837.643494,555.390621 834.798,567.247 C831.912885,579.244358 827.939423,590.953536 822.927,602.229 C814.253,622.008 802.085,642.698 785.727,665.481 C763.864,695.929 742.433,720.275 720.211,739.911 C679.306,776.059 627.124,802.011 565.116,817.059 C536.706318,823.832075 507.7977,828.308185 478.67,830.444 C462.288,831.699 445.439,832.328 428.298,832.328 C416.708,832.328 405.002333,832.038333 393.181,831.463 Z M250.813,20.372 C103.398,83.935 -3.058,268.642 3.195,450.013 C6.628,549.655 58.431,640.729 130.918,708.697 C206.362,779.442 304.207,825.164 393.272,829.503 C489.504,834.194 624.113,822.203 718.905,738.439 C741.018,718.902 762.351,694.662 784.127,664.339 C820.438,613.771 837.679,570.178 836.837,531.073 C835.772,481.626 796.661,444.802 760.415,426.828 C731.796,412.637 699.941,407.228 669.13,402.006 C637.003,396.555 603.783,390.92 572.967,375.458 C556.555013,367.268526 541.558854,356.506199 528.547,343.579 C513.653,328.857 500.753,311.184 489.114,289.547 C477.054,267.131 476.514,247.414 475.823,222.447 C474.952,190.76 473.867,151.325 447.944,88.78 C438.912,66.987 426.729,48.87 411.928,34.991 C401.422517,25.0600427 389.168959,17.1602089 375.787,11.691 C360.608378,5.65612112 344.401662,2.6283362 328.068,2.77084792 C304.042,2.77084792 277.981,8.657 250.813,20.372 Z M375.793,809.125 C358.557748,808.190715 341.436673,805.75651 324.624,801.85 C306.792846,797.72093 289.292506,792.274991 272.267,785.557 C254.452195,778.538455 237.128299,770.332698 220.412,760.995 C187.866918,742.827174 157.652961,720.767453 130.436,695.302 C113.903534,679.829803 98.6314447,663.063643 84.765,645.163 C59.182,612.063 40.053,576.763 27.908,540.227 C18.8536781,513.253171 13.6799194,485.129149 12.542,456.699 C10.8755832,412.990061 15.8776324,369.282321 27.376,327.08 C38.3923601,286.249321 55.012708,247.141848 76.763,210.873 C98.018,175.415 123.296,144.064 151.894,117.692 C180.787,91.05 211.782,70.692 244.014,57.172 C266.044,47.936 287.288,42.679 307.156,41.545 C326.556,40.439 344.632,43.258 360.898,49.923 C375.837336,56.0942928 389.262025,65.4294835 400.248,77.286 C411.609,89.4 421.09,104.43 428.431,121.956 C452.672,180.144 453.931,216.75 454.941,246.163 C455.089,250.485 455.229,254.569 455.435,258.578 C456.326,275.791 458.685,290.543 467.315,306.585 C479.252,328.585 492.394,345.462 506.37,358.565 C544.431,394.255 588.697,402.034 631.897,409.63 C660.473,414.653 690.019,419.848 716.645,433.248 C736.445,443.207 753.492,456.908 765.934,472.87 C772.454872,481.145897 777.728193,490.332431 781.586,500.137 C785.480135,510.116327 787.593496,520.70141 787.83,531.411 C787.991877,542.675772 786.744875,553.916598 784.118,564.872 C781.452663,575.957712 777.785243,586.778224 773.161,597.2 C765.148,615.5 753.918,634.629 738.825,655.675 C718.662,683.787 698.868,706.29 678.314,724.465 C640.444,757.965 592.172,781.997 534.837,795.904 C508.560475,802.166021 481.821283,806.296438 454.88,808.255 C439.927,809.39 424.555,809.955019 408.921,809.955019 C397.989667,809.955019 386.946667,809.681 375.792,809.125 L375.793,809.125 Z M244.777,58.984 C106.671,116.884 7.677,287.839 14.504,456.627 C15.6343461,484.872098 20.7747847,512.813027 29.771,539.611 C49.671,599.47 86.392,651.644 131.171,693.635 C203.942,761.88 298.016,803.25 375.886,807.165 C464.822,811.608 589.255,800.612 677.009,722.997 C697.451,704.918 717.147,682.522 737.225,654.533 C770.697,607.855 786.607,567.593 785.866,531.448 C784.93,485.86 749.038,451.736 715.766,435.003 C689.399,421.732 661.305,416.792 631.566,411.564 C602.005,406.364 571.437,400.991 543.03,386.642 C527.901621,379.046508 514.070016,369.105654 502.048,357.188 C488.292,343.625 476.369,327.377 465.594,307.515 C456.788,291.149 454.383,276.156 453.482,258.677 C453.272,254.652 453.131,250.559 452.982,246.228 C451.982,216.975 450.728,180.566 426.626,122.711 C418.231,102.673 406.97,85.996 393.331,73.211 C383.682139,64.0850111 372.43978,56.8080511 360.163,51.742 C345.930219,46.0407441 330.718501,43.1826017 315.387,43.3236476 C293.442,43.3236476 269.633,48.562 244.777,58.984 Z M358.403,786.784 C342.518885,785.89494 326.741786,783.630123 311.249,780.015 C294.828869,776.195988 278.713074,771.169996 263.033,764.978 C246.637681,758.512801 230.692232,750.960344 215.303,742.371 C185.224289,725.592567 157.301039,705.213192 132.15,681.683 C117.094279,667.597384 103.17497,652.344257 90.522,636.066 C66.998,605.747 49.401,573.428 38.222,540.012 C29.8716977,515.246495 25.0346226,489.432604 23.852,463.324 C22.1285372,422.907758 26.6394029,382.467142 37.226,343.424 C47.3452356,305.748524 62.7084404,269.681903 82.865,236.282 C101.819842,204.554775 125.284699,175.750458 152.524,150.772 C179.324,126.41 208.086,107.907 237.996,95.779 C257.396,87.915 276.104,83.33 293.618,82.153 C310.786,80.998 326.86,83.107 341.395,88.427 C355.903825,93.7639447 369.015718,102.317171 379.747,113.445 C390.809,124.797 400.013,139.076 407.101,155.891 C429.578,209.2 430.972,242.763 432.093,269.731 C432.252,273.575 432.403,277.208 432.609,280.777 C433.388,294.256 435.28,308.889 443.781,324.55 C484.339,399.25 540.208,409.414 594.235,419.239 C620.482,424.014 647.626,428.95 671.999,441.434 C690.072,450.673 705.611,463.315 716.937,477.996 C722.881603,485.616369 727.682506,494.063345 731.188,503.07 C734.731541,512.242301 736.648912,521.962144 736.854,531.793 C737.218,550.578 732.687,570.893 723.389,592.175 C716.039,608.999 705.745,626.564 691.916,645.875 C673.455,671.65 655.302,692.307 636.416,709.024 C601.58,739.867 557.216,761.982 504.554,774.752 C480.411719,780.502976 455.842893,784.28704 431.089,786.067 C417.564,787.085 403.667,787.594044 389.535,787.594044 C379.266333,787.594044 368.888,787.329333 358.4,786.788 L358.403,786.784 Z M25.817,463.242 C26.9914592,489.168232 31.7952196,514.801752 40.088,539.394 C58.346,593.976 91.938,641.605 132.91,680.026 C199.936,742.876 286.723,781.093 358.502,784.826 C440.141,789.026 554.402,779.026 635.114,707.553 C653.888,690.934 671.947,670.385 690.321,644.73 C720.956,601.943 735.534,565.013 734.891,531.825 C734.083,490.097 701.415,458.672 671.11,443.179 C646.992,430.829 621.198,426.138 593.888,421.171 C554.103,413.935 513.325,406.515 478.254,373.631 C465.298,361.481 453.122,345.859 442.054,325.483 C433.369,309.483 431.439,294.593 430.648,280.883 C430.442,277.296 430.291,273.658 430.13,269.804 C429.016,242.994 427.63,209.627 405.29,156.643 C397.572,138.332 387.376,123.352 375.123,111.859 C342.071,80.868 293.997,75.186 238.737,97.592 C112.466,148.8 18.937,309.413 25.817,463.242 Z M238.738,97.6 L238.369,96.691 L238.738,97.6 Z M341.014,764.454 C326.479963,763.609227 312.045835,761.512796 297.872,758.188 C282.862803,754.681032 268.131761,750.075284 253.798,744.408 C223.401719,732.355734 194.714247,716.375591 168.467,696.875 C156.379264,687.958887 144.824144,678.34242 133.861,668.075 C120.285814,655.373144 107.720176,641.633625 96.278,626.981 C74.813,599.436 58.753,570.105 48.539,539.805 C40.8765081,517.251399 36.3757193,493.744923 35.165,469.956 C33.3312458,432.837259 37.3174679,395.660187 46.979,359.774 C56.187765,325.249831 70.2957888,292.223235 88.873,261.701 C106.327978,232.728248 127.973693,206.497553 153.107,183.861 C177.846,161.777 204.383,145.132 231.984,134.387 C249.632,127.517 266.617,123.551 282.468,122.6 C298.077,121.664 312.668,123.643 325.847,128.48 C339.034575,133.346108 350.959313,141.115028 360.739,151.212 C370.827,161.521 379.249,174.512 385.775,189.823 C406.467,238.368 408.013,268.899 409.259,293.433 C409.427,296.752 409.587,299.887 409.788,302.974 C410.53,314.414 412.356,328.059 420.254,342.52 C457.065,409.92 507.676,419.532 556.62,428.82 C580.52,433.358 605.238,438.051 627.362,449.62 C643.702,458.138 657.736,469.72 667.945,483.12 C673.312262,490.085969 677.642216,497.792648 680.8,506 C683.989538,514.367112 685.709828,523.222289 685.885,532.175 C686.193,549.283 682.066,567.78 673.626,587.15 C666.937,602.495 657.581,618.498 645.019,636.075 C628.259,659.515 611.742,678.326 594.526,693.582 C562.726,721.776 522.272,741.969 474.283,753.6 C442.325,761.345 407.483,765.244 370.395,765.244 C360.748333,765.244 350.955,764.979333 341.015,764.452 L341.014,764.454 Z M232.7,136.212 C115.78,181.728 29.875,328.283 37.129,469.858 C38.3304815,493.466139 42.7972872,516.793951 50.402,539.176 C67.019,588.476 97.488,631.569 134.65,666.417 C195.927,723.88 275.421,758.931 341.116,762.489 C415.459,766.44 519.544,757.435 593.216,692.112 C610.322,676.952 626.742,658.251 643.416,634.931 C671.21,596.031 684.461,562.431 683.916,532.206 C683.239,494.333 653.788,465.606 626.453,451.356 C604.586,439.925 581.109,435.467 556.253,430.748 C520.191,423.902 483.23,416.881 451.407,387.048 C439.641,376.017 428.582,361.869 418.527,343.457 C410.444,328.663 408.58,314.757 407.827,303.1 C407.627,300 407.467,296.856 407.296,293.528 C406.061,269.152 404.52,238.814 383.968,190.589 C376.779,173.724 367.437,159.984 356.234,149.479 C338.48,132.831 316.046,124.3 290.083,124.3 C272.462,124.3 253.216,128.226 232.7,136.212 Z M323.626,742.112 C298.349,740.676 271.76,734.523 244.595,723.82 C217.111872,712.894876 191.167084,698.440206 167.414,680.82 C156.336694,672.661598 145.749373,663.85803 135.707,654.455 C123.60069,643.124907 112.376763,630.887369 102.133,617.849 C82.723,593.087 68.163,566.756 58.857,539.589 C51.8989951,519.241708 47.7343307,498.044306 46.477,476.577 C44.5304531,442.757959 47.9871543,408.844817 56.717,376.114 C65.0132243,344.743558 77.8620808,314.758288 94.854,287.114 C110.808164,260.891794 130.63638,237.233265 153.666,216.941 C176.34,197.141 200.666,182.348 225.966,172.986 C241.861,167.105 257.117,163.755 271.306,163.028 C284.5346,162.192935 297.794754,164.059148 310.279,168.513 C322.148395,172.908429 332.888088,179.895703 341.716,188.966 C350.831,198.237 358.478,209.942 364.443,223.747 C383.36,267.553 385.064,295.061 386.431,317.163 C386.603,319.945 386.766,322.572 386.96,325.163 C387.998,339.205 391.007,350.096 396.718,360.476 C429.783,420.576 475.134,429.633 518.989,438.39 C540.548,442.69 562.842,447.145 582.716,457.798 C596.85544,465.201171 609.218366,475.586861 618.95,488.237 C623.737634,494.54913 627.593684,501.516288 630.4,508.925 C633.23759,516.486263 634.761217,524.477104 634.905,532.552 C635.155,547.984 631.436,564.661 623.85,582.116 C617.824,595.983 609.405,610.424 598.11,626.266 C583.05,647.366 568.173,664.334 552.623,678.132 C523.864,703.675 487.314,721.947 443.996,732.441 C415.349,739.38 384.15,742.873063 350.957,742.873063 C341.985667,742.873063 332.875333,742.624667 323.626,742.114 L323.626,742.112 Z M48.44,476.469 C49.6858202,497.758394 53.8151699,518.780231 60.715,538.959 C75.784,582.954 103.16,621.496 136.494,652.759 C192.067,704.873 264.226,736.777 323.73,740.153 C390.779,743.853 484.692,735.847 551.321,676.671 C566.758,662.971 581.539,646.114 596.513,625.133 C621.469,590.133 633.386,559.856 632.946,532.586 C632.479,503.697 613.357,476.386 581.797,459.534 C562.179,449.019 541.017,444.793 518.614,440.32 C486.281,433.864 453.136,427.242 424.564,400.456 C413.993,390.544 404.052,377.875 395.003,361.426 C389.149,350.786 386.065,339.646 385.003,325.31 C384.809,322.703 384.648,320.07 384.474,317.283 C383.118,295.333 381.426,268.015 362.641,224.526 C338.972,169.726 289.408,151.608 226.657,174.826 C119.086,214.629 40.8,347.127 48.44,476.469 Z M226.658,174.826 L226.314,173.907 L226.658,174.826 Z M306.234,719.775 C283.552,718.417 259.712,712.855 235.367,703.243 C210.786559,693.45362 187.572449,680.532543 166.3,664.8 C156.212759,657.39328 146.576623,649.391049 137.443,640.836 C126.815843,630.892466 116.946691,620.1686 107.918,608.754 C90.564,586.769 77.531,563.428 69.176,539.381 C62.9071614,521.245361 59.0789124,502.356328 57.792,483.211 C55.7309753,452.693437 58.6539024,422.043908 66.446,392.466 C73.8200711,364.246172 85.4044604,337.298636 100.809,312.531 C115.262516,289.058854 133.274225,267.97418 154.2,250.031 C174.816,232.506 196.945,219.572 219.967,211.59 C234.098,206.69 247.616,203.95 260.139,203.447 C271.886956,202.835305 283.639258,204.566214 294.712,208.539 C305.262751,212.471612 314.818511,218.678469 322.701,226.719 C330.849,234.96 337.72,245.375 343.119,257.679 C360.287,296.779 362.143,321.274 363.635,340.953 C363.803,343.177 363.963,345.277 364.135,347.36 C365.153,359.277 368.03,369.154 373.191,378.449 C402.507,431.249 442.591,439.743 481.358,447.959 C501.458,452.22 520.458,456.245 538.084,465.991 C550.553047,472.721515 561.425449,482.059768 569.961,493.37 C574.172309,499.028264 577.556287,505.257477 580.011,511.87 C582.496171,518.624331 583.822826,525.749857 583.935,532.946 C584.127,546.702 580.813,561.56 574.084,577.102 C568.722,589.493 561.24,602.371 551.209,616.479 C537.853,635.246 524.609,650.364 510.733,662.701 C485.011,685.595 452.37,701.946 413.723,711.301 C388.377,717.437 360.812,720.524 331.506,720.524 C323.218,720.524 314.794333,720.270667 306.235,719.776 L306.234,719.775 Z M59.75,483.083 C61.0231711,502.054627 64.8161507,520.772354 71.029,538.743 C84.478,577.459 108.729,611.451 138.247,639.134 C188.081,685.864 252.954,714.621 306.347,717.818 C366.099,721.271 449.838,714.258 509.425,661.23 C523.192,648.991 536.335,633.98 549.608,615.335 C571.727,584.223 582.308,557.28 581.97,532.967 C581.613,507.348 564.855,482.955 537.139,467.708 C519.763,458.108 500.913,454.108 480.954,449.879 C452.354,443.817 423.035,437.602 397.718,413.864 C388.34,405.072 379.518,393.879 371.473,379.398 C366.173,369.852 363.221,359.724 362.182,347.524 C362.001,345.431 361.843,343.324 361.673,341.096 C360.194,321.567 358.352,297.263 341.318,258.463 C319.974,209.844 277.106,193.855 220.612,213.443 C134.5,243.3 50.784,352.321 59.75,483.083 Z M220.612,213.444 L220.286,212.517 L220.612,213.444 Z M288.844,697.444 C268.759,696.162 247.663,691.191 226.144,682.672 C204.461469,674.017151 183.973859,662.626893 165.179,648.778 C156.08803,642.124273 147.407536,634.92715 139.185,627.226 C111.415,601.187 90.654,570.731 79.495,539.179 C73.9105976,523.255177 70.4180515,506.673483 69.105,489.85 C66.9242429,462.636312 69.3043238,435.249496 76.147,408.82 C82.5934575,383.75434 92.9083163,359.846931 106.72,337.959 C119.669542,317.230347 135.864859,298.716494 154.687,283.125 C173.257,267.878 193.199,256.8 213.963,250.198 C238.921,242.261 260.84,241.707 279.117,248.548 C297.755,255.525 312.117,270.015 321.791,291.612 C337.239,326.082 339.249,347.574 340.866,364.843 C341.018,366.476 341.166,368.017 341.317,369.556 C342.206977,378.991394 345.04913,388.13866 349.663,396.417 C375.228,441.917 410.042,449.844 443.709,457.517 C461.379,461.539 478.067,465.34 493.456,474.187 C504.253405,480.245081 513.634443,488.536546 520.973,498.508 C528.796,509.383 532.83,521.101 532.966,533.335 C533.212,555.119 523.84,579.111 504.312,606.68 C492.652,623.109 481.051,636.38 468.843,647.262 C446.156,667.505 417.422,681.934 383.443,690.152 C360.037527,695.637396 336.064132,698.327849 312.025,698.167 C304.427,698.160333 296.7,697.917333 288.844,697.438 L288.844,697.444 Z M214.559,252.068 C136.618,276.852 61.63,372.513 71.059,489.696 C72.3568999,506.349631 75.8131657,522.764036 81.341,538.527 C92.676,570.578 114.089,600.965 141.141,626.327 C182.515,665.127 237.078,692.174 288.965,695.484 C341.423,698.689 414.99,692.67 467.529,645.791 C479.629,635.013 491.134,621.847 502.705,605.539 C521.984,578.32 531.239,554.707 531.002586,533.349 C530.75,511 516.351,489.519 492.477,475.886 C477.341,467.186 460.794,463.417 443.277,459.425 C418.411,453.762 392.927,447.955 370.871,427.276 C361.738605,418.547274 354.007359,408.462014 347.95,397.376 C343.201614,388.862414 340.276305,379.454086 339.36,369.749 C339.208,368.206 339.06,366.662 338.909,365.024 C337.309,347.899 335.309,326.585 319.997,292.412 C314.769,280.748 308.209,271.233 300.397,263.912 C287.487,251.806 271.166,245.681987 251.804,245.681987 C240.417,245.676 227.977,247.794 214.559,252.062 L214.559,252.068 Z M271.452,675.1 C253.965,673.9 235.617,669.519 216.913,662.092 C198.130346,654.571214 180.370945,644.712123 164.055,632.748 C155.934895,626.834229 148.186882,620.425754 140.855,613.559 C117.192,591.372 99.448,565.586 89.809,538.966 C84.9070366,525.255055 81.7508826,510.981471 80.415,496.482 C75.9213451,449.763802 87.242155,402.889563 112.563,363.372 C124.010956,345.382637 138.394778,329.440537 155.116,316.209 C171.645,303.24 189.427,294.016 207.965,288.792 C229.381,282.758 248.065,282.664 263.492,288.513 C279.508,294.588 291.945,307.042 300.455,325.532 C314.249,355.497 316.415,374.027 318.155,388.917 C318.267,389.869 318.378,390.809333 318.488,391.738 C319.510339,399.71518 322.10727,407.409779 326.128,414.375 C347.933,452.57 377.469,459.923 406.028,467.034 C421.269,470.827 435.667,474.413 448.82,482.375 C457.944913,487.75935 465.836176,495.001582 471.982,503.632 C478.542,513.066 481.909,523.187 481.989873,533.713 C482.131,552.541 474.088,573.2 457.403,596.873 C447.446,610.966 437.483,622.394 426.942,631.812 C407.291,649.404 382.466,661.912 353.16,668.995 C333.287847,673.65145 312.93398,675.937047 292.524,675.804 C285.624,675.801333 278.6,675.566667 271.452,675.1 Z M208.502,290.68 C138.702,310.345 72.442,392.632 82.371,496.297 C83.6914735,510.631317 86.8116835,524.742314 91.658,538.297 C101.433,565.297 119.671,590.967 142.677,612.539 C178.677,646.295 226.348,670.022 271.577,673.139 C316.743,676.093 380.137,671.066 425.629,630.339 C436.059,621.021 445.929,609.701 455.798,595.73 C472.238,572.405 480.162,552.119 480.022849,533.712 C479.88,514.634 467.838,496.066 447.807,484.045 C434.907,476.237 420.649,472.686 405.554,468.93 C391.254,465.368 376.464,461.687 362.554,454.056 C346.842,445.433 334.366,432.768 324.414,415.336 C320.263282,408.142189 317.58339,400.19531 316.53,391.957 C316.418,391.028 316.309,390.086 316.197,389.13 C314.473,374.38 312.329,356.02 298.665,326.339 C294.717503,317.397228 289.070188,309.307657 282.037,302.52 C270.481,291.685 255.73,286.194 238.158,286.194 C228.113431,286.325878 218.134422,287.834943 208.5,290.679 L208.502,290.68 Z M254.057,652.764 C238.116832,651.41634 222.476083,647.641464 207.676,641.57 C191.789933,635.186981 176.757661,626.856619 162.924,616.77 C155.789956,611.601535 148.987257,605.99051 142.556,599.97 C122.987,581.621 108.256,560.48 100.128,538.757 C95.9008711,527.259941 93.0803743,515.293648 91.728,503.119 C89.2923262,482.522353 90.551392,461.656334 95.446,441.502 C99.9866862,422.741857 107.726997,404.904739 118.327,388.774 C128.269036,373.513252 140.844253,360.140974 155.466,349.281 C169.320018,338.894384 185.146897,331.442517 201.979,327.381 C219.812,323.2 235.237,323.549 247.833,328.423 C261.247,333.616 271.773,344.051 279.123,359.445 C291.423,385.211 293.736,400.86 295.59,413.431 L295.659,413.904 C296.831913,420.415104 299.181273,426.658038 302.592,432.327 C320.656,463.259 344.923,470.027 368.392,476.57 C381.192,480.139 393.285,483.511 404.2,490.562 C411.636862,495.291021 418.030604,501.487745 422.99,508.773 C428.127938,516.223449 430.922468,525.039191 431.015178,534.089 C431.055,549.964 424.346,567.289 410.504,587.06 C403.165438,597.76675 394.624418,607.597512 385.048,616.36 C368.418,631.315 347.502,641.919 322.884,647.871 C306.616499,651.695618 289.952748,653.577096 273.242,653.476 C266.963333,653.479867 260.568667,653.241667 254.058,652.763 L254.057,652.764 Z M93.681,502.9 C95.0148065,514.918191 97.7983825,526.730761 101.971,538.08 C110.205,560.099 125.285,581.097 144.256,598.889 C174.883,627.608 215.662,647.972 254.197,650.806 C291.99,653.587 345.138,649.615 383.736,614.906 C393.200035,606.24184 401.641301,596.522925 408.895,585.939 C422.495,566.513 429.095,549.555 429.053199,534.097 C429.017,518.334 419.327,502.676 403.135,492.216 C392.473,485.328 380.52,481.996 367.868,478.466 C356.114,475.191 343.962,471.8 332.485,465.298 C319.496,457.939 309.164,447.48 300.898,433.321 C297.36079,427.436043 294.927574,420.95481 293.718,414.196 L293.646,413.723 C291.812,401.279 289.526,385.792 277.346,360.294 C263.51,331.313 238.302,320.884 202.427,329.3 C142.077,343.459 83.336,413.854 93.681,502.9 Z M202.433,329.3 L202.208,328.344 L202.433,329.3 Z M236.662,630.425 C223.525162,629.198355 210.644772,626.01904 198.446,620.992 C185.457295,615.746535 173.150618,608.949523 161.794,600.749 C155.603417,596.306918 149.707382,591.4681 144.143,586.263 C128.717,571.797 117.036,555.349 110.453,538.563 C106.890511,529.280613 104.404921,519.620094 103.045,509.771 C98.056,475.317 105.484,441.36 123.956,414.153 C132.391936,401.604114 143.167054,390.798439 155.692,382.327 C167.816358,374.07249 181.5635,368.501969 196.014,365.988 C210.381,363.534 222.192,364.279 232.124,368.264 C237.465533,370.409183 242.338972,373.572555 246.473,377.578 C251.106016,382.167835 254.931977,387.505993 257.79,393.368 C268.061,413.773 270.94,426.112 272.832,436.075 C273.774,441.036 277.132,447.11 279.057,450.289 C293.337,473.911 312.281,480.046 330.603,485.979 C341.037,489.36 350.889,492.55 359.59,498.774 C365.343165,502.830169 370.242462,507.978186 374.009,513.925 C377.935116,520.064094 380.028363,527.195843 380.043,534.483 C379.978,547.41 374.6,561.402 363.605,577.261 C357.721094,585.906542 350.860879,593.845534 343.16,600.921 C329.56,613.227 312.554,621.908 292.607,626.721 C279.815961,629.72858 266.713656,631.210239 253.574,631.135 C248.045333,631.137727 242.407667,630.900333 236.661,630.425 L236.662,630.425 Z M104.987,509.493 C106.32745,519.192006 108.774051,528.705634 112.279,537.848 C118.937,554.831 130.823,571.112 145.72,585.084 C170.978,608.771 204.914,625.83 236.82,628.468 C267.32,630.992 310.303,628.01 341.838,599.468 C349.428032,592.492328 356.18987,584.666152 361.99,576.144 C372.75,560.622 378.015,546.99 378.077523,534.473 C378.148,521.773 370.993,509.347 358.448,500.373 C349.993,494.327 340.282,491.181 330.001,487.851 C320.826,484.88 311.339,481.807 302.32,476.451 C292.018862,470.303899 283.438757,461.652588 277.377,451.301 C275.389,448.009 271.899,441.701 270.902,436.437 C269.035,426.604 266.192,414.425 256.035,394.246 C244.488,371.306 225.522,362.94 196.346,367.921 C143.852,376.882 94,433.556 104.987,509.493 Z M196.346,367.921 L196.179,366.954 L196.346,367.921 Z M219.26,608.086 C200.122,606.227 179.307,597.931 160.654,584.731 C155.364629,580.995455 150.336901,576.902574 145.606,572.481 C134.372,561.946 125.785,550.216 120.775,538.37 C117.863842,531.305569 115.713705,523.951054 114.361,516.431 C111.162535,499.561239 111.772036,482.190102 116.145,465.586 C120.337,449.957 127.796,436.063 137.717,425.407 C152.217,409.836 170.802,402.439 190.072,404.569 C198.723696,402.046818 207.99956,402.780705 216.147,406.632 C224.276,410.563 231.106,417.507 236.447,427.273 C240.261568,434.307333 243.539229,441.61981 246.252,449.148 C247.525,452.516 248.622,455.424 249.919,458.028 L250.011,458.213 L250.022,458.42 C250.122,460.513 252.28,463.585 254.015,466.051 C254.567,466.833 255.087,467.572 255.515,468.24 C265.967,484.54 279.533,489.953 292.65,495.19 C300.793,498.44 308.485,501.511 315.004,507.009 C319.060911,510.388746 322.462371,514.485074 325.039,519.094 C327.744118,523.912037 329.134297,529.356875 329.072133,534.882 C328.893,544.729 324.733,555.69 316.704,567.46 C312.274164,574.045259 307.092607,580.092311 301.264,585.479 C290.711,595.134 277.606,601.896 262.325,605.573 C252.962733,607.773253 243.373201,608.859121 233.756,608.809724 C229.028,608.802667 224.196,608.561667 219.26,608.085 L219.26,608.086 Z M139.16,426.744 C118.811,448.6 110.048,482.829 116.295,516.072 C117.623243,523.453903 119.733118,530.673536 122.589,537.609 C127.645,549.566 136.3,561.12 147.089,571.239 C166.982,589.893 194.142,603.676 219.449,606.133 C242.678,608.389 275.498,606.384 299.94,584.025 C305.657704,578.740744 310.739996,572.808047 315.084,566.347 C322.892,554.899 326.939,544.299 327.108,534.839 C327.28,525.412 322.408,515.812 313.739,508.503 C307.466,503.214 299.917,500.203 291.928,497.008 C285.358,494.386 278.566,491.675 272.049,487.514 C264.715257,482.857778 258.504114,476.634682 253.862,469.292 C253.462,468.662 252.949,467.938 252.413,467.173 C250.485,464.433 248.306,461.339 248.076,458.718 C246.776,456.074 245.676,453.179 244.416,449.835 C241.734841,442.392911 238.495289,435.164008 234.725,428.21 C232.10037,423.28002 228.710235,418.797642 224.681,414.93 C215.181,406.019 203.25,402.965 190.418,406.508 L190.233,406.559 L190.045,406.537 C187.909934,406.294022 185.762848,406.171828 183.614,406.171 C167.231,406.171 151.644,413.332 139.157,426.744 L139.16,426.744 Z M201.851,585.744 C188.062,584.051 173.022,578.003 159.499,568.71 C155.061122,565.66758 150.85858,562.295385 146.927,558.622 C139.948,552.08 134.44,545.016 131.119,538.202 C123.097049,521.147611 120.964155,501.912523 125.055,483.515 C127.99,471.379 133.718,460.956 141.624,453.373 C152.78311,442.257022 169.223673,438.31907 184.208,443.173 C189.862392,442.439287 195.600043,443.611026 200.514,446.503 C205.95,449.574 210.853,454.503 215.091,461.15 C217.257,464.55 218.991,467.517 220.512,470.139 C222.380405,473.614271 224.541203,476.924216 226.971,480.033 L227.188,480.286 L227.204,480.621 C227.242,481.278 229.279,483.321 230.148,484.199 C230.793937,484.811002 231.398282,485.465458 231.957,486.158 C238.457,495.107 246.485,499.496 254.251,503.741 C260.342,507.069 266.093,510.215 270.47,515.297 C274.159,519.58 278.477,526.526 278.097,535.284 C277.797,542.26 275.013,549.784 269.813,557.644 C266.833305,562.166752 263.33117,566.322727 259.379,570.026 C251.682962,577.127016 242.259686,582.086218 232.049,584.409 C226.024574,585.819525 219.855279,586.517309 213.668,586.488886 C209.716253,586.48099 205.768605,586.233198 201.847,585.746 L201.851,585.744 Z M142.984,454.79 C126.901,470.216 120.86,496.844 127.592,522.623 C128.868059,527.691494 130.640282,532.621965 132.883,537.343 C143.737,559.61 174.783,580.443 202.083,583.795 C218.063,585.754 240.741,584.706 258.036,568.586 C261.872639,564.985462 265.273557,560.947186 268.169,556.554 C273.169,548.995 275.848,541.807 276.131,535.192 C276.48,527.074 272.431,520.586 268.977,516.572 C264.836,511.76 259.235,508.698 253.307,505.457 C245.72,501.311 237.12,496.609 230.363,487.304 C229.860668,486.696947 229.322367,486.120578 228.751,485.578 C226.864,483.678 225.562,482.293 225.289,481.078 C222.861356,477.940995 220.695094,474.610162 218.812,471.119 C217.293,468.512 215.573,465.558 213.43,462.198 C211.297542,458.784446 208.74677,455.650822 205.837,452.87 C199.325,446.763 191.91,444.056 184.263,445.14 L184.048,445.171 L183.84,445.108 C179.676622,443.816968 175.344903,443.150057 170.986,443.129 C160.662,443.131 151.008,447.094 142.981,454.792 L142.984,454.79 Z M188.952,564.016 C177.421,562.977 166.918,557.928 160.143,553.876 C155.323411,551.016512 150.815046,547.662385 146.691,543.868 C144.785307,542.125522 143.052884,540.202542 141.518,538.126 C139.726072,535.547278 138.22652,532.777249 137.047,529.867 C133.298787,521.265997 132.058425,511.780594 133.469,502.505 C134.856,494.226 138.637,487.075 144.118,482.369 C148.385785,478.670028 153.788274,476.538525 159.432,476.327 C165.614,476.081 172.068,477.97 178.61,481.94 C182.61,484.367 187.664,488.734 193.643,494.927 C196.524916,497.922495 199.973818,500.314903 203.789,501.965 L208.023,503.799 C212.878941,505.902492 217.146631,509.16188 220.454,513.293 C223.670099,517.296943 225.853403,522.029611 226.812,527.075 C227.70252,531.779585 227.407651,536.631869 225.954,541.194 C224.291675,546.284499 221.387193,550.880599 217.503,554.567 C210.929,560.972 202.728,564.207005 193.083,564.207005 C191.731,564.207005 190.353,564.145 188.949,564.019 L188.952,564.016 Z M145.4,483.859 C134.367,493.331 131.678,511.942 138.859,529.115 C139.981544,531.889371 141.408618,534.530547 143.114,536.99 C149.647,546.133 169.79,560.322 189.126,562.064 C199.978,563.04 209.063,560.045 216.126,553.158 C223.51,545.958 226.619,536.823 224.876,527.429 C222.940912,517.697943 216.349561,509.538094 207.243,505.6 L203,503.767 C198.947277,502.012755 195.283635,499.470504 192.222,496.288 C190.361,494.363 188.671,492.699 187.141,491.265 C184.220986,488.401247 181.019054,485.839902 177.584,483.62 C171.711,480.055 165.873,478.272554 160.434,478.272554 C154.908968,478.238321 149.561926,480.225056 145.4,483.859 L145.4,483.859 Z" id="Shape_701" fill="url(#linearGradient-1)"></path>
                <path d="M1469.1,768.01 C1435.886,765.21 1401.079,752.854 1368.449,732.26 C1338.20544,713.087197 1311.32269,689.068706 1288.878,661.167 C1267.10804,634.199066 1249.43237,604.169276 1236.421,572.046 C1223.80527,541.263664 1215.75133,508.804343 1212.514,475.695 C1209.414,443.043 1211.466,411.814 1218.614,382.88 C1225.088,356.68 1233.844,330.542 1242.314,305.262 C1251.866,276.748 1261.745,247.262 1268.293,217.783 C1273.36736,194.111885 1284.11354,172.026879 1299.608,153.426 C1313.992,136.268 1332.664,121.919 1355.108,110.778 C1397.519,89.732 1452.327,80.439 1513.608,83.908 C1571.421,87.182 1631.537,101.982 1682.875,125.589 C1711.982,138.968 1739.231,157.822 1763.864,181.616 C1786.52747,203.604769 1806.08635,228.581568 1822,255.856 C1836.885,281.24 1848.467,308.343 1855.5,334.237 C1862.371,359.542 1864.8,383.246 1862.52,402.786 C1860.7184,417.43663 1855.92854,431.561484 1848.447,444.286 C1846.71367,447.296 1844.83167,450.274667 1842.801,453.222 C1833.154,467.222 1820.326,480.289 1804.678,492.068 C1768.722,519.139 1741.537,554.603 1712.754,592.146 C1677.062,638.705 1636.608,691.476 1570.506,740.392 C1555.79149,751.34087 1539.0932,759.332075 1521.336,763.923 C1508.92369,767.084242 1496.16149,768.663432 1483.353,768.623757 C1478.655,768.623757 1473.904,768.413333 1469.1,768.01 Z M1569.327,738.784 C1635.202,690.033 1675.566,637.384 1711.178,590.927 C1740.046,553.271 1767.311,517.702 1803.485,490.47 C1818.19,479.4 1835.064,463.616 1846.756,443.318 C1854.09229,430.817326 1858.78541,416.944211 1860.545,402.557 C1865.235,362.317 1850.184,307.857 1820.289,256.867 C1786.171,198.68 1737.076,152.701 1682.052,127.402 C1573.263,77.385 1439.187,71.285 1356.001,112.568 C1309.551,135.621 1280.701,171.168 1270.247,218.218 C1263.676,247.797 1253.781,277.334 1244.213,305.898 C1235.757,331.14 1227.013,357.243 1220.556,383.361 C1189.695,508.239 1253.734,657.508 1369.515,730.573 C1440.8,775.555 1515.5,778.625 1569.331,738.784 L1569.327,738.784 Z M1473.333,743.168 C1442.769,740.676 1410.733,729.368 1380.69,710.477 C1352.80505,692.86403 1328.0239,670.762006 1307.349,645.065 C1287.28553,620.212055 1271.00407,592.531178 1259.032,562.919 C1247.41404,534.527939 1240.00258,504.59303 1237.032,474.061 C1234.184,443.948 1236.083,415.154 1242.678,388.478 C1248.678,364.213 1256.796,340.014 1264.648,316.608 C1273.42,290.475 1282.487,263.452 1288.537,236.459 C1293.27417,214.596821 1303.24544,194.210589 1317.595,177.05 C1330.915,161.213 1348.195,147.972 1368.945,137.696 C1408.045,118.337 1458.497,109.777 1514.856,112.941 C1568.035,115.925 1623.325,129.515 1670.539,151.201 C1697.364,163.52 1722.469,180.901 1745.161,202.858 C1766.04195,223.152711 1784.04945,246.207638 1798.683,271.382 C1812.383,294.821 1823.028,319.849 1829.468,343.76 C1835.768,367.137 1837.962,389.031 1835.814,407.077 C1834.13774,420.50665 1829.73648,433.452492 1822.88,445.121 C1821.24467,447.963667 1819.46233,450.777 1817.533,453.561 C1808.59,466.469 1796.726,478.474 1782.268,489.242 C1748.937,514.136 1723.756,546.909 1697.097,581.606 C1664.297,624.29 1627.128,672.668 1566.629,717.522 C1553.09253,727.620348 1537.73182,735.007152 1521.392,739.276 C1509.84812,742.246915 1497.97199,743.730927 1486.052,743.692746 C1481.85733,743.692746 1477.619,743.517333 1473.337,743.168 L1473.333,743.168 Z M1369.833,139.483 C1341.123,153.7 1319.671,173.073 1305.702,197.332 C1298.65538,209.672451 1293.52387,223.011551 1290.483,236.893 C1284.411,263.993 1275.327,291.062 1266.542,317.244 C1258.701,340.612 1250.593,364.772 1244.615,388.957 C1216.124,504.231 1275.082,641.728 1381.753,708.788 C1447.264,749.988 1515.931,752.656 1565.443,715.919 C1625.718,671.23 1662.799,622.969 1695.516,580.392 C1722.264,545.582 1747.525,512.702 1781.076,487.641 C1794.707,477.493 1810.361,462.962 1821.176,444.178 C1827.89356,432.723748 1832.20059,420.018039 1833.833,406.84 C1838.25,369.723 1824.464,319.462 1796.96,272.39 C1765.578,218.684 1720.387,176.29 1669.703,153.016 C1614.061,127.457 1551.155,114.401 1493.114,114.401 C1446.913,114.401 1403.8,122.668 1369.836,139.484 L1369.833,139.483 Z M1477.571,718.326 C1449.654,716.138 1420.387,705.892 1392.935,688.695 C1367.40768,672.642435 1344.7282,652.455637 1325.825,628.961 C1307.46651,606.224287 1292.57756,580.893329 1281.643,553.793 C1271.02342,527.793427 1264.25477,500.383299 1261.551,472.429 C1258.958,444.853 1260.701,418.492 1266.737,394.078 C1272.259,371.744 1279.744,349.478 1286.984,327.949 C1294.969,304.2 1303.227,279.643 1308.778,255.131 C1313.18083,235.079869 1322.37651,216.394109 1335.578,200.673 C1347.836,186.158 1363.716,174.024 1382.778,164.612 C1418.56,146.944 1464.66,139.112 1516.096,141.974 C1564.641,144.674 1615.103,157.046 1658.196,176.814 C1683.47243,188.575353 1706.55537,204.565735 1726.45,224.096 C1745.54895,242.69948 1762.00719,263.833595 1775.365,286.908 C1787.5842,307.710792 1797.02203,330.026457 1803.437,353.284 C1809.165,374.733 1811.126,394.818 1809.11,411.363 C1807.56046,423.575292 1803.54885,435.346139 1797.318,445.963 C1795.77467,448.641667 1794.091,451.289667 1792.267,453.907 C1784.028,465.726 1773.124,476.667 1759.856,486.424 C1729.156,509.141 1705.976,539.224 1681.439,571.072 C1651.539,609.88 1617.652,653.872 1562.755,694.656 C1550.39839,703.905164 1536.3765,710.688638 1521.455,714.636 C1510.77651,717.416642 1499.78353,718.80614 1488.749,718.770687 C1485.05633,718.770687 1481.33133,718.621667 1477.574,718.327 L1477.571,718.326 Z M1383.666,166.4 C1357.229,179.456 1337.475,197.272 1324.619,219.6 C1318.20962,230.826509 1313.52618,242.953632 1310.726,255.574 C1305.154,280.185 1296.878,304.793 1288.878,328.59 C1281.649,350.082 1274.178,372.305 1268.678,394.557 C1246.466,484.415 1282.839,617.449 1393.998,687.006 C1453.732,724.428 1516.373,726.689 1561.561,693.054 C1616.235,652.431 1650.035,608.56 1679.855,569.854 C1704.482,537.89 1727.74,507.702 1758.668,484.817 C1771.222,475.585 1785.658,462.312 1795.607,445.039 C1801.70345,434.631376 1805.62203,423.093725 1807.125,411.126 C1811.209,377.637 1798.378,330.426 1773.639,287.916 C1744.998,238.697 1703.703,199.886 1657.363,178.631 C1606.78701,155.719039 1551.94124,143.750056 1496.418,143.507994 C1454.192,143.5 1414.749,151.054 1383.666,166.4 Z M1481.816,693.487 C1456.547,691.604 1430.051,682.415 1405.188,666.916 C1382.01868,652.423122 1361.44062,634.151649 1344.308,612.86 C1327.6563,592.237693 1314.16097,569.25579 1304.264,544.667 C1294.64454,521.05858 1288.51812,496.17392 1286.078,470.798 C1283.737,445.759 1285.327,421.833 1290.806,399.677 C1295.85,379.277 1302.706,358.947 1309.328,339.289 C1316.528,317.927 1323.978,295.834 1329.028,273.805 C1333.09753,255.563452 1341.51937,238.577052 1353.575,224.295 C1364.775,211.103 1379.257,200.078 1396.629,191.528 C1429.096,175.549 1470.842,168.453 1517.353,171.006 C1561.259,173.418 1606.898,184.578 1645.86,202.429 C1688.227,221.829 1725.941,257.347 1752.049,302.437 C1763.11105,321.364093 1771.63773,341.662893 1777.41,362.812 C1782.565,382.335 1784.294,400.607 1782.41,415.651 C1780.98763,426.620893 1777.37074,437.19202 1771.775,446.734 C1770.31767,449.262 1768.72267,451.760333 1766.99,454.229 C1758.82039,465.57326 1748.83932,475.495539 1737.447,483.598 C1709.258,504.116 1688.047,531.588 1665.584,560.673 C1638.632,595.573 1608.084,635.131 1558.884,671.787 C1547.70423,680.190369 1535.01733,686.372915 1521.51,690 C1511.69628,692.592409 1501.5853,693.888429 1491.435,693.85563 C1488.257,693.85563 1485.05067,693.731333 1481.816,693.49 L1481.816,693.487 Z M1397.509,193.32 C1373.34,205.214 1355.284,221.477 1343.543,241.863 C1337.76716,251.975354 1333.53031,262.891878 1330.972,274.253 C1325.898,296.377 1318.437,318.516 1311.219,339.927 C1304.605,359.545 1297.766,379.827 1292.742,400.157 C1272.262,482.987 1309.118,604.782 1406.242,665.22 C1460.201,698.864 1516.814,700.72 1557.68,670.188 C1606.663,633.696 1637.122,594.254 1663.995,559.455 C1686.543,530.255 1707.843,502.672 1736.264,481.987 C1754.264,468.887 1776.545,446.695 1780.419,415.409 C1784.234,384.996 1772.7,342.093 1750.319,303.438 C1724.419,258.704 1687.019,223.476 1645.025,204.246 C1599.35314,183.59718 1549.83835,172.81739 1499.716,172.611 C1461.47,172.611 1425.714,179.44 1397.509,193.322 L1397.509,193.32 Z M1486.057,668.648 C1463.437,667.067 1439.708,658.936 1417.436,645.135 C1396.62441,632.202784 1378.14737,615.84727 1362.785,596.759 C1347.83768,578.252044 1335.73451,557.619018 1326.875,535.541 C1318.25464,514.323492 1312.77107,491.96339 1310.597,469.165 C1308.509,446.665 1309.947,425.165 1314.865,405.277 C1319.436,386.8 1325.653,368.406 1331.665,350.623 C1338.08,331.645 1344.717,312.023 1349.265,292.481 C1353.00183,276.048113 1360.65202,260.760752 1371.565,247.919 C1381.699,236.045 1394.789,226.129 1410.465,218.444 C1439.619,204.154 1477.005,197.791 1518.591,200.044 C1557.862,202.168 1598.674,212.115 1633.511,228.049 L1633.511,228.049 C1671.541,245.428 1705.355,277.361 1728.725,317.971 C1738.6296,335.022221 1746.24414,353.30425 1751.372,372.345 C1755.955,389.938 1757.451,406.399 1755.692,419.945 C1754.40072,429.690336 1751.17452,439.079261 1746.203,447.56 C1744.841,449.928667 1743.341,452.265333 1741.703,454.57 C1734.32448,464.726492 1725.30773,473.584742 1715.022,480.782 C1689.422,499.108 1670.2,523.915 1649.849,550.182 C1625.811,581.199 1598.569,616.356 1554.993,648.927 C1537.273,662.227 1516.883,668.945 1494.286,668.945 C1491.57467,668.945 1488.83133,668.844 1486.056,668.65 L1486.057,668.648 Z M1411.349,220.235 C1389.449,230.971 1373.087,245.676 1362.459,264.135 C1357.31836,273.131815 1353.5285,282.835593 1351.211,292.935 C1346.642,312.571 1339.992,332.235 1333.561,351.26 C1327.561,369.007 1321.355,387.36 1316.804,405.76 C1298.369,480.309 1331.362,589.595 1418.487,643.441 C1466.674,673.304 1517.259,674.756 1553.803,647.326 C1597.164,614.918 1624.318,579.875 1648.275,548.959 C1668.719,522.576 1688.03,497.659 1713.865,479.159 C1730.065,467.559 1750.132,447.831 1753.717,419.693 C1757.264,392.356 1747.026,353.76 1726.997,318.963 C1703.834,278.714 1670.339,247.07 1632.685,229.863 C1591.91856,211.476813 1547.73553,201.886504 1503.015,201.717 C1468.745,201.717 1436.674,207.823 1411.348,220.237 L1411.349,220.235 Z M1490.298,643.805 C1470.324,642.529 1449.364,635.457 1429.684,623.351 C1411.22998,611.977933 1394.85361,597.537047 1381.261,580.651 C1355.18036,548.248296 1339.1415,508.927836 1335.118,467.528 C1333.21381,448.562387 1334.50199,429.411742 1338.929,410.872 C1343.022,394.316 1348.608,377.855 1354.013,361.935 C1359.644,345.352 1365.466,328.202 1369.507,311.148 C1372.91132,296.524816 1379.78755,282.936659 1389.554,271.533 C1398.63,260.982 1410.325,252.174 1424.315,245.349 C1450.148,232.749 1483.183,227.12 1519.838,229.066 C1554.474,230.902 1590.457,239.635 1621.168,253.652 C1654.853,269.009 1684.768,297.361 1705.403,333.489 C1714.15009,348.665139 1720.85344,364.930589 1725.339,381.863 C1729.351,397.53 1730.611,412.179 1728.983,424.231 C1727.81826,432.753578 1724.98201,440.962264 1720.637,448.386 C1719.37033,450.590667 1717.96767,452.763 1716.429,454.903 C1709.83874,463.871376 1701.7847,471.66544 1692.605,477.958 C1669.597,494.083 1652.369,516.223 1634.127,539.658 C1613.009,566.796 1589.073,597.558 1551.114,626.044 C1535.55993,637.891512 1516.49925,644.213987 1496.948,644.011 C1494.75267,644.01574 1492.53667,643.950667 1490.3,643.808 L1490.298,643.805 Z M1425.192,247.147 C1405.553,256.724 1390.892,269.876 1381.374,286.401 C1376.86899,294.282818 1373.52646,302.774212 1371.45,311.612 C1367.386,328.758 1361.55,345.953 1355.906,362.581 C1350.515,378.459 1344.94,394.881 1340.865,411.352 C1324.473,477.619 1353.605,574.4 1430.728,621.652 C1473.14,647.738 1517.694,648.786 1549.915,624.459 C1587.663,596.128 1611.515,565.482 1632.553,538.443 C1650.89,514.881 1668.208,492.626 1691.46,476.329 C1711.811,462.064 1724.435,443.47 1727.008,423.971 C1730.282,399.712 1721.341,365.423 1703.671,334.484 C1683.245,298.72 1653.651,270.66 1620.339,255.475 C1584.47879,239.350932 1545.62822,230.949417 1506.31,230.816 C1476.023,230.816 1447.638,236.2 1425.191,247.15 L1425.192,247.147 Z M1494.548,618.967 C1477.223,617.995 1459.03,611.981 1441.94,601.567 C1425.84213,591.755086 1411.56461,579.230111 1399.74,564.547 C1377.01953,536.287381 1363.07842,501.989133 1359.64,465.892 C1357.99556,449.345798 1359.12748,432.641115 1362.989,416.468 C1366.61,401.829 1371.571,387.295 1376.366,373.238 C1381.209,359.051 1386.214,344.381 1389.752,329.818 C1392.82347,317.002703 1398.92801,305.112565 1407.552,295.148 C1416.10048,285.518775 1426.51925,277.730047 1438.174,272.256 C1460.688,261.349 1489.362,256.456 1521.091,258.095 C1551.3863,259.719368 1581.12548,266.895115 1608.828,279.265 C1638.163,292.594 1664.169,317.365 1682.052,349.011 C1689.63788,362.313577 1695.42792,376.562546 1699.271,391.386 C1702.716,405.119 1703.752,417.959 1702.279,428.519 C1701.21259,435.826631 1698.74618,442.859851 1695.015,449.233 C1689.448,458.9 1681.025,467.75 1670.186,475.133 C1649.774,489.051 1635.239,507.633 1618.412,529.139 C1600.212,552.401 1579.588,578.764 1547.238,603.176 C1533.58976,613.665686 1516.81673,619.272895 1499.604,619.1 C1497.93467,619.108667 1496.249,619.065333 1494.547,618.97 L1494.548,618.967 Z M1439.048,274.058 C1421.667,282.478 1408.698,294.077 1400.289,308.676 C1396.42281,315.442885 1393.53032,322.721231 1391.697,330.296 C1388.141,344.945 1383.121,359.658 1378.266,373.891 C1373.483,387.906 1368.534,402.398 1364.933,416.955 C1350.584,474.937 1375.852,559.208 1442.975,599.867 C1479.61,622.177 1518.138,622.822 1546.038,601.594 C1578.182,577.341 1598.723,551.083 1616.846,527.919 C1633.073,507.178 1648.398,487.589 1669.067,473.495 C1686.825,461.386 1697.92,445.319 1700.307,428.249 C1703.272,407.049 1695.607,377.061 1680.323,350 C1662.646,318.719 1636.962,294.244 1608.008,281.088 C1577.05217,267.227539 1543.53305,260.014892 1509.616,259.916 C1483.307,259.916 1458.617,264.583 1439.048,274.061 L1439.048,274.058 Z M1498.789,594.102 C1484.107,593.446 1468.689,588.502 1454.204,579.795 C1428.031,564.188 1406.911,538.747 1394.736,508.163 C1383.384,479.635 1380.591,448.263 1387.073,422.077 C1390.248,409.26 1394.604,396.56 1398.819,384.277 C1402.837,372.577 1406.989,360.47 1410.019,348.493 C1412.72841,337.500315 1418.03095,327.316317 1425.483,318.793 C1432.87316,310.54781 1441.85542,303.883395 1451.889,299.201 C1471.079,289.96 1495.415,285.782 1522.264,287.119 C1547.89072,288.437695 1573.0562,294.459581 1596.504,304.884 C1621.504,316.192 1643.604,337.384 1658.752,364.548 C1671.887,388.113 1678.339,414.273 1675.59,432.819 C1674.65481,438.914809 1672.57853,444.779605 1669.47,450.106 C1664.635,458.501 1657.27,466.1 1647.78,472.329 C1629.912,484.06 1617.232,500.129 1602.552,518.723 C1587.297,538.054 1570.004,559.964 1543.383,580.315 C1531.61122,589.427956 1517.11332,594.310726 1502.227,594.178715 C1501.08833,594.178715 1499.94233,594.157 1498.789,594.105 L1498.789,594.102 Z M1452.754,301 C1437.707,308.245 1426.49,318.25 1419.227,330.861 C1415.97829,336.536995 1413.53042,342.635131 1411.953,348.982 C1408.904,361.037 1404.737,373.182 1400.707,384.924 C1396.507,397.166 1392.163,409.824 1389.007,422.555 C1376.707,472.255 1398.107,544.019 1455.226,578.083 C1486.009,596.576 1518.51,596.817 1542.169,578.73 C1568.591,558.53 1585.8,536.73 1600.985,517.488 C1615.773,498.751 1628.545,482.571 1646.685,470.663 C1661.885,460.685 1671.447,447.141 1673.614,432.527 C1678.746,397.922 1650.936,331.701 1595.68,306.704 L1595.68,306.704 C1569.61116,295.094675 1541.40294,289.064313 1512.866,289 C1490.5,289 1469.459,292.961 1452.754,301 Z M1503.054,569.232 C1491.04,568.878 1478.387,564.997 1466.465,558.011 C1444.851,545.345 1427.418,524.383 1417.379,498.987 C1408.039,475.361 1405.766,449.366 1411.14,427.669 C1413.853,416.723 1417.603,405.908 1421.226,395.45 C1424.44,386.184 1427.763,376.599 1430.268,367.15 C1435.068,349.05 1447.338,334.856 1465.757,326.094 C1481.625,318.546 1501.596,315.103 1523.516,316.137 C1544.44195,317.157419 1565.00094,322.023605 1584.164,330.492 L1584.164,330.492 C1604.822,339.778 1623.029,357.387 1635.433,380.075 C1646.21,399.783 1651.365,421.639 1648.886,437.11 C1648.08383,441.999866 1646.39511,446.702053 1643.903,450.985 C1639.34169,458.595231 1632.96964,464.959721 1625.354,469.512 C1610.075,479.007 1599.298,492.526 1586.821,508.18 C1574.5,523.638 1560.539,541.157 1539.512,557.438 C1529.65005,565.191758 1517.44365,569.359772 1504.899,569.259376 C1504.282,569.264 1503.668,569.255 1503.049,569.237 L1503.054,569.232 Z M1466.614,327.898 C1453.822,333.984 1444.288,342.44 1438.132,353.131 C1435.52122,357.691364 1433.5262,362.57755 1432.199,367.662 C1429.674,377.185 1426.34,386.802 1423.114,396.104 C1419.501,406.521 1415.767,417.291 1413.079,428.149 C1402.841,469.467 1420.387,528.694 1467.479,556.29 C1492.523,570.967 1518.996,570.807 1538.296,555.863 C1559.132,539.729 1573.018,522.307 1585.267,506.939 C1597.859,491.139 1608.736,477.494 1624.307,467.82 C1636.941,459.968 1644.972,448.951 1646.92,436.798 C1649.331,421.741 1644.261,400.375 1633.688,381.033 C1621.488,358.725 1603.613,341.424 1583.35,332.314 C1562.24728,322.891328 1539.40871,317.981437 1516.298,317.899 C1497.979,317.899 1480.684,321.208 1466.609,327.9 L1466.614,327.898 Z M1507.314,544.371 C1497.945,544.328 1488.059,541.51 1478.725,536.22 C1461.653,526.544 1447.899,510.073 1439.996,489.839 C1432.678,471.105 1430.931,450.48 1435.206,433.253 C1437.466,424.136 1440.627,415.175 1443.683,406.509 C1446.083,399.715 1448.56,392.688 1450.518,385.795 C1454.633,371.295 1464.711,359.946 1479.659,352.965 C1504.579,341.327 1541.616,342.585 1571.824,356.09 C1588.143,363.354 1602.453,377.39 1612.118,395.59 C1620.534,411.445 1624.387,428.997 1622.177,441.39 C1621.51236,445.080707 1620.21133,448.62782 1618.332,451.873 C1614.60462,458.095604 1609.28199,463.209016 1602.915,466.684 C1590.233,473.902 1581.366,484.877 1571.1,497.584 C1561.73,509.184 1551.107,522.324 1535.643,534.543 C1527.68776,540.956573 1517.76141,544.425499 1507.543,544.363 L1507.314,544.371 Z M1480.504,354.771 C1470.036,359.658 1462.049,366.757 1456.949,375.614 C1455.00941,378.988765 1453.49458,382.590428 1452.439,386.337 C1450.462,393.289 1447.974,400.345 1445.566,407.168 C1442.526,415.791 1439.381,424.705 1437.143,433.729 C1429.127,466.038 1443.123,513.744 1479.71,534.479 C1499.249,545.553 1519.184,545.007 1534.41,532.979 C1549.701,520.897 1560.247,507.847 1569.551,496.331 C1579.946,483.468 1588.923,472.356 1601.932,464.951 C1611.996,459.223 1618.49,450.731 1620.217,441.043 C1622.355,429.064 1618.576,412.004 1610.361,396.522 C1600.904,378.705 1586.932,364.99 1571.014,357.907 L1571.014,357.907 C1554.80212,350.755381 1537.28318,347.043884 1519.564,347.007 C1505.227,347.017 1491.624,349.584 1480.5,354.78 L1480.504,354.771 Z M1490.997,514.416 C1478.455,507.73 1468.377,495.744 1462.609,480.672 C1457.316,466.831 1456.099,451.577 1459.27,438.818 C1461.21966,431.524835 1463.5563,424.340664 1466.27,417.296 C1467.819,413.059 1469.418,408.678 1470.77,404.409 C1474.236,393.495 1482.146,384.982 1493.645,379.785 C1502.82,375.639 1514.03,373.685 1526.065,374.128 C1537.57515,374.530253 1548.90774,377.087802 1559.475,381.668 C1571.467,386.915 1581.887,397.368 1588.807,411.104 C1594.862,423.112 1597.407,436.362 1595.468,445.682 C1594.94743,448.1507 1594.03847,450.521169 1592.775,452.705 C1589.87946,457.578469 1585.58369,461.467245 1580.447,463.865 C1570.377,468.74 1563.436,477.165 1555.401,486.913 C1549.006,494.671 1541.76,503.467 1531.78,511.641 C1525.71702,516.727193 1518.05785,519.518136 1510.144,519.525 C1503.43729,519.429105 1496.85823,517.677163 1490.992,514.425 L1490.997,514.416 Z M1494.467,381.604 C1486.167,385.357 1479.823,390.91 1475.809,397.881 C1474.51067,400.138947 1473.45991,402.530472 1472.675,405.014 C1471.306,409.321 1469.698,413.723 1468.143,417.98 C1465.4564,424.958954 1463.14116,432.075246 1461.207,439.299 C1455.195,463.489 1465.232,498.415 1491.935,512.656 C1505.58,519.931 1519.642,518.999 1530.515,510.095 C1540.342,502.045 1547.524,493.332 1553.861,485.644 C1562.046,475.711 1569.114,467.133 1579.579,462.069 C1587.058,458.448 1592.008,452.483 1593.513,445.269 C1595.371,436.369 1592.884,423.624 1587.026,411.999 C1580.311,398.679 1570.242,388.554 1558.676,383.494 L1558.676,383.494 C1547.35599,378.608498 1535.15626,376.090213 1522.827,376.093996 C1512.5,376.1 1502.62,377.926 1494.462,381.612 L1494.467,381.604 Z M1503.306,492.604 C1495.269,488.904 1488.849,481.397 1485.226,471.477 C1482.01,462.667 1481.307,452.53 1483.343,444.359 C1484.9504,438.474954 1486.97006,432.711372 1489.387,427.111 C1489.951,425.716 1490.508,424.337 1491.047,422.967 C1493.947,415.589 1499.769,409.893 1507.88,406.49 C1519.351,401.678 1534.759,401.966 1547.132,407.221 C1554.811,410.451 1561.343,417.337 1565.526,426.611 C1569.213,434.786 1570.449,443.736 1568.755,449.968 C1568.4018,451.283262 1567.87873,452.546899 1567.199,453.727 C1565.13548,457.245621 1561.82096,459.85667 1557.917,461.039 C1550.494,463.407 1545.53,469.276 1539.776,476.071 C1536.14442,480.561614 1532.18848,484.779922 1527.94,488.692 C1523.8737,492.53741 1518.5158,494.722304 1512.92,494.817 C1509.59088,494.788706 1506.30797,494.034864 1503.3,492.608 L1503.306,492.604 Z M1508.652,408.333 C1502.75919,410.641313 1497.79969,414.841057 1494.552,420.273 C1493.91918,421.372734 1493.36803,422.517483 1492.903,423.698 C1492.364,425.074 1491.803,426.462 1491.236,427.86 C1488.8565,433.374858 1486.86662,439.049774 1485.281,444.843 C1481.335,460.648 1488.111,483.406 1504.14,490.792 C1511.974,494.402 1519.954,493.128 1526.613,487.202 C1530.78946,483.350518 1534.67976,479.199864 1538.253,474.783 C1544.201,467.754 1549.341,461.683 1557.31,459.138 C1561.94448,457.769918 1565.54415,454.105965 1566.83,449.448 C1569.877,438.234 1562.46,415.84 1546.359,409.062 L1546.359,409.062 C1539.95019,406.402313 1533.07676,405.04265 1526.138,405.062 C1520.14895,404.994545 1514.20523,406.107039 1508.646,408.336 L1508.652,408.333 Z M1515.969,470.807 C1513.40316,470.274493 1511.18201,468.682095 1509.854,466.423 C1506.812,461.679 1506.411,454.503 1507.587,449.865 C1509.24005,443.240637 1513.60364,437.617295 1519.61,434.371 C1524.684,431.663 1530.265,431.063 1534.919,432.723 C1541.441,435.052 1544.627,445.283 1542.919,452.202 C1542.69054,453.171702 1542.3277,454.104724 1541.841,454.974 C1540.58142,457.369099 1537.90621,458.661672 1535.247,458.16 C1530.333,457.46 1527.587,461.205 1524.933,464.831 C1522.744,467.823 1520.485,470.908 1517.073,470.909043 C1516.70078,470.910402 1516.32922,470.877598 1515.963,470.811 L1515.969,470.807 Z M1520.549,436.132 C1515.03874,439.113213 1511.03669,444.274828 1509.522,450.354 C1508.48,454.474 1508.83,461.126 1511.534,465.347 C1512.56025,467.146061 1514.30732,468.419964 1516.334,468.847 C1519.146,469.364 1521.083,466.72 1523.324,463.658 C1526.186,459.748 1529.43,455.317 1535.53,456.189 C1539.003,456.689 1540.412,454.036 1540.983,451.728 C1542.456,445.766 1539.583,436.51 1534.252,434.609 C1532.69683,434.064532 1531.0597,433.791226 1529.412,433.800747 C1526.30922,433.841555 1523.26381,434.642997 1520.543,436.135 L1520.549,436.132 Z" id="Shape_699" fill="url(#linearGradient-2)"></path>
            </g>
        </g>
    </g>
</svg>
