<?xml version="1.0" ?><svg enable-background="new 0 0 24 24" id="Layer_1" version="1.1" viewBox="0 0 24 24" xml:space="preserve" xmlns="http://www.w3.org/2000/svg" xmlns:xlink="http://www.w3.org/1999/xlink"><g><path d="M19.7070312,1H2C1.4477153,1,1,1.4477153,1,2v20c0,0.5522842,0.4477153,1,1,1h20   c0.5522842,0,1-0.4477158,1-1V4.2929688L19.7070312,1z" fill="#265EAC"/><path d="M4,13v10h16V13c0-0.5522852-0.4477158-1-1-1H5C4.4477153,12,4,12.4477148,4,13z" fill="#F2F2F2"/><path d="M19,12H5c-0.5523071,0-1,0.4476929-1,1v0.25c0-0.5523071,0.4476929-1,1-1h14   c0.5523071,0,1,0.4476929,1,1V13C20,12.4476929,19.5523071,12,19,12z" fill="#FFFFFF" opacity="0.2"/><rect fill="#DA1A32" height="2" width="16" x="4" y="21"/><path d="M17.5,14.5h-11C6.2236328,14.5,6,14.2763672,6,14s0.2236328-0.5,0.5-0.5h11   c0.2763672,0,0.5,0.2236328,0.5,0.5S17.7763672,14.5,17.5,14.5z" fill="#DA1A32"/><path d="M17.5,17h-11C6.2236328,17,6,16.7763672,6,16.5S6.2236328,16,6.5,16h11c0.2763672,0,0.5,0.2236328,0.5,0.5   S17.7763672,17,17.5,17z" fill="#DA1A32"/><path d="M17.5,19.5h-11C6.2236328,19.5,6,19.2763672,6,19s0.2236328-0.5,0.5-0.5h11   c0.2763672,0,0.5,0.2236328,0.5,0.5S17.7763672,19.5,17.5,19.5z" fill="#DA1A32"/><path d="M7,1v8c0,0.5522461,0.4476929,1,1,1h10c0.5523071,0,1-0.4477539,1-1V1H7z M17,9h-3V2.5h3V9z" fill="#829BCE"/><rect height="1" opacity="0.2" width="1" x="2" y="21"/><rect height="1" opacity="0.2" width="1" x="21" y="21"/><path d="M7,9V1H4v8c0,0.5522461,0.4476929,1,1,1h3C7.4476929,10,7,9.5522461,7,9z" opacity="0.1"/><path d="M19.7070312,1H2C1.4476929,1,1,1.4476929,1,2v0.25c0-0.5523071,0.4476929-1,1-1h17.7070312   L23,4.5429688v-0.25L19.7070312,1z" fill="#FFFFFF" opacity="0.2"/><path d="M22,22.75H2c-0.5523071,0-1-0.4477539-1-1V22c0,0.5522461,0.4476929,1,1,1h20c0.5523071,0,1-0.4477539,1-1   v-0.25C23,22.3022461,22.5523071,22.75,22,22.75z" opacity="0.1"/><linearGradient gradientUnits="userSpaceOnUse" id="SVGID_1_" x1="13.125" x2="17.875" y1="3.375" y2="8.125"><stop offset="0" style="stop-color:#000000;stop-opacity:0.2"/><stop offset="1" style="stop-color:#000000;stop-opacity:0"/></linearGradient><rect fill="url(#SVGID_1_)" height="6.5" width="3" x="14" y="2.5"/><linearGradient gradientUnits="userSpaceOnUse" id="SVGID_2_" x1="-1.175302" x2="24.7260666" y1="6.4426908" y2="18.5206966"><stop offset="0" style="stop-color:#FFFFFF;stop-opacity:0.2"/><stop offset="1" style="stop-color:#FFFFFF;stop-opacity:0"/></linearGradient><path d="M19.7070312,1H2C1.4477153,1,1,1.4477153,1,2v20c0,0.5522842,0.4477153,1,1,1h20   c0.5522842,0,1-0.4477158,1-1V4.2929688L19.7070312,1z" fill="url(#SVGID_2_)"/></g><g/><g/><g/><g/><g/><g/><g/><g/><g/><g/><g/><g/><g/><g/><g/></svg>