<?xml version="1.0" ?><svg enable-background="new 0 0 24 24" id="Layer_1" version="1.1" viewBox="0 0 24 24" xml:space="preserve" xmlns="http://www.w3.org/2000/svg" xmlns:xlink="http://www.w3.org/1999/xlink"><g><path d="M13.75,4c-1.8261719,0-3.5253906,0.9750977-4.4711914,2.5253906C8.6538086,6.1801758,7.9624023,6,7.25,6   C4.9067383,6,3,7.9067383,3,10.25c0,0.4365234,0.0708008,0.8676758,0.2109375,1.2885742C1.3974609,11.8007812,0,13.3652344,0,15.25   C0,17.3178711,1.6821289,19,3.75,19H14.5c0.2749023,0,0.4980469-0.2216797,0.5-0.496582l0.0273438-4.1748047   C17.3530273,13.7504883,19,11.6777344,19,9.25C19,6.3549805,16.6450195,4,13.75,4z" fill="#F2F2F2"/><path d="M3.75,18.5c-1.7919922,0-3.25-1.4580078-3.25-3.25c0-1.6044922,1.1962891-2.9873047,2.7827148-3.2167969   l0.5913086-0.0854492l-0.1884766-0.5668945C3.5625,11.0112305,3.5,10.6308594,3.5,10.25c0-2.0678711,1.6821289-3.75,3.75-3.75   c0.6293945,0,1.230957,0.1557617,1.7871094,0.4628906l0.4189453,0.2319336l0.2495117-0.4091797   C10.565918,5.3759766,12.1157227,4.5,13.75,4.5c2.6191406,0,4.75,2.1308594,4.75,4.75   c0,2.1787109-1.4775391,4.0673828-3.5932617,4.5932617l-0.3769531,0.09375L14.5,18.5H3.75z" fill="#00468B"/><path d="M6.2641602,18.75H3.75c-2.0270386,0-3.6733398-1.6191406-3.7379761-3.6307373   C0.010498,15.1635132,0,15.2053223,0,15.25C0,17.3178711,1.6821289,19,3.75,19h2.5141602c0.2763672,0,0.5-0.2236328,0.5-0.5   c0-0.0471802-0.0096436-0.0910034-0.0235596-0.1329956C6.6868286,18.585083,6.4990234,18.75,6.2641602,18.75z" opacity="0.1"/><path d="M21,20c1.6542969,0,3-1.3457031,3-3c0-1.3533325-0.9063721-2.4867554-2.1397705-2.8592529   C21.9421387,13.8557739,22,13.5609131,22,13.25c0-1.7919922-1.4580078-3.25-3.25-3.25   c-0.8266602,0-1.5738525,0.3198242-2.1480103,0.8300171C15.781189,9.7260132,14.4784546,9,13,9   c-2.3119507,0-4.1997681,1.758728-4.4499512,4.0050659C8.532959,13.0048218,8.5171509,13,8.5,13C6.5703125,13,5,14.5703125,5,16.5   S6.5703125,20,8.5,20H21z" fill="#F2F2F2"/><path d="M8.5,19.5c-1.6542969,0-3-1.3457031-3-3s1.3457031-3,3-3h0.4472656l0.0996094-0.4399414   C9.2729492,11.0307617,10.9726562,9.5,13,9.5c1.2646484,0,2.4316406,0.59375,3.2006836,1.628418l0.3256836,0.4379883   l0.4077148-0.362793C17.4448242,10.75,18.0898438,10.5,18.75,10.5c1.5166016,0,2.75,1.2333984,2.75,2.75   c0,0.2290039-0.0380859,0.4677734-0.1201172,0.7519531l-0.1367188,0.4746094l0.4726562,0.1425781   C22.7832031,14.9414062,23.5,15.8984375,23.5,17c0,1.378418-1.121582,2.5-2.5,2.5H8.5z" fill="#00468B"/><path d="M21,19.75H8.5c-1.8869019,0-3.4197998-1.5042114-3.4873657-3.375C5.0111084,16.4174194,5,16.4572144,5,16.5   C5,18.4296875,6.5703125,20,8.5,20H21c1.6542969,0,3-1.3457031,3-3c0-0.0465698-0.0092773-0.0909424-0.0114136-0.137085   C23.9277344,18.4638062,22.6156006,19.75,21,19.75z" opacity="0.1"/><path d="M7.25,6.25c0.7124023,0,1.4038086,0.1801758,2.0288086,0.5253906   C10.2246094,5.2250977,11.9238281,4.25,13.75,4.25c2.8574219,0,5.178833,2.296936,5.2388916,5.1401978   C18.9903564,9.3441772,19,9.2958374,19,9.25C19,6.3549805,16.6450195,4,13.75,4   c-1.8261719,0-3.5253906,0.9750977-4.4711914,2.5253906C8.6538086,6.1801758,7.9624023,6,7.25,6C4.9067383,6,3,7.9067383,3,10.25   c0,0.0465088,0.0097046,0.0921021,0.0112915,0.1384888C3.0720825,8.0978394,4.9449463,6.25,7.25,6.25z" fill="#FFFFFF" opacity="0.2"/><path d="M8.447998,13.25c0.0123291,0,0.0241089,0,0.036438,0.0004883   C8.7503662,10.9824219,10.6687622,9.25,12.9869995,9.25c1.4425659,0,2.7792358,0.6845703,3.6283569,1.8242188   C17.2103271,10.5498047,17.9830322,10.25,18.7868652,10.25c1.5133057,0,2.7779541,1.0272827,3.1536255,2.4116821   C21.6621704,11.1503906,20.3405762,10,18.75,10c-0.796875,0-1.5629883,0.2998047-2.152832,0.8242188   C15.7553711,9.6845703,14.4301758,9,13,9c-2.2983398,0-4.2001953,1.7324219-4.4638672,4.0004883C8.5239258,13,8.512207,13,8.5,13   c-1.5357666,0-2.8293457,1.0010986-3.2994385,2.3798828C5.739624,14.1292725,6.9919434,13.25,8.447998,13.25z" fill="#FFFFFF" opacity="0.2"/><linearGradient gradientUnits="userSpaceOnUse" id="SVGID_1_" x1="2.7105405" x2="23.6671867" y1="8.6062555" y2="18.3785"><stop offset="0" style="stop-color:#FFFFFF;stop-opacity:0.2"/><stop offset="1" style="stop-color:#FFFFFF;stop-opacity:0"/></linearGradient><path d="M21.8602295,14.1407471C21.9421387,13.8557739,22,13.5609131,22,13.25   c0-1.7286377-1.3604126-3.1331177-3.0649414-3.2312622C18.9721069,9.7667236,19,9.5116577,19,9.25   C19,6.3549805,16.6450195,4,13.75,4c-1.8261719,0-3.5253906,0.9750977-4.4711914,2.5253906C8.6538086,6.1801758,7.9624023,6,7.25,6   C4.9067383,6,3,7.9067383,3,10.25c0,0.4365234,0.0708008,0.8676758,0.2109375,1.2885742C1.3974609,11.8007812,0,13.3652344,0,15.25   C0,17.3178711,1.6821289,19,3.75,19h2.3082886C6.6895752,19.6166382,7.5500488,20,8.5,20H21c1.6542969,0,3-1.3457031,3-3   C24,15.6466675,23.0936279,14.5132446,21.8602295,14.1407471z" fill="url(#SVGID_1_)"/></g><g/><g/><g/><g/><g/><g/><g/><g/><g/><g/><g/><g/><g/><g/><g/></svg>