<?xml version="1.0" ?><svg enable-background="new 0 0 24 24" id="Layer_1" version="1.1" viewBox="0 0 24 24" xml:space="preserve" xmlns="http://www.w3.org/2000/svg" xmlns:xlink="http://www.w3.org/1999/xlink"><g><path d="M12,8.5H0V3c0-0.5522847,0.4477153-1,1-1h8.5L12,4V8.5z" fill="#FFE55E"/><linearGradient gradientUnits="userSpaceOnUse" id="SVGID_1_" x1="6" x2="6" y1="2" y2="8.5"><stop offset="0" style="stop-color:#000000;stop-opacity:0"/><stop offset="1" style="stop-color:#000000;stop-opacity:0.1"/></linearGradient><path d="M12,8.5H0V3c0-0.5522847,0.4477153-1,1-1h8.5L12,4V8.5z" fill="url(#SVGID_1_)"/><path d="M9.5,2H1C0.4476929,2,0,2.4476929,0,3v0.25c0-0.5523071,0.4476929-1,1-1h8.5l2.5,2V4L9.5,2z" fill="#FFFFFF" opacity="0.2"/><path d="M23,4H12L9.5,6H1C0.4477153,6,0,6.4477153,0,7v13c0,0.5522842,0.4477153,1,1,1h22   c0.5522842,0,1-0.4477158,1-1V5C24,4.4477153,23.5522842,4,23,4z" fill="#FFDD55"/><path d="M23,20.75H1c-0.5523071,0-1-0.4477539-1-1V20c0,0.5522461,0.4476929,1,1,1h22c0.5523071,0,1-0.4477539,1-1   v-0.25C24,20.3022461,23.5523071,20.75,23,20.75z" opacity="0.1"/><path d="M19,12H5c-0.5522847,0-1,0.4477148-1,1v8.5C4,21.7761421,4.2238574,22,4.5,22h3   C7.7761426,22,8,21.7761421,8,21.5V16h8v5.5c0,0.2761421,0.2238579,0.5,0.5,0.5h3c0.2761421,0,0.5-0.2238579,0.5-0.5V13   C20,12.4477148,19.5522842,12,19,12z" fill="#15BEF0"/><path d="M23,4H12L9.5,6H1C0.4476929,6,0,6.4476929,0,7v0.25c0-0.5523071,0.4476929-1,1-1h8.5l2.5-2   h11c0.5523071,0,1,0.4476929,1,1V5C24,4.4476929,23.5523071,4,23,4z" fill="#FFFFFF" opacity="0.2"/><path d="M19,12H5c-0.5523071,0-1,0.4476929-1,1v0.25c0-0.5523071,0.4476929-1,1-1h14   c0.5523071,0,1,0.4476929,1,1V13C20,12.4476929,19.5523071,12,19,12z" fill="#FFFFFF" opacity="0.2"/><path d="M19.5,21.75h-3c-0.276123,0-0.5-0.223877-0.5-0.5v0.25c0,0.276123,0.223877,0.5,0.5,0.5h3   c0.276123,0,0.5-0.223877,0.5-0.5v-0.25C20,21.526123,19.776123,21.75,19.5,21.75z" opacity="0.1"/><path d="M7.5,21.75h-3c-0.276123,0-0.5-0.223877-0.5-0.5v0.25C4,21.776123,4.223877,22,4.5,22h3   C7.776123,22,8,21.776123,8,21.5v-0.25C8,21.526123,7.776123,21.75,7.5,21.75z" opacity="0.1"/><rect height="0.25" opacity="0.1" width="8" x="8" y="15.75"/><rect fill="#FFFFFF" height="1" width="7" x="2" y="3.5"/><rect fill="#82C341" height="1" width="1.5" x="2" y="3.5"/><linearGradient gradientUnits="userSpaceOnUse" id="SVGID_2_" x1="10" x2="16.5" y1="14" y2="20.5"><stop offset="0" style="stop-color:#000000;stop-opacity:0.1"/><stop offset="1" style="stop-color:#000000;stop-opacity:0"/></linearGradient><polyline fill="url(#SVGID_2_)" points="8,16 13,21 16,21 16,16  "/><linearGradient gradientUnits="userSpaceOnUse" id="SVGID_3_" x1="17.6411743" x2="23.8071098" y1="14.4411621" y2="20.6070976"><stop offset="0" style="stop-color:#000000;stop-opacity:0.1"/><stop offset="1" style="stop-color:#000000;stop-opacity:0"/></linearGradient><path d="M19.7411499,12.3411865l-0.0002441,0.0018921C19.8973389,12.5195312,20,12.7456055,20,13v8h3   c0.5523071,0,1-0.4477539,1-1v-3.4000244L19.7411499,12.3411865z" fill="url(#SVGID_3_)"/><linearGradient gradientUnits="userSpaceOnUse" id="SVGID_4_" x1="-1.5805718" x2="24.8145218" y1="6.1672702" y2="18.4755039"><stop offset="0" style="stop-color:#FFFFFF;stop-opacity:0.2"/><stop offset="1" style="stop-color:#FFFFFF;stop-opacity:0"/></linearGradient><path d="M23,4H12L9.5,2H1C0.4476929,2,0,2.4476929,0,3v17c0,0.5522461,0.4476929,1,1,1h3v0.5   C4,21.776123,4.223877,22,4.5,22h3C7.776123,22,8,21.776123,8,21.5V21h8v0.5c0,0.276123,0.223877,0.5,0.5,0.5h3   c0.276123,0,0.5-0.223877,0.5-0.5V21h3c0.5523071,0,1-0.4477539,1-1V5C24,4.4476929,23.5523071,4,23,4z" fill="url(#SVGID_4_)"/></g><g/><g/><g/><g/><g/><g/><g/><g/><g/><g/><g/><g/><g/><g/><g/></svg>