<?xml version="1.0" ?><svg enable-background="new 0 0 24 24" id="Layer_1" version="1.1" viewBox="0 0 24 24" xml:space="preserve" xmlns="http://www.w3.org/2000/svg" xmlns:xlink="http://www.w3.org/1999/xlink"><g><path d="M22,3H2C0.8974609,3,0,3.8969727,0,5v14c0,1.1030273,0.8974609,2,2,2h20c1.1025391,0,2-0.8969727,2-2V5   C24,3.8969727,23.1025391,3,22,3z" fill="#F2F2F2"/><path d="M3,21h19c1.1025391,0,2-0.8969727,2-2V5.1254902L3,21z" fill="#F5F5F5"/><linearGradient gradientUnits="userSpaceOnUse" id="SVGID_1_" x1="7.9155107" x2="19.1802444" y1="10.4586535" y2="15.7114859"><stop offset="0" style="stop-color:#FFFFFF;stop-opacity:0.2"/><stop offset="1" style="stop-color:#FFFFFF;stop-opacity:0"/></linearGradient><polygon fill="url(#SVGID_1_)" points="3,21 3.3306885,21 24,5.3754883 24,5.1254883  "/><path d="M0,5.1176472V19c0,1.1030273,0.8974609,2,2,2h1V7.3350368   C1.319519,6.0929713,0.9091797,5.7896442,0,5.1176472z" fill="#D32F2F"/><path d="M21,7.3434954V21h1c1.1025391,0,2-0.8969727,2-2V5.1254902L21,7.3434954z" fill="#D32F2F"/><linearGradient gradientUnits="userSpaceOnUse" id="SVGID_2_" x1="18.8903751" x2="26.6321716" y1="9.4531202" y2="17.1949158"><stop offset="0" style="stop-color:#000000;stop-opacity:0.1"/><stop offset="1" style="stop-color:#000000;stop-opacity:0"/></linearGradient><path d="M21,7.3434954V21h1c1.1025391,0,2-0.8969727,2-2V5.1254902L21,7.3434954z" fill="url(#SVGID_2_)"/><polygon fill="#F5F5F5" points="21.499939,3 2.500061,3 12,10.3125  "/><path d="M24,5.1304321V5c0-1.1030273-0.8974609-2-2-2h-0.500061L12,10.3125L2.500061,3H2   C0.8974609,3,0,3.8969727,0,5v0.1304932l12,9.0661459L24,5.1304321z" fill="#D32F2F"/><linearGradient gradientUnits="userSpaceOnUse" id="SVGID_3_" x1="1.5279056" x2="21.46105" y1="1.2802522" y2="10.5752296"><stop offset="0" style="stop-color:#FFFFFF;stop-opacity:0.1"/><stop offset="1" style="stop-color:#FFFFFF;stop-opacity:0"/></linearGradient><path d="M24,5.1304321V5c0-1.1030273-0.8974609-2-2-2h-0.500061L12,10.3125L2.500061,3H2   C0.8974609,3,0,3.8969727,0,5v0.1304932l12,9.0661459L24,5.1304321z" fill="url(#SVGID_3_)"/><path d="M12,13.9465942L0.0112305,4.8889771C0.0090942,4.9264526,0,4.9619751,0,5v0.1304932l12,9.0661011   l12-9.0661621V5c0-0.0380249-0.0090942-0.0735474-0.0112305-0.111084L12,13.9465942z" opacity="0.1"/><path d="M22,20.75H2c-1.1025391,0-2-0.8969727-2-2V19c0,1.1030273,0.8974609,2,2,2h20c1.1025391,0,2-0.8969727,2-2   v-0.25C24,19.8530273,23.1025391,20.75,22,20.75z" opacity="0.1"/><linearGradient gradientUnits="userSpaceOnUse" id="SVGID_4_" x1="23.7147064" x2="23.9944" y1="4.1656036" y2="4.4452972"><stop offset="0" style="stop-color:#000000;stop-opacity:0.1"/><stop offset="1" style="stop-color:#000000;stop-opacity:0"/></linearGradient><path d="M23.7775879,4.1027222L23.7775879,4.1027222   c0.0650024,0.1281738,0.1158447,0.2643433,0.1539307,0.4054565C23.8951416,4.3657837,23.8427124,4.2310791,23.7775879,4.1027222z" fill="url(#SVGID_4_)"/><linearGradient gradientUnits="userSpaceOnUse" id="SVGID_5_" x1="23.8411255" x2="24.1003418" y1="4.6404419" y2="4.8996582"><stop offset="0" style="stop-color:#000000;stop-opacity:0.1"/><stop offset="1" style="stop-color:#000000;stop-opacity:0"/></linearGradient><path d="M23.9414673,4.5401001C23.9785767,4.6875,24,4.8408813,24,5   C24,4.8410645,23.9766235,4.6884155,23.9414673,4.5401001z" fill="url(#SVGID_5_)"/><linearGradient gradientUnits="userSpaceOnUse" id="SVGID_6_" x1="6.5011444" x2="25.3809357" y1="-0.4336395" y2="18.4461517"><stop offset="0" style="stop-color:#000000;stop-opacity:0.1"/><stop offset="1" style="stop-color:#000000;stop-opacity:0"/></linearGradient><path d="M0.5337524,5.5337524L16,21h6c1.1025391,0,2-0.8969727,2-2V5.1304321l-12,9.0661621   L0.5337524,5.5337524z" fill="url(#SVGID_6_)"/><path d="M22,3H2C0.8974609,3,0,3.8969727,0,5v0.25c0-1.1030273,0.8974609-2,2-2h20   c1.1025391,0,2,0.8969727,2,2V5C24,3.8969727,23.1025391,3,22,3z" fill="#FFFFFF" opacity="0.2"/><linearGradient gradientUnits="userSpaceOnUse" id="SVGID_7_" x1="-0.7076151" x2="24.7076149" y1="6.0743418" y2="17.9256592"><stop offset="0" style="stop-color:#FFFFFF;stop-opacity:0.1"/><stop offset="1" style="stop-color:#FFFFFF;stop-opacity:0"/></linearGradient><path d="M22,3H2C0.8974609,3,0,3.8969727,0,5v14c0,1.1030273,0.8974609,2,2,2h20   c1.1025391,0,2-0.8969727,2-2V5C24,3.8969727,23.1025391,3,22,3z" fill="url(#SVGID_7_)"/></g><g/><g/><g/><g/><g/><g/><g/><g/><g/><g/><g/><g/><g/><g/><g/></svg>