<?xml version="1.0" ?><svg enable-background="new 0 0 24 24" id="Layer_1" version="1.1" viewBox="0 0 24 24" xml:space="preserve" xmlns="http://www.w3.org/2000/svg" xmlns:xlink="http://www.w3.org/1999/xlink"><g><path d="M5.5,4H22c1.1045704,0,2,0.8954306,2,2v16c0,1.1045704-0.8954296,2-2,2h-9L5.5,4z" fill="#E6E6E6"/><path d="M14,11h5.9003296c-0.2284546,0.7625122-0.8699341,2.0064697-1.7683716,3.1707764   C17.4464722,13.3657837,16.835144,12.5769653,16.5246582,12H15.34375c0.2837524,0.7536621,1.1769409,1.9187012,2.0933838,2.986145   c-0.3828125,0.4092407-0.7885742,0.7949219-1.2266846,1.1061401c-0.2250977,0.1601562-0.277832,0.472168-0.1181641,0.6972656   C16.1899414,16.9267578,16.34375,17,16.5004883,17c0.1000977,0,0.2011719-0.0297852,0.2890625-0.0922852   c0.4562988-0.3242188,0.8909302-0.7341919,1.3062134-1.1738281C19.1082764,16.8574829,20.0539551,17.800415,20.2558594,18   L21,17.2567749c-0.4936523-0.487793-1.3551025-1.37677-2.2061157-2.3279419   C19.8891602,13.550415,20.6994019,11.9975586,20.9256592,11H22.5v-1h-4V9h-1v1H14V11z" fill="#64818E"/><path d="M11,0H2C0.8954305,0,0,0.8954305,0,2v16c0,1.1045704,0.8954305,2,2,2h16L11,0z" fill="#5796FF"/><path d="M13,24h9c1.1045532,0,2-0.8954468,2-2v-0.25c0,1.1045532-0.8954468,2-2,2h-9V24z" opacity="0.1"/><path d="M11,0H2C0.8954468,0,0,0.8953857,0,2v16c0,0.2177734,0.0435181,0.423584,0.1079102,0.619812   C0.0853882,18.4996948,0.0706177,18.3766479,0.0706177,18.25v-16c0-1.1046143,0.8953857-2,2-2h9.0170288L11,0z" fill="#FFFFFF" opacity="0.2"/><path d="M17.9124756,19.75H2c-0.8867798,0-1.6300049-0.5809937-1.8920898-1.380188   C0.2816772,19.2973022,1.0926514,20,2.0706177,20H18L17.9124756,19.75z" opacity="0.1"/><path d="M7.25,14.5C4.9067383,14.5,3,12.5932617,3,10.25S4.9067383,6,7.25,6   c1.1352539,0,2.2026367,0.4423828,3.0053711,1.2451172L9.1938477,8.3056641C8.6748047,7.7861328,7.984375,7.5,7.25,7.5   c-1.5166016,0-2.75,1.2333984-2.75,2.75S5.7333984,13,7.25,13c1.2563477,0,2.3188477-0.847168,2.6459961-2H7.5V9.5h4v0.75   C11.5,12.5932617,9.5932617,14.5,7.25,14.5z" fill="#F2F2F2"/><polygon fill="#3C4693" points="18,20 13,24 11.5,20  "/><linearGradient gradientUnits="userSpaceOnUse" id="SVGID_1_" x1="7.5500183" x2="22.7642136" y1="8.8500061" y2="24.0642014"><stop offset="0" style="stop-color:#000000;stop-opacity:0.1"/><stop offset="1" style="stop-color:#000000;stop-opacity:0"/></linearGradient><path d="M12.4000244,4v0.000061L18,20l-5,4h9c1.1045532,0,2-0.8954468,2-2v-6.4000244L12.4000244,4z" fill="url(#SVGID_1_)"/><linearGradient gradientUnits="userSpaceOnUse" id="SVGID_2_" x1="-1.8572117" x2="25.8572063" y1="5.538271" y2="18.4617157"><stop offset="0" style="stop-color:#FFFFFF;stop-opacity:0.2"/><stop offset="1" style="stop-color:#FFFFFF;stop-opacity:0"/></linearGradient><path d="M22,4h-9.5999756L11,0H2C0.8954468,0,0,0.8953857,0,2v16c0,1.1045532,0.8954468,2,2,2h9.5l1.5,4h9   c1.1045532,0,2-0.8954468,2-2V6C24,4.8953857,23.1045532,4,22,4z" fill="url(#SVGID_2_)"/></g><g/><g/><g/><g/><g/><g/><g/><g/><g/><g/><g/><g/><g/><g/><g/></svg>