<?xml version="1.0" ?><svg enable-background="new 0 0 24 24" id="Layer_1" version="1.1" viewBox="0 0 24 24" xml:space="preserve" xmlns="http://www.w3.org/2000/svg" xmlns:xlink="http://www.w3.org/1999/xlink"><g><linearGradient gradientUnits="userSpaceOnUse" id="SVGID_1_" x1="2.7046463" x2="20.7753105" y1="7.0495133" y2="15.4760017"><stop offset="0" style="stop-color:#FFFFFF;stop-opacity:0.1"/><stop offset="1" style="stop-color:#FFFFFF;stop-opacity:0"/></linearGradient><polygon fill="url(#SVGID_1_)" points="23,10.7051392 1,10.7051392 12,17.1922607  "/><path d="M23,10.7051392v-0.2266235c0-0.7758789-0.3496094-1.4936523-0.9589844-1.96875   c-0.8574219-0.6674805-7.9814453-6.3383789-8.6972656-6.972168c-0.7949219-0.7031249-1.8925781-0.7031249-2.6875,0   c-1.6845703,1.4912109-6.6425781,5.3725586-8.6972656,6.972168C1.3496094,8.9848633,1,9.7026367,1,10.4785156v0.2266235   l11,6.4871216L23,10.7051392z" fill="#1565C0"/><path d="M1,10.7051392V21c0,0.8745728,0.5678101,1.6115112,1.3511353,1.8826294L12,17.1922607L1,10.7051392z" fill="#29B6F6"/><path d="M2.3511353,22.8826294C2.5557251,22.9534302,2.7716675,23,3,23h18c1.1025391,0,2-0.8969727,2-2V10.7051392   L2.3511353,22.8826294z" fill="#81D4FA"/><polygon fill="#FFFFFF" opacity="0.2" points="12,17.1922607 1,10.7051392 1,10.9551392 11.7880249,17.3172607  "/><path d="M2.3511353,22.8826294C2.4453735,22.9152222,23,10.9551392,23,10.9551392v-0.25   L2.3511353,22.8826294z" fill="#FFFFFF" opacity="0.2"/><path d="M22.0410156,8.5097656c-0.8574219-0.6674805-7.9814453-6.3383789-8.6972656-6.972168   c-0.7949219-0.7031249-1.8925781-0.7031249-2.6875,0c-1.6845703,1.4912109-6.6425781,5.3725586-8.6972656,6.972168   C1.3496094,8.9848633,1,9.7026367,1,10.4785156v0.2266235l0.0025024,0.0014648   c0.0066528-0.7672119,0.3529663-1.4763184,0.9564819-1.9468384c2.0546875-1.5996094,7.0126953-5.480957,8.6972656-6.972168   c0.7949219-0.703125,1.8925781-0.703125,2.6875,0c0.7158203,0.6337891,7.8398438,6.3046875,8.6972656,6.972168   c0.6035156,0.47052,0.9498291,1.1796265,0.9564819,1.9468384L23,10.7051392v-0.2266235   C23,9.7026367,22.6503906,8.9848633,22.0410156,8.5097656z" fill="#FFFFFF" opacity="0.2"/><linearGradient gradientUnits="userSpaceOnUse" id="SVGID_2_" x1="12" x2="12" y1="1" y2="10.706604"><stop offset="0" style="stop-color:#000000;stop-opacity:0"/><stop offset="1" style="stop-color:#000000;stop-opacity:0.1"/></linearGradient><path d="M22.0410156,8.5097656c-0.8574219-0.6674805-7.9814453-6.3383789-8.6972656-6.972168   C12.9463863,1.186121,12.4733753,1.0000858,12.0003462,1c-0.4732599-0.0000858-0.946538,0.1859493-1.3440962,0.5375977   c-1.6845703,1.4912109-6.6425781,5.3725586-8.6972656,6.972168C1.3496094,8.9848633,1,9.7026367,1,10.4785156v0.2266235   l0.0025024,0.0014648h21.9949951L23,10.7051392v-0.2266235C23,9.7026367,22.6503906,8.9848633,22.0410156,8.5097656z" fill="url(#SVGID_2_)"/><polygon fill="#F2F2F2" points="18.2929688,2.9394531 12,9.2324219 9.7070312,6.9394531 7.9394531,8.7070312 12,12.7675781    20.0605469,4.7070312  "/><polygon fill="#FFFFFF" opacity="0.2" points="12,9.4824219 18.2929688,3.1894531 19.9355469,4.8320312 20.0605469,4.7070312    18.2929688,2.9394531 12,9.2324219 9.7070312,6.9394531 7.9394531,8.7070312 8.0644531,8.8320312 9.7070312,7.1894531  "/><polygon opacity="0.1" points="12,12.5175781 7.9394531,8.7070312 12,12.7675781 20.0605469,4.7070312  "/><path d="M21,22.75H3c-1.1025391,0-2-0.8969727-2-2V21c0,1.1030273,0.8974609,2,2,2h18c1.1025391,0,2-0.8969727,2-2   v-0.25C23,21.8530273,22.1025391,22.75,21,22.75z" opacity="0.1"/><linearGradient gradientUnits="userSpaceOnUse" id="SVGID_3_" x1="15.5814934" x2="20.0502739" y1="9.1860847" y2="13.6548653"><stop offset="0" style="stop-color:#000000;stop-opacity:0.1"/><stop offset="1" style="stop-color:#000000;stop-opacity:0"/></linearGradient><path d="M23,10.4785156c0-0.7758789-0.3496094-1.4936523-0.9589844-1.96875   c-0.3426514-0.2667236-1.6890869-1.335022-3.2242432-2.55896L12,12.7675781l2.7832642,2.7832642L23,10.7051392V10.4785156z" fill="url(#SVGID_3_)"/><linearGradient gradientUnits="userSpaceOnUse" id="SVGID_4_" x1="1.5147529" x2="23.9995232" y1="8.8148413" y2="19.2996616"><stop offset="0" style="stop-color:#FFFFFF;stop-opacity:0.2"/><stop offset="1" style="stop-color:#FFFFFF;stop-opacity:0"/></linearGradient><path d="M22.0410156,8.5097656c-0.3426514-0.2667236-1.6890869-1.335022-3.2242432-2.55896   l1.2437744-1.2437744l-1.7675781-1.7675781l-1.4414673,1.4414673c-1.6845093-1.3486328-3.1976929-2.5687866-3.5077515-2.8433228   C12.9464111,1.1860962,12.4733887,1.000061,12.0003662,1C11.5270996,0.999878,11.053833,1.1859131,10.65625,1.5375977   c-1.6845703,1.4912109-6.6425781,5.3725586-8.6972656,6.972168C1.3496094,8.9848633,1,9.7026367,1,10.4785156V21   c0,1.1030273,0.8974609,2,2,2h18c1.1025391,0,2-0.8969727,2-2V10.4785156C23,9.7026367,22.6503906,8.9848633,22.0410156,8.5097656z   " fill="url(#SVGID_4_)"/></g><g/><g/><g/><g/><g/><g/><g/><g/><g/><g/><g/><g/><g/><g/><g/></svg>