<?xml version="1.0" ?><svg enable-background="new 0 0 24 24" id="Layer_1" version="1.1" viewBox="0 0 24 24" xml:space="preserve" xmlns="http://www.w3.org/2000/svg" xmlns:xlink="http://www.w3.org/1999/xlink"><g><polygon fill="#FFC107" id="XMLID_1454_" points="24,14.5 16,2 8,2 15.327239,14.5  "/><polygon fill="#2196F3" id="XMLID_1306_" points="4,22 20,22 24,14.5 8.5,14.5  "/><linearGradient gradientUnits="userSpaceOnUse" id="SVGID_1_" x1="5.5" x2="10.7941179" y1="17.5" y2="22.794117"><stop offset="0" style="stop-color:#000000;stop-opacity:0.1"/><stop offset="1" style="stop-color:#000000;stop-opacity:0"/></linearGradient><polygon fill="url(#SVGID_1_)" points="8.5,14.5 11.5882349,22 4,22  "/><polygon fill="#00B060" id="XMLID_1451_" points="8,2 0,14.5 4,22 12.0397806,8.891717  "/><linearGradient gradientUnits="userSpaceOnUse" id="SVGID_2_" x1="6.4544849" x2="12.3192949" y1="3.5455151" y2="9.4103251"><stop offset="0" style="stop-color:#000000;stop-opacity:0.1"/><stop offset="1" style="stop-color:#000000;stop-opacity:0"/></linearGradient><polygon fill="url(#SVGID_2_)" points="8,2 10.7737799,10.9558401 12.0397806,8.891717  "/><linearGradient gradientUnits="userSpaceOnUse" id="XMLID_20_" x1="10.8951216" x2="19.3951225" y1="1.4478785" y2="13.5728788"><stop offset="0" style="stop-color:#FFFFFF;stop-opacity:0.3"/><stop offset="1" style="stop-color:#FFFFFF;stop-opacity:0"/></linearGradient><polygon fill="url(#XMLID_20_)" id="XMLID_1308_" points="24,14.5 16,2 8,2 15.327239,14.5  "/><linearGradient gradientUnits="userSpaceOnUse" id="XMLID_21_" x1="7.2223954" x2="20.7776051" y1="15.089551" y2="21.4104481"><stop offset="0" style="stop-color:#FFFFFF;stop-opacity:0"/><stop offset="1" style="stop-color:#FFFFFF;stop-opacity:0.2"/></linearGradient><polygon fill="url(#XMLID_21_)" id="XMLID_1307_" points="4,22 20,22 24,14.5 8.5,14.5  "/><linearGradient gradientUnits="userSpaceOnUse" id="XMLID_22_" x1="0.1902935" x2="11.8777933" y1="14.4854355" y2="9.4854355"><stop offset="0" style="stop-color:#FFFFFF;stop-opacity:0.2"/><stop offset="1" style="stop-color:#FFFFFF;stop-opacity:0"/></linearGradient><polygon fill="url(#XMLID_22_)" id="XMLID_1305_" points="8,2 0,14.5 4,22 12.0397806,8.891717  "/><linearGradient gradientUnits="userSpaceOnUse" id="SVGID_3_" x1="2.7436175" x2="22.4570694" y1="8.616293" y2="17.8088264"><stop offset="0" style="stop-color:#FFFFFF;stop-opacity:0.2"/><stop offset="1" style="stop-color:#FFFFFF;stop-opacity:0"/></linearGradient><path d="M16,2H8L0,14.5L4,22h16l4-7.5L16,2z M8.6000366,14.5l3.4397583-5.6082764L15.3272095,14.5H8.6000366   z" fill="url(#SVGID_3_)"/></g><g/><g/><g/><g/><g/><g/><g/><g/><g/><g/><g/><g/><g/><g/><g/></svg>