<?xml version="1.0" ?><svg enable-background="new 0 0 24 24" id="Layer_1" version="1.1" viewBox="0 0 24 24" xml:space="preserve" xmlns="http://www.w3.org/2000/svg" xmlns:xlink="http://www.w3.org/1999/xlink"><g><path d="M20,2h-0.5L0,21.5V22c0,1.1030273,0.8969727,2,2,2h0.6594238L22,4.4044189V4   C22,2.8969727,21.1030273,2,20,2z" fill="#F2F2F2"/><path d="M2,2C0.8969727,2,0,2.8969727,0,4v17.5L19.5,2H2z" fill="#56A959"/><path d="M2.6594238,24H20c1.1030273,0,2-0.8969727,2-2V4.4044189L2.6594238,24z" fill="#CCCCCC"/><path d="M20,24c1.1030273,0,2-0.8969727,2-2v-8.918335C20.9784546,12.7444458,19.8049927,12.5,18.5,12.5   c-3.0299072,0-5.4057007,1.2453613-6.6169434,2.0432739C11.3258057,14.9104004,11,15.5361938,11,16.2034912V24H20z" fill="#FFC107"/><path d="M20,2H2C0.8969727,2,0,2.8969727,0,4v0.25c0-1.1030273,0.8969727-2,2-2h18   c1.1030273,0,2,0.8969727,2,2V4C22,2.8969727,21.1030273,2,20,2z" fill="#FFFFFF" opacity="0.2"/><path d="M18.5,18.2070312l3.5-3.5V13.081665C20.9784546,12.7444458,19.8049927,12.5,18.5,12.5   c-1.8501587,0-3.4519043,0.4656982-4.6980591,1.0089722L18.5,18.2070312z" fill="#FF8F00"/><path d="M18.5,12.5c-3.0299072,0-5.4057007,1.2453613-6.6169434,2.0432739   C11.3258057,14.9104004,11,15.5361938,11,16.2034912v0.25c0-0.6672974,0.3258057-1.2930908,0.8830566-1.6602173   C13.0942993,13.9953613,15.4700928,12.75,18.5,12.75c1.3049927,0,2.4784546,0.2444458,3.5,0.581665v-0.25   C20.9784546,12.7444458,19.8049927,12.5,18.5,12.5z" fill="#FFFFFF" opacity="0.2"/><path d="M20,23.75H2c-1.1030273,0-2-0.8969727-2-2V22c0,1.1030273,0.8969727,2,2,2h18c1.1030273,0,2-0.8969727,2-2   v-0.25C22,22.8530273,21.1030273,23.75,20,23.75z" opacity="0.1"/><path d="M5.5,10.5c-1.6542969,0-3-1.3457031-3-3s1.3457031-3,3-3   c0.6557617,0,1.2788086,0.2080078,1.8022461,0.6010742L6.7016602,5.9008789C6.3525391,5.6386719,5.9370117,5.5,5.5,5.5   c-1.1030273,0-2,0.8969727-2,2s0.8969727,2,2,2c0.9301758,0,1.7143555-0.6381836,1.9365234-1.5H6V7h2.5v0.5   C8.5,9.1542969,7.1542969,10.5,5.5,10.5z" fill="#F2F2F2"/><circle cx="18.5" cy="5.5" fill="#FFC107" r="5.5"/><path d="M18.5,0.25c2.4088745,0,4.4624462,1.5166335,5.2625561,3.649507   C23.0779247,1.6410842,20.9790039,0,18.5,0s-4.5748653,1.6310819-5.2594967,3.8895047   C14.0406132,1.7566313,16.0911255,0.25,18.5,0.25z" fill="#FFFFFF" opacity="0.2"/><path d="M18.5,10.75c-2.4088745,0-4.4624453-1.516633-5.2625551-3.649507   C13.9220762,9.3589163,16.0209961,11,18.5,11s4.5748653-1.6310816,5.2594967-3.8895049   C22.9593868,9.2433691,20.9088745,10.75,18.5,10.75z" opacity="0.1"/><linearGradient gradientUnits="userSpaceOnUse" id="SVGID_1_" x1="16.3706207" x2="21.9114532" y1="7.6293793" y2="13.1702118"><stop offset="0" style="stop-color:#000000;stop-opacity:0.1"/><stop offset="1" style="stop-color:#000000;stop-opacity:0"/></linearGradient><path d="M18.5,11c-1.5163574,0-2.8913574-0.6168213-3.8872681-1.6127319l-0.0018311,0.0018311   l3.1478271,3.1478271C18.0033569,12.5203857,18.2458496,12.5,18.5,12.5c1.3049927,0,2.4784546,0.2444458,3.5,0.581665V9.7393188   C21.0484009,10.5263672,19.8284912,11,18.5,11z" fill="url(#SVGID_1_)"/><linearGradient gradientUnits="userSpaceOnUse" id="SVGID_2_" x1="-1.3340245" x2="23.9706364" y1="6.4175115" y2="18.217268"><stop offset="0" style="stop-color:#FFFFFF;stop-opacity:0.2"/><stop offset="1" style="stop-color:#FFFFFF;stop-opacity:0"/></linearGradient><path d="M24,5.5C24,2.4672852,21.5327148,0,18.5,0c-1.7042236,0-3.2296753,0.7792358-4.2393188,2H2   C0.8969727,2,0,2.8969727,0,4v18c0,1.1030273,0.8969727,2,2,2h18c1.1030273,0,2-0.8969727,2-2V9.7393188   C23.2207642,8.7296753,24,7.2042236,24,5.5z" fill="url(#SVGID_2_)"/></g><g/><g/><g/><g/><g/><g/><g/><g/><g/><g/><g/><g/><g/><g/><g/></svg>