<?xml version="1.0" ?><svg enable-background="new 0 0 24 24" id="Layer_1" version="1.1" viewBox="0 0 24 24" xml:space="preserve" xmlns="http://www.w3.org/2000/svg" xmlns:xlink="http://www.w3.org/1999/xlink"><g><path d="M5.5,6.6732826c-0.2763672,0-0.5-0.2235327-0.5-0.4997764V4.4979868C5,2.0176516,7.0185547,0,9.5,0   S14,2.0176516,14,4.4979868c0,0.2762437-0.2236328,0.5144181-0.5,0.5144181S13,4.803514,13,4.5272703V4.4979868   c0-1.9288242-1.5703125-3.4984341-3.5-3.4984341S6,2.5691626,6,4.4979868v1.6755195C6,6.4497499,5.7763672,6.6732826,5.5,6.6732826   z" fill="#009ADA"/><path d="M7.5,6.2618456c-0.2763672,0-0.5-0.2235327-0.5-0.4997764V5.4975395   c0-2.4803352,2.0185547-4.4979868,4.5-4.4979868c1.8911133,0,3.5898438,1.205515,4.2265625,2.9996338   c0.0922852,0.2601376-0.0439453,0.5456543-0.3041992,0.637898c-0.2583008,0.0917559-0.5458984-0.0434375-0.6381836-0.3040628   C14.2885742,2.9371619,12.96875,1.9991052,11.5,1.9991052c-1.9296875,0-3.5,1.5696099-3.5,3.4984343v0.2645297   C8,6.0383129,7.7763672,6.2618456,7.5,6.2618456z" fill="#009ADA"/><polygon fill="#009ADA" points="18.5688477,2.9742432 1,6.5892944 1,20.9100342 18.5180664,24 23,22.8803711 23,3.9981689  "/><polygon fill="#FFFFFF" opacity="0.2" points="18.5688477,2.9742432 1,6.5892944 1,6.8392944 18.5688477,3.2242432 23,4.2481689    23,3.9981689  "/><polygon opacity="0.1" points="1,20.6600342 1,20.9100342 18.5180664,24 23,22.8803711 23,22.6303711 18.5180664,23.75  "/><polygon fill="#FFFFFF" points="9.5,13 14,13 14,8.5 9.5,9.333313  "/><polygon fill="#FFFFFF" points="8.5,13 8.5,9.5184937 5,10.166626 5,13  "/><polygon fill="#FFFFFF" points="9.5,14 9.5,17.666626 14,18.5 14,14  "/><polygon fill="#FFFFFF" points="8.5,14 5,14 5,16.833313 8.5,17.4814453  "/><linearGradient gradientUnits="userSpaceOnUse" id="SVGID_1_" x1="0.7183167" x2="25.0288239" y1="7.1933661" y2="18.5295429"><stop offset="0" style="stop-color:#FFFFFF;stop-opacity:0.2"/><stop offset="1" style="stop-color:#FFFFFF;stop-opacity:0"/></linearGradient><path d="M18.5688477,2.9742432l-3.0218506,0.6217651   c-0.6014404-1.2806396-1.7608032-2.194397-3.119812-2.4862061C11.6380615,0.4277344,10.6227417,0,9.5,0   C7.0185547,0,5,2.0176392,5,4.4979858v1.2682495L1,6.5892944v14.3207397L18.5180664,24L23,22.8803711V3.9981689   L18.5688477,2.9742432z M14.5421753,3.8027954l-0.5999756,0.1234741c-0.0523071-0.4057617-0.1392212-0.8004761-0.2925415-1.1651611   C14.0074463,3.0449219,14.3150024,3.3937988,14.5421753,3.8027954z M11.9835205,2.0374146   c0.5444336,0.5490112,0.8922729,1.2808838,0.9790039,2.0903931L8.0360107,5.1415405   C8.2174072,3.3817749,9.6922607,1.9990845,11.5,1.9990845C11.6636353,1.9990845,11.8245239,2.0147705,11.9835205,2.0374146z    M6,4.4979858c0-1.928833,1.5703125-3.4984741,3.5-3.4984741c0.3248291,0,0.6333008,0.0587769,0.9319458,0.1419678   c-1.918335,0.4709473-3.3501587,2.1654663-3.4171753,4.2102051L6,5.5604858V4.4979858z" fill="url(#SVGID_1_)"/></g><g/><g/><g/><g/><g/><g/><g/><g/><g/><g/><g/><g/><g/><g/><g/></svg>