<?xml version="1.0" ?><svg enable-background="new 0 0 24 24" id="Layer_1" version="1.1" viewBox="0 0 24 24" xml:space="preserve" xmlns="http://www.w3.org/2000/svg" xmlns:xlink="http://www.w3.org/1999/xlink"><g><rect fill="#FFFFFF" height="4" width="3" x="20.5" y="10"/><path d="M23,14.5h-3v-5h3c0.5522842,0,1,0.4477148,1,1v3C24,14.0522852,23.5522842,14.5,23,14.5z M21,13.5h2v-3h-2   V13.5z" fill="#781E77"/><rect fill="#FFFFFF" height="4" width="3" x="20.5" y="15.5"/><path d="M23,20h-3v-5h3c0.5522842,0,1,0.4477148,1,1v3C24,19.5522842,23.5522842,20,23,20z M21,19h2v-3h-2V19z" fill="#781E77"/><polygon fill="#FFFFFF" points="21.5,3.5 21.5,5 23.5,5 23.5,8.5 21.5,8.5 21.5,20.5 12,20.5 12,3.5  "/><path d="M21,21h-9.5V3H21c0.5522842,0,1,0.4477153,1,1v0.5h1c0.5522842,0,1,0.4477153,1,1V8   c0,0.5522852-0.4477158,1-1,1h-1v11C22,20.5522842,21.5522842,21,21,21z M12.5,20H21V8h2V5.5h-2V4h-8.5V20z" fill="#781E77"/><polygon fill="#781E77" points="14,0 0,2.6086957 0,21.391304 14,24  "/><polygon fill="#FFFFFF" opacity="0.2" points="0,2.6087036 0,2.8587036 14,0.25 14,0  "/><polygon opacity="0.1" points="0,21.3912964 14,24 14,23.75 0,21.1412964  "/><rect fill="#781E77" height="1" width="6.5" x="13.5" y="5.5"/><rect fill="#781E77" height="1" width="6.5" x="13.5" y="8.5"/><rect fill="#781E77" height="1" width="6.5" x="13.5" y="11.5"/><rect fill="#781E77" height="1" width="6.5" x="13.5" y="14.5"/><rect fill="#781E77" height="1" width="6.5" x="13.5" y="17.5"/><linearGradient gradientUnits="userSpaceOnUse" id="SVGID_1_" x1="9.5" x2="22.7071037" y1="7.5" y2="20.7071037"><stop offset="0" style="stop-color:#000000;stop-opacity:0.1"/><stop offset="1" style="stop-color:#000000;stop-opacity:0"/></linearGradient><path d="M14,21h7c0.5523071,0,1-0.4477539,1-1h1c0.5523071,0,1-0.4477539,1-1v-3   c0-0.5523071-0.4476929-1-1-1h-1v-0.5h1c0.5523071,0,1-0.4477539,1-1V13L14,3V21z" fill="url(#SVGID_1_)"/><polygon fill="#FFFFFF" points="8.75,8.4107056 8.75,14.1367188 5.1815796,8.6655884 2.75,8.8392944 2.75,16.1607056    4.25,16.2678833 4.25,10.3632812 8.4440308,16.5674438 10.4209595,16.7086182 10.2801514,8.3013916  "/><linearGradient gradientTransform="matrix(60.9756088 0 0 60.9756088 20560.1210938 -26748.4140625)" gradientUnits="userSpaceOnUse" id="SVGID_2_" x1="-337.1860046" x2="-336.9563904" y1="438.8707886" y2="438.8707886"><stop offset="0" style="stop-color:#FFFFFF"/><stop offset="1" style="stop-color:#000000"/></linearGradient><path d="M14,0L0,2.6086957v18.782608L14,24V0z" fill="url(#SVGID_2_)" opacity="0.05"/><linearGradient gradientUnits="userSpaceOnUse" id="SVGID_3_" x1="-1.7767978" x2="24.3000107" y1="6.4190588" y2="18.5788746"><stop offset="0" style="stop-color:#FFFFFF;stop-opacity:0.2"/><stop offset="1" style="stop-color:#FFFFFF;stop-opacity:0"/></linearGradient><path d="M23,9c0.5523071,0,1-0.4477539,1-1V5.5c0-0.5523071-0.4476929-1-1-1h-1V4   c0-0.5523071-0.4476929-1-1-1h-7V0L0,2.6087036v18.7825928L14,24v-3h7c0.5523071,0,1-0.4477539,1-1h1c0.5523071,0,1-0.4477539,1-1   v-3c0-0.5523071-0.4476929-1-1-1h-1v-0.5h1c0.5523071,0,1-0.4477539,1-1v-3c0-0.5523071-0.4476929-1-1-1h-1V9H23z" fill="url(#SVGID_3_)"/></g><g/><g/><g/><g/><g/><g/><g/><g/><g/><g/><g/><g/><g/><g/><g/></svg>