<?xml version="1.0" ?><svg enable-background="new 0 0 24 24" id="Layer_1" version="1.1" viewBox="0 0 24 24" xml:space="preserve" xmlns="http://www.w3.org/2000/svg" xmlns:xlink="http://www.w3.org/1999/xlink"><g><path d="M23.5,6h-10C13.2236328,6,13,6.2236328,13,6.5S13.2236328,7,13.5,7v10c-0.2763672,0-0.5,0.2236328-0.5,0.5   s0.2236328,0.5,0.5,0.5h10c0.2763672,0,0.5-0.2236328,0.5-0.5V8.2714872L23.9607849,7.007843L24,6.5   C24,6.2236328,23.7763672,6,23.5,6z" fill="#0076BE"/><path d="M23.5,17.75h-10c-0.2319946,0-0.4182129-0.1608887-0.4747925-0.375   C13.0144043,17.4159546,13,17.4556274,13,17.5c0,0.2763672,0.2236328,0.5,0.5,0.5h10c0.2763672,0,0.5-0.2236328,0.5-0.5v-0.25   C24,17.5263672,23.7763672,17.75,23.5,17.75z" opacity="0.1"/><path d="M24,6.5c0-0.046814-0.0145874-0.0889893-0.0266113-0.131958l-6.986084,5.6759033l-3.0302734-2.3305664   C13.8207397,9.6079102,13.659668,9.5695801,13.5,9.5697021v1.6837158l3.0429688,2.3408203   C16.6777344,13.6982422,16.8388672,13.75,17,13.75c0.1679688,0,0.3349609-0.0561523,0.4726562-0.1679688L24,8.2785645V6.5z" fill="#FFFFFF"/><path d="M23.5,6h-10C13.2236328,6,13,6.2236328,13,6.5   c0,0.0443726,0.0144043,0.0840454,0.0252075,0.125C13.0817871,6.4108887,13.2680054,6.25,13.5,6.25h10   c0.2763672,0,0.5,0.2236328,0.5,0.5V6.5C24,6.2236328,23.7763672,6,23.5,6z" fill="#FFFFFF" opacity="0.2"/><polygon fill="#0076BE" points="14,0 0,2.6086957 0,21.391304 14,24  "/><polygon fill="#FFFFFF" opacity="0.2" points="0,2.6087036 0,2.8587036 14,0.25 14,0  "/><polygon opacity="0.1" points="0,21.3912964 14,24 14,23.75 0,21.1412964  "/><path d="M6.5,17.25c-2.1025391,0-3.75-2.3061523-3.75-5.25S4.3974609,6.75,6.5,6.75s3.75,2.3061523,3.75,5.25   S8.6025391,17.25,6.5,17.25z M6.5,8.25c-1.2197266,0-2.25,1.7172852-2.25,3.75s1.0302734,3.75,2.25,3.75S8.75,14.0327148,8.75,12   S7.7197266,8.25,6.5,8.25z" fill="#FFFFFF"/><linearGradient gradientUnits="userSpaceOnUse" id="SVGID_1_" x1="11.0000153" x2="21.853653" y1="8.9999847" y2="19.8536224"><stop offset="0" style="stop-color:#000000;stop-opacity:0.1"/><stop offset="1" style="stop-color:#000000;stop-opacity:0"/></linearGradient><path d="M23.5,18c0.2763672,0,0.5-0.2236328,0.5-0.5v-1.500061L14,6v12H23.5z" fill="url(#SVGID_1_)"/><linearGradient gradientTransform="matrix(60.9756088 0 0 60.9756088 20560.1210938 -26748.4140625)" gradientUnits="userSpaceOnUse" id="SVGID_2_" x1="-337.1860046" x2="-336.9563904" y1="438.8707886" y2="438.8707886"><stop offset="0" style="stop-color:#FFFFFF"/><stop offset="1" style="stop-color:#000000"/></linearGradient><path d="M14,0L0,2.6086957v18.782608L14,24V0z" fill="url(#SVGID_2_)" opacity="0.05"/><linearGradient gradientUnits="userSpaceOnUse" id="SVGID_3_" x1="-1.8472362" x2="23.612545" y1="6.5701141" y2="18.4422054"><stop offset="0" style="stop-color:#FFFFFF;stop-opacity:0.2"/><stop offset="1" style="stop-color:#FFFFFF;stop-opacity:0"/></linearGradient><path d="M24,6.5C24,6.2236328,23.7763672,6,23.5,6H14V0L0,2.6087036v18.7825928L14,24v-6h9.5   c0.2763672,0,0.5-0.2236328,0.5-0.5V6.5z" fill="url(#SVGID_3_)"/></g><g/><g/><g/><g/><g/><g/><g/><g/><g/><g/><g/><g/><g/><g/><g/></svg>