<?xml version="1.0" ?><svg enable-background="new 0 0 24 24" id="Layer_1" version="1.1" viewBox="0 0 24 24" xml:space="preserve" xmlns="http://www.w3.org/2000/svg" xmlns:xlink="http://www.w3.org/1999/xlink"><g><path d="M17.5009537,5.0000005h-7.5004883c-0.5668945,0-1.2856445,0.2451172-1.4916992,1.4130859   C8.4833755,6.5551763,6.001442,22.6367188,6.001442,23c0,0.5703125,0.4296875,1,0.9995117,1h5.5004883   c0.2446289,0,0.453125-0.1767578,0.4931641-0.4179688L13.9247818,18h1.5761719c4.1347656,0,7.4990234-3.3642578,7.4990234-7.5   C22.9999771,7.4672856,20.5331802,5.0000005,17.5009537,5.0000005z" fill="#009ADA"/><path d="M12.6117325,23.75H6.9411392c-0.4160156,0-0.7528076-0.2322998-0.9067383-0.5778809   C6.114418,23.6503906,6.492897,24,7.0009537,24h5.5004883c0.2446289,0,0.453125-0.1767578,0.4931641-0.4179688l0.0045776-0.0275879   C12.9069595,23.6715088,12.7696304,23.75,12.6117325,23.75z" opacity="0.1"/><path d="M15.5009537,17.75h-1.534173L13.9235067,18h1.5774469c4.1347656,0,7.4990234-3.3642578,7.4990234-7.5   c0-0.0422363-0.0053711-0.0830688-0.0063477-0.125061C22.9260025,14.4526367,19.593544,17.75,15.5009537,17.75z" opacity="0.1"/><path d="M15.4528179-0.0000004L5.501442,0.0000004c-0.6933594,0-1.2763672,0.5415039-1.4853516,1.3793945   C3.986305,1.5000004,1.00193,19.4174805,1.0009534,20.0874023c-0.003418,0.1918945-0.0083008,0.4545898,0.2026367,0.6694336   C1.4135511,20.9707031,1.7114027,21,2.00193,21h4.2807493l1.0610476-7h5.1577148   c4.6945686,0,8.5121098-3.8260889,8.4989796-8.5241432C20.9919434,2.44157,18.4871159-0.0000007,15.4528179-0.0000004z" fill="#273691"/><path d="M5.4499283,0.2500004h10.0445557c2.4042969,0,4.4732056,1.5075073,5.2583618,3.6223145   c-0.7025146-2.246521-2.8244019-3.8723145-5.3000488-3.8723145H5.501442c-0.6933594,0-1.2763672,0.5415039-1.4853516,1.3793945   C4.0146255,1.3852543,4.0041885,1.4450687,3.9894178,1.5314335C4.2219009,0.754456,4.7801895,0.2500004,5.4499283,0.2500004z" fill="#FFFFFF" opacity="0.2"/><path d="M1.8705823,20.75c-0.2905273,0-0.5883789-0.0292969-0.7983398-0.2431641   c-0.0151367-0.0154419-0.0217896-0.0324707-0.03479-0.0483398c0.0279541,0.1019897,0.0742188,0.2047119,0.1661377,0.2983398   C1.4135511,20.9707031,1.7114027,21,2.00193,21H6.282692l0.0379028-0.25H1.8705823z" opacity="0.1"/><path d="M7.3437271,14h5.1577148c4.439209,0,8.0892944-3.4224243,8.4627075-7.7669673   c-0.946228-0.7697144-2.1512451-1.2330322-3.4631958-1.2330322h-7.5004883c-0.5668945,0-1.2856445,0.2451172-1.4916992,1.4130859   L7.3437271,14z" opacity="0.2"/><linearGradient gradientUnits="userSpaceOnUse" id="SVGID_1_" x1="1.2849817" x2="21.0486355" y1="7.1307149" y2="16.3466587"><stop offset="0" style="stop-color:#FFFFFF;stop-opacity:0.2"/><stop offset="1" style="stop-color:#FFFFFF;stop-opacity:0"/></linearGradient><path d="M20.9641495,6.2330327c0.0214844-0.249939,0.0369873-0.5016479,0.0362549-0.7572021   c-0.0084839-3.0343018-2.5133057-5.4758301-5.5476074-5.4758301H5.501442c-0.6933594,0-1.2763672,0.5415039-1.4853516,1.3793945   C3.986305,1.5000004,1.00193,19.4174805,1.0009534,20.0874023c-0.003418,0.1918945-0.0083008,0.4545898,0.2026367,0.6694336   C1.4135511,20.9707031,1.7114027,21,2.00193,21h4.2799683c-0.1713257,1.1575928-0.2804565,1.9241943-0.2804565,2   c0,0.5703125,0.4296875,1,0.9995117,1h5.5004883c0.2446289,0,0.453125-0.1767578,0.4931641-0.4179688L13.9247818,18h1.5761719   c4.1347656,0,7.4990234-3.3642578,7.4990234-7.5C22.9999771,8.7794189,22.2049332,7.24231,20.9641495,6.2330327z" fill="url(#SVGID_1_)"/></g><g/><g/><g/><g/><g/><g/><g/><g/><g/><g/><g/><g/><g/><g/><g/></svg>