<?xml version="1.0" ?><svg enable-background="new 0 0 24 24" id="Layer_1" version="1.1" viewBox="0 0 24 24" xml:space="preserve" xmlns="http://www.w3.org/2000/svg" xmlns:xlink="http://www.w3.org/1999/xlink"><g><radialGradient cx="8.833333" cy="6.1666665" gradientUnits="userSpaceOnUse" id="SVGID_1_" r="17.5882702"><stop offset="0" style="stop-color:#193458;stop-opacity:0.98"/><stop offset="0.9333873" style="stop-color:#210021"/></radialGradient><rect fill="url(#SVGID_1_)" height="21" width="21" x="1.5" y="1.5"/><path d="M23,23H1V1h22V23z M2,22h20V2H2V22z" fill="#00B5EF"/><path d="M8,18H6V6l2.8217659-0.0000019c2.0878658-0.0000014,3.955945,1.5223303,4.1586885,3.6003294   C13.2130814,11.984602,11.3374205,14,9,14H8V18z M8,12h1c1.1030273,0,2-0.8969727,2-2s-0.8969727-2-2-2H8V12z" fill="#00B5EF"/><path d="M15.2370796,17.9772453c-1.1941519-0.1036434-2.076004-0.5285358-2.1843863-0.5827351l0.8945713-1.7890425   C13.95016,15.6071701,14.7677498,16,15.7563477,16C16.1665039,16,16.5,15.6665039,16.5,15.2563477   c0-0.3203125-0.2041016-0.6040039-0.5083008-0.7050781l-0.482379-0.160656   c-1.0203657-0.3398314-1.8364744-1.1953974-1.9827442-2.2608728C13.2954512,10.4461517,14.6040564,9,16.2436523,9   c1.4507847,0,2.5797482,0.5435333,2.703619,0.6054726l-0.8901405,1.7910128C18.0496254,11.3927269,17.2321205,11,16.2436523,11   C15.8334961,11,15.5,11.3334961,15.5,11.7436523c0,0.3203125,0.2041016,0.6040039,0.5083008,0.7050781l0.6157227,0.2050781   c1.2093735,0.4031248,1.9910641,1.5867414,1.8620834,2.880826C18.3299751,17.1011562,16.8054676,18.1133671,15.2370796,17.9772453z   " fill="#00B5EF"/><linearGradient gradientUnits="userSpaceOnUse" id="SVGID_2_" x1="-1.2485763" x2="25.2485771" y1="5.8220873" y2="18.1779118"><stop offset="0" style="stop-color:#FFFFFF;stop-opacity:0.2"/><stop offset="1" style="stop-color:#FFFFFF;stop-opacity:0"/></linearGradient><path d="M23,23H1V1h22V23z" fill="url(#SVGID_2_)"/></g><g/><g/><g/><g/><g/><g/><g/><g/><g/><g/><g/><g/><g/><g/><g/></svg>