<?xml version="1.0" ?><svg enable-background="new 0 0 24 24" id="Layer_1" version="1.1" viewBox="0 0 24 24" xml:space="preserve" xmlns="http://www.w3.org/2000/svg" xmlns:xlink="http://www.w3.org/1999/xlink"><g><linearGradient gradientUnits="userSpaceOnUse" id="SVGID_1_" x1="12" x2="12" y1="0.5" y2="23.5"><stop offset="0" style="stop-color:#15BEF0"/><stop offset="0.155213" style="stop-color:#18B2E8"/><stop offset="0.4323524" style="stop-color:#2094D2"/><stop offset="0.7966607" style="stop-color:#2E62AF"/><stop offset="1" style="stop-color:#374499"/></linearGradient><circle cx="12" cy="12" fill="url(#SVGID_1_)" r="11.5"/><linearGradient gradientUnits="userSpaceOnUse" id="SVGID_2_" x1="12" x2="20.1317215" y1="12" y2="20.1317215"><stop offset="0" style="stop-color:#000000;stop-opacity:0.1"/><stop offset="1" style="stop-color:#000000;stop-opacity:0"/></linearGradient><path d="M23.5,12c0-0.9956055-0.1397705-1.9563599-0.3776245-2.8776245L19,5l-5.5,8.5L5,19   l4.1223755,4.1223755C10.0437012,23.3602295,11.0043945,23.5,12,23.5C18.3512573,23.5,23.5,18.3512573,23.5,12z" fill="url(#SVGID_2_)"/><path d="M12,24C5.3828125,24,0,18.6166992,0,12S5.3828125,0,12,0s12,5.3833008,12,12S18.6171875,24,12,24z M12,1   C5.9345703,1,1,5.9345703,1,12s4.9345703,11,11,11s11-4.9345703,11-11S18.0654297,1,12,1z" fill="#F2F2F2"/><polygon fill="#EF373E" id="XMLID_1313_" points="19,5 10.5,10.5 13.5,13.5  "/><polygon id="XMLID_1312_" opacity="0.1" points="19,5 12,12 13.5,13.5  "/><polygon fill="#FFFFFF" id="XMLID_1311_" points="4.9999986,18.9999981 13.499999,13.499999 10.499999,10.499999  "/><polygon id="XMLID_1310_" opacity="0.1" points="4.9999986,18.9999981 11.999999,11.999999 13.5,13.5  "/><path d="M12,23.75c-5.4144835,0-10.0010967-3.5623417-11.5193195-8.4773369   c-0.11311-0.3661747-0.209189-0.7398577-0.2873104-1.1201344c0.0572594,0.3174276,0.1269963,0.6304893,0.2086847,0.9386606   C1.762589,20.2238407,6.4384174,24,12,24c5.4323578,0,10.0144463-3.5743637,11.4917545-8.5204544   c0.1259518-0.4216919,0.2293358-0.8533554,0.308754-1.2936239c-0.0704193,0.342782-0.155405,0.6800756-0.254282,1.0112286   C22.063055,20.1644802,17.4542561,23.75,12,23.75z" opacity="0.1"/><path d="M12,0.25c5.4057007,0,9.9801025,3.5333252,11.5174561,8.4031372   C22.0674438,3.6561279,17.4645996,0,12,0S1.9325562,3.6561279,0.4825439,8.6531372C2.0198975,3.7833252,6.5942993,0.25,12,0.25z" fill="#FFFFFF" opacity="0.2"/><linearGradient gradientUnits="userSpaceOnUse" id="SVGID_3_" x1="1.1217111" x2="22.8782883" y1="6.9273705" y2="17.0726299"><stop offset="0" style="stop-color:#FFFFFF;stop-opacity:0.2"/><stop offset="1" style="stop-color:#FFFFFF;stop-opacity:0"/></linearGradient><circle cx="12" cy="12" fill="url(#SVGID_3_)" r="12"/></g><g/><g/><g/><g/><g/><g/><g/><g/><g/><g/><g/><g/><g/><g/><g/></svg>