<?xml version="1.0" ?><svg enable-background="new 0 0 24 24" id="Layer_1" version="1.1" viewBox="0 0 24 24" xml:space="preserve" xmlns="http://www.w3.org/2000/svg" xmlns:xlink="http://www.w3.org/1999/xlink"><g><polygon fill="#FDB300" id="Fill-1" points="12.0002003,0.9998711 5.2361717,1.7382585 0.00015,8.4976912 12.0004005,22.9996128    23.999752,8.4976912 18.7637291,1.7382585  "/><polygon fill="#EA6C00" id="Fill-2" points="0,8.4976912 12.0002499,23.0001297 12.0002499,23.0001297 4.8605204,8.4976912  "/><polygon fill="#EA6C00" id="Fill-3" points="19.1394806,8.4976912 12.0006504,23.0001297 12.0006504,23.0001297 24,8.4976912  "/><polygon fill="#FDD231" id="Fill-5" points="5.2361717,1.7382585 4.8606701,8.4976912 12.0002003,0.9998711  "/><polygon fill="#FDD231" id="Fill-6" points="19.1394806,8.4976912 18.763979,1.7382585 12.0004501,0.9998711  "/><polygon fill="#FDAD00" id="Fill-7" points="19.1394806,8.4976912 24,8.4976912 18.763979,1.7382585  "/><polygon fill="#FDAD00" id="Fill-8" points="0,8.4976912 4.8605204,8.4976912 5.236022,1.7382585  "/><polygon fill="#FEEEB7" id="Fill-9" points="12.0002003,0.9998711 4.8606701,8.4976912 19.1392307,8.4976912  "/><polygon fill="#FDAD00" id="Fill-4" points="4.8604703,8.4976912 12.0002003,23.0001297 12.0007,23.0001297 19.1395302,8.4976912     "/><linearGradient gradientUnits="userSpaceOnUse" id="Fill-1_2_" x1="1.2646824" x2="20.9778061" y1="5.7858925" y2="14.9782724"><stop offset="0" style="stop-color:#FFFFFF;stop-opacity:0.2"/><stop offset="1" style="stop-color:#FFFFFF;stop-opacity:0"/></linearGradient><polygon fill="url(#Fill-1_2_)" id="Fill-1_1_" points="12.0002003,0.9998711 5.2361717,1.7382585 0.00015,8.4976912    12.0004005,22.9996128 23.999752,8.4976912 18.7637291,1.7382585  "/></g><g/><g/><g/><g/><g/><g/><g/><g/><g/><g/><g/><g/><g/><g/><g/></svg>