<?xml version="1.0" ?><svg enable-background="new 0 0 24 24" id="Layer_1" version="1.1" viewBox="0 0 24 24" xml:space="preserve" xmlns="http://www.w3.org/2000/svg" xmlns:xlink="http://www.w3.org/1999/xlink"><g><path d="M23,23c0,0-3.895834-1.0476189-11-1.0476189S1,23,1,23V1   c0,0,3.8958335,1.0476191,11,1.0476191S23,1,23,1V23z" fill="#82459B" id="XMLID_1384_"/><path d="M12,2.0476074C4.895813,2.0476074,1,1,1,1v0.25c0,0,3.895813,1.0476074,11,1.0476074   S23,1.25,23,1.25V1C23,1,19.104187,2.0476074,12,2.0476074z" fill="#FFFFFF" opacity="0.2"/><path d="M1,22.75V23c0,0,3.895813-1.0476074,11-1.0476074S23,23,23,23v-0.25c0,0-3.895813-1.0476074-11-1.0476074   S1,22.75,1,22.75z" opacity="0.1"/><polygon fill="#FFFFFF" points="15.6923218,5 12,11 8.3076782,5 6.2941284,5 11,13 11,19 13,19 13,13 17.7058716,5  "/><polygon fill="#FFFFFF" opacity="0.2" points="15.6923218,5 12,11 8.3076782,5 6.2941284,5 6.4411621,5.25 8.3076782,5.25    12,11.25 15.6923218,5.25 17.5588379,5.25 17.7058716,5  "/><polygon opacity="0.1" points="11,13 11,12.75 6.2941284,5  "/><rect height="0.25" opacity="0.1" width="2" x="11" y="18.75"/><polygon opacity="0.1" points="13,12.75 13,13 17.7058716,5  "/><linearGradient gradientUnits="userSpaceOnUse" id="SVGID_1_" x1="7.8208928" x2="24.1670532" y1="5.4867854" y2="21.8329468"><stop offset="0" style="stop-color:#000000;stop-opacity:0.1"/><stop offset="1" style="stop-color:#000000;stop-opacity:0"/></linearGradient><path d="M12.8791504,9.5714111L8.3076782,5L12,11L12.8791504,9.5714111z M17.7058716,5L13,13v6h-2   l2.9414186,2.9790764C19.7526989,22.1113396,23,23,23,23V10.2941284L17.7058716,5z" fill="url(#SVGID_1_)"/><linearGradient gradientUnits="userSpaceOnUse" id="XMLID_33_" x1="-1.2485763" x2="25.2485771" y1="5.8220873" y2="18.1779118"><stop offset="0" style="stop-color:#FFFFFF;stop-opacity:0.2"/><stop offset="1" style="stop-color:#FFFFFF;stop-opacity:0"/></linearGradient><path d="M23,23c0,0-3.895834-1.0476189-11-1.0476189S1,23,1,23V1   c0,0,3.8958335,1.0476191,11,1.0476191S23,1,23,1V23z" fill="url(#XMLID_33_)" id="XMLID_1356_"/></g><g/><g/><g/><g/><g/><g/><g/><g/><g/><g/><g/><g/><g/><g/><g/></svg>