<?xml version="1.0" ?><svg enable-background="new 0 0 24 24" id="Layer_1" version="1.1" viewBox="0 0 24 24" xml:space="preserve" xmlns="http://www.w3.org/2000/svg" xmlns:xlink="http://www.w3.org/1999/xlink"><g><path d="M18.9326,13.2490234C18.9228344,13.2329102,17.9999828,11.6293945,17.9999828,10.5V6.4384766   c0-3.4052734-1.8691406-5.4384766-5-5.4384766C9.5234203,1,7.6201,2.3984375,7.0097485,5.4003906L6.9072094,5.9082031   l3.9755859,0.6625977l0.1044922-0.4594727C11.1679516,5.3217773,11.6064281,5,12.4999828,5   c0.6708984,0,1.3554688,0.1948242,1.4804688,1.5371094c-1.015625,0.0869141-3.3476563,0.3505859-4.7001953,1.0141602   C7.4091625,8.46875,6.4999828,9.9238281,6.4999828,12c0,2.3925781,1.6074219,4,4,4   c2.2480469,0,3.4238281-0.6508789,4.0283203-1.2456055c0.7773438,0.7270508,1.7109375,1.175293,1.7568359,1.1972656   l0.3193359,0.1513672l2.5205078-2.5214844L18.9326,13.2490234z M11.9999828,12.5c-0.6640625,0-1-0.3364258-1-1   c0-1.5478516,1.8007813-1.9116211,2.9765625-1.9838867C13.7753735,11.6953125,12.3281078,12.4960938,11.9999828,12.5z" fill="#333333"/><path d="M12.9999828,1.25c3.1308594,0,5,2.0332031,5,5.4384766v-0.25   c0-3.4052734-1.8691406-5.4384766-5-5.4384766C9.5234203,1,7.6201,2.3984375,7.0097485,5.4003906L6.9072094,5.9082031   l0.0488281,0.0081177l0.0537109-0.2659302C7.6201,2.6484375,9.5234203,1.25,12.9999828,1.25z" fill="#FFFFFF" opacity="0.1"/><path d="M16.604475,15.8530273l-0.3193359-0.1513672   c-0.0458984-0.0219727-0.9794922-0.4702148-1.7568359-1.1972656C13.923811,15.0991211,12.7480297,15.75,10.4999828,15.75   c-2.3578491,0-3.9456787-1.5650635-3.9914551-3.9002686C6.5073681,11.9009399,6.4999828,11.947998,6.4999828,12   c0,2.3925781,1.6074219,4,4,4c2.2480469,0,3.4238281-0.6508789,4.0283203-1.2456055   c0.7773438,0.7270508,1.7109375,1.175293,1.7568359,1.1972656l0.3193359,0.1513672l2.5205078-2.5214844l-0.0916138-0.1583252   L16.604475,15.8530273z" fill="#010101" opacity="0.2"/><path d="M21.5439281,18.7036133c-0.125-0.1694336-0.3408203-0.2436523-0.5439453-0.1831055   C20.9492016,18.5351563,16.3105297,20,11.9999828,20c-4.59375,0-9.8535156-1.5610352-11.1464844-2.8535156   c-0.1914063-0.1904297-0.4980469-0.1962891-0.6943359-0.012207c-0.1972656,0.1835938-0.2128906,0.4902344-0.0371094,0.6938477   C0.3056471,18.0390625,4.7001781,23,11.9999828,23c7.3388672,0,9.4550781-3.5698242,9.5566406-3.7216797   C21.673811,19.1030273,21.6689281,18.8735352,21.5439281,18.7036133z" fill="#F79120"/><path d="M21.9999828,16.5c-1.2861328,0-2.6240234,0.5117188-2.6806641,0.5336914   c-0.2167969,0.0839844-0.3476563,0.3071289-0.3144531,0.5375977s0.2216797,0.4077148,0.4541016,0.4267578   c0.9414063,0.0786133,2.0742188,0.2431641,2.4589844,0.3833008c0.0126953,0.4140625-0.1845703,1.5649414-0.4052734,2.5048828   c-0.0527344,0.2265625,0.0576172,0.4599609,0.2675781,0.5625C21.8505688,21.4833984,21.9257641,21.5,21.9999828,21.5   c0.1464844,0,0.2910156-0.0649414,0.3876953-0.1845703C22.5527172,21.1118164,23.9999828,19.2929688,23.9999828,18   C23.9999828,16.5,22.4951,16.5,21.9999828,16.5z" fill="#F79120"/><path d="M21.5566235,19.0283203C21.455061,19.1801758,19.33885,22.75,11.9999828,22.75   c-7.2998047,0-11.6943359-4.9609375-11.8779297-5.171875c-0.0498657-0.0577393-0.0802002-0.1243286-0.0994873-0.1934814   c-0.036499,0.1520386-0.0098877,0.3167725,0.0994873,0.4434814C0.3056471,18.0390625,4.7001781,23,11.9999828,23   c7.3388672,0,9.4550781-3.5698242,9.5566406-3.7216797c0.0822754-0.1231079,0.0825806-0.2676392,0.045166-0.4047852   C21.5878735,18.9259644,21.5879345,18.9814453,21.5566235,19.0283203z" fill="#010101" opacity="0.1"/><path d="M19.3193188,17.2836914C19.3759594,17.2617188,20.71385,16.75,21.9999828,16.75   c0.4800415,0,1.8973999,0.0123291,1.9840088,1.3793335C23.9868603,18.0869751,23.9999828,18.0413818,23.9999828,18   c0-1.5-1.5048828-1.5-2-1.5c-1.2861328,0-2.6240234,0.5117188-2.6806641,0.5336914   c-0.2167969,0.0839844-0.3476563,0.3071289-0.3144531,0.5375977c0.0025635,0.0178833,0.0118408,0.0328979,0.0162354,0.0501099   C19.0617504,17.4713135,19.1674023,17.3425293,19.3193188,17.2836914z" fill="#FFFFFF" opacity="0.2"/><linearGradient gradientUnits="userSpaceOnUse" id="SVGID_1_" x1="4.0998583" x2="24.26618" y1="8.5967216" y2="18.000433"><stop offset="0" style="stop-color:#FFFFFF;stop-opacity:0.2"/><stop offset="1" style="stop-color:#FFFFFF;stop-opacity:0"/></linearGradient><path d="M6.4999828,12c0,2.3925781,1.6074219,4,4,4c2.2480469,0,3.4238281-0.6508789,4.0283203-1.2456055   c0.7773438,0.7270508,1.7109375,1.175293,1.7568359,1.1972656l0.3193359,0.1513672l2.5205078-2.5214844L18.9326,13.2490234   C18.9228344,13.2329102,17.9999828,11.6293945,17.9999828,10.5V6.4384766c0-3.4052734-1.8691406-5.4384766-5-5.4384766   C9.5234203,1,7.6201,2.3984375,7.0097485,5.4003906L6.9072094,5.9082031l3.9755859,0.6625977l0.1044922-0.4594727   C11.1679516,5.3217773,11.6064281,5,12.4999828,5c0.6708984,0,1.3554688,0.1948242,1.4804688,1.5371094   c-1.015625,0.0869141-3.3476563,0.3505859-4.7001953,1.0141602C7.4091625,8.46875,6.4999828,9.9238281,6.4999828,12z    M13.9765453,9.5161133C13.7753735,11.6953125,12.3281078,12.4960938,11.9999828,12.5c-0.6640625,0-1-0.3364258-1-1   C10.9999828,9.9521484,12.8007641,9.5883789,13.9765453,9.5161133z M21.5439281,18.7036133   c-0.125-0.1694336-0.3408203-0.2436523-0.5439453-0.1831055C20.9492016,18.5351563,16.3105297,20,11.9999828,20   c-4.59375,0-9.8535156-1.5610352-11.1464844-2.8535156c-0.1914063-0.1904297-0.4980469-0.1962891-0.6943359-0.012207   c-0.1972656,0.1835938-0.2128906,0.4902344-0.0371094,0.6938477C0.3056471,18.0390625,4.7001781,23,11.9999828,23   c7.3388672,0,9.4550781-3.5698242,9.5566406-3.7216797C21.673811,19.1030273,21.6689281,18.8735352,21.5439281,18.7036133z    M21.9999828,16.5c-1.2861328,0-2.6240234,0.5117188-2.6806641,0.5336914   c-0.2167969,0.0839844-0.3476563,0.3071289-0.3144531,0.5375977s0.2216797,0.4077148,0.4541016,0.4267578   c0.9414063,0.0786133,2.0742188,0.2431641,2.4589844,0.3833008c0.0126953,0.4140625-0.1845703,1.5649414-0.4052734,2.5048828   c-0.0527344,0.2265625,0.0576172,0.4599609,0.2675781,0.5625C21.8505688,21.4833984,21.9257641,21.5,21.9999828,21.5   c0.1464844,0,0.2910156-0.0649414,0.3876953-0.1845703C22.5527172,21.1118164,23.9999828,19.2929688,23.9999828,18   C23.9999828,16.5,22.4951,16.5,21.9999828,16.5z" fill="url(#SVGID_1_)"/></g><g/><g/><g/><g/><g/><g/><g/><g/><g/><g/><g/><g/><g/><g/><g/></svg>