<?xml version="1.0" ?><svg enable-background="new 0 0 24 24" id="Layer_1" version="1.1" viewBox="0 0 24 24" xml:space="preserve" xmlns="http://www.w3.org/2000/svg" xmlns:xlink="http://www.w3.org/1999/xlink"><g><circle cx="12.0327806" cy="12.0542803" fill="#EF548A" r="11"/><path d="M12,0C5.3833008,0,0,5.3833008,0,12s5.3833008,12,12,12s12-5.3833008,12-12S18.6166992,0,12,0z    M19.8609619,5.8394775c1.3174438,1.6773071,2.1135254,3.7802734,2.1343994,6.0688477   c-2.475769-0.5689697-4.7539063-0.7077637-6.8656006-0.428833c-0.2669678-0.6221313-0.5466309-1.2406006-0.8495483-1.8532104   C16.3580322,8.7384033,18.2120361,7.5164185,19.8609619,5.8394775z M18.4806519,4.3984375   c-1.4476318,1.4990845-3.0924683,2.638916-5.1281128,3.477356c-1.0507202-1.8805542-2.2804565-3.7318115-3.7062988-5.5844116   C10.4025269,2.1079102,11.1880493,2,12,2C14.47229,2,16.7333984,2.9065552,18.4806519,4.3984375z M7.6660156,3.0018311   c1.4683228,1.8562012,2.7202148,3.6868286,3.781189,5.5375366C8.9820557,9.2626953,5.9970703,9.6650391,2.2451172,9.8256836   C2.9165649,6.812439,4.9510498,4.3150024,7.6660156,3.0018311z M2.0082397,11.836853   c3.9388428-0.1491699,7.3895874-0.5493164,10.4040527-1.5077515c0.2575684,0.5125732,0.5032349,1.02771,0.7332764,1.546814   c-3.3731689,0.9334717-6.2868652,3.081665-8.8471069,6.494751C2.8638306,16.6393433,2,14.4189453,2,12   C2,11.9449463,2.0073242,11.8917236,2.0082397,11.836853z M5.7400513,19.7865601   c2.3775635-3.2435913,5.0394287-5.2397461,8.1634521-6.0437622c0.8881226,2.3681641,1.5198975,4.8353271,1.9276733,7.491272   C14.6503296,21.7258301,13.3569336,22,12,22C9.6311646,22,7.4552612,21.1682129,5.7400513,19.7865601z M17.6873779,20.2149658   c-0.4072876-2.3736572-0.996582-4.6290894-1.7904053-6.8066406c1.8141479-0.173645,3.7740479-0.0041504,5.9136353,0.5125732   C21.3028564,16.5186768,19.7869263,18.756897,17.6873779,20.2149658z" fill="#C72263"/><path d="M12,0.25c5.3285522,0,9.8440552,3.4422607,11.4705811,8.2207642   C21.9632568,3.565979,17.3988037,0,12,0S2.0368042,3.565979,0.5294189,8.4706421C2.1559448,3.6922607,6.6713867,0.25,12,0.25z" fill="#FFFFFF" opacity="0.2"/><path d="M12,23.75c-4.7450914,0-8.8374472-2.6986141-10.8253527-6.6640053   c-0.2444347-0.4875889-0.4570514-0.9943295-0.6351512-1.5175619c0.1608156,0.5232897,0.3563147,1.0308924,0.5838224,1.5202017   C3.02824,21.1856155,7.1771917,24,12,24c4.6758442,0,8.7214317-2.6558895,10.7003746-6.5535698   c0.305975-0.6026421,0.5625458-1.234972,0.7644005-1.8917618c-0.1286106,0.3778324-0.2752476,0.7471523-0.4388905,1.1069431   C21.1199665,20.8520508,16.9072742,23.75,12,23.75z" fill="#010101" opacity="0.1"/><linearGradient gradientUnits="userSpaceOnUse" id="SVGID_1_" x1="1.1249185" x2="22.875082" y1="6.9288664" y2="17.0711346"><stop offset="0" style="stop-color:#FFFFFF;stop-opacity:0.2"/><stop offset="1" style="stop-color:#FFFFFF;stop-opacity:0"/></linearGradient><path d="M12,0C5.3833008,0,0,5.3833008,0,12s5.3833008,12,12,12s12-5.3833008,12-12S18.6166992,0,12,0z" fill="url(#SVGID_1_)"/></g><g/><g/><g/><g/><g/><g/><g/><g/><g/><g/><g/><g/><g/><g/><g/></svg>