<?xml version="1.0" ?><svg enable-background="new 0 0 24 24" id="Layer_1" version="1.1" viewBox="0 0 24 24" xml:space="preserve" xmlns="http://www.w3.org/2000/svg" xmlns:xlink="http://www.w3.org/1999/xlink"><g><circle cx="6" cy="12" fill="#21B3E8" r="5"/><circle cx="18" cy="12" fill="#EF548A" r="5"/><path d="M18,7.25c2.041626,0,3.8053036,1.196167,4.6512508,2.9151001   C21.9169979,8.3155518,20.1077881,7,18,7s-3.916997,1.3155518-4.6512499,3.1651001C14.1946974,8.446167,15.958374,7.25,18,7.25z" fill="#FFFFFF" opacity="0.2"/><path d="M18,16.75c-2.041626,0-3.8053036-1.196167-4.6512508-2.9151001   C14.0830021,15.6844482,15.8922119,17,18,17s3.916996-1.3155518,4.6512489-3.1651001   C21.8053017,15.553833,20.041626,16.75,18,16.75z" fill="#010101" opacity="0.1"/><path d="M6,7.25c2.041626,0,3.8053036,1.196167,4.6512508,2.9151001   C9.9169979,8.3155518,8.1077881,7,6,7s-3.9169965,1.3155518-4.6512494,3.1651001C2.1946979,8.446167,3.958374,7.25,6,7.25z" fill="#FFFFFF" opacity="0.2"/><path d="M6,16.75c-2.041626,0-3.8053031-1.196167-4.6512504-2.9151001   C2.0830026,15.6844482,3.8922119,17,6,17s3.916997-1.3155518,4.6512499-3.1651001C9.8053026,15.553833,8.041626,16.75,6,16.75z" fill="#010101" opacity="0.1"/><linearGradient gradientUnits="userSpaceOnUse" id="SVGID_1_" x1="2.5403898" x2="21.45961" y1="7.5889111" y2="16.4110889"><stop offset="0" style="stop-color:#FFFFFF;stop-opacity:0.2"/><stop offset="1" style="stop-color:#FFFFFF;stop-opacity:0"/></linearGradient><path d="M6,7c-2.7568359,0-5,2.2431641-5,5s2.2431641,5,5,5s5-2.2431641,5-5S8.7568359,7,6,7z M18,7   c-2.7568359,0-5,2.2431641-5,5s2.2431641,5,5,5s5-2.2431641,5-5S20.7568359,7,18,7z" fill="url(#SVGID_1_)"/></g><g/><g/><g/><g/><g/><g/><g/><g/><g/><g/><g/><g/><g/><g/><g/></svg>