<?xml version="1.0" ?><svg enable-background="new 0 0 24 24" id="Layer_1" version="1.1" viewBox="0 0 24 24" xml:space="preserve" xmlns="http://www.w3.org/2000/svg" xmlns:xlink="http://www.w3.org/1999/xlink"><g><path d="M12-0.0000205c-6.6166992,0-12,5.3833008-12,12c0,5.7382813,3.949707,10.7802734,9.3916016,11.9882813   c0.1474609,0.0327148,0.3027344-0.003418,0.4213867-0.0981445C9.9311523,23.7949009,10,23.6518345,10,23.499979v-3   c0-0.2763672-0.2236328-0.5-0.5-0.5h-1c-1.1850586,0-2.2431641-1.4619141-3.09375-2.6362305   c-0.0839844-0.1162109-0.1669922-0.2304688-0.2490234-0.3422852c0.3491211,0.1635742,0.6899414,0.3344727,0.9731445,0.4765625   c0.8203125,0.4111328,1.5952148,0.7998047,2.2290039,0.9814453c0.027832,0.0092773,0.0620117,0.0258789,0.1000977,0.0429688   c0.2441406,0.1098633,0.6977539,0.3139648,1.1044922,0.0493164C10,18.2895298,10,17.6952915,10,17.499979v-0.3486328   c0-0.2236328-0.1484375-0.4199219-0.3637695-0.480957C6.8632813,15.8847446,5,13.8071079,5,11.499979   c0-1.199707,0.4926758-2.3452148,1.425293-3.3120117c0.1435547-0.1489258,0.1806641-0.3701167,0.09375-0.5576167   c-0.3720703-0.8022461-0.293457-1.8935547,0.1484375-2.5488281c0.5834961,0.2275391,1.340332,0.7045898,1.8320313,1.2885742   c0.1352539,0.1601563,0.3574219,0.2202148,0.5541992,0.1474609c1.875-0.6875,4.0175781-0.6875,5.8925781,0   c0.1987305,0.0737305,0.4199219,0.0131836,0.5541992-0.1474609c0.4916992-0.5839844,1.2485352-1.0610352,1.8320313-1.2885742   c0.4418945,0.6552734,0.5205078,1.746582,0.1484375,2.5488281c-0.0869141,0.1875-0.0498047,0.4086909,0.09375,0.5576167   C18.5073242,9.1547642,19,10.300272,19,11.499979c0,2.421875-2.0698242,4.5908203-5.0332031,5.2739258   c-0.1513672,0.0351563-0.277832,0.1381836-0.3422852,0.2792969s-0.0600586,0.3041992,0.0126953,0.4414063   C13.8847656,17.9633579,14,18.600565,14,19.499979v4c0,0.1518555,0.0688477,0.2949219,0.1870117,0.3901367   C14.2768555,23.9618931,14.387207,23.999979,14.5,23.999979c0.0361328,0,0.0722656-0.0039063,0.1083984-0.0117188   C20.050293,22.7802525,24,17.7382603,24,11.999979C24,5.3832803,18.6166992-0.0000205,12-0.0000205z" fill="#303C42"/><path d="M9.6362305,16.9203491C9.8515625,16.9813843,10,17.1776733,10,17.4013062v-0.25   c0-0.2236328-0.1484375-0.4199219-0.3637695-0.480957C6.914856,15.899292,5.0803833,13.8822632,5.0126953,11.626709   C5.0115356,11.6682129,5,11.708313,5,11.749939C5,14.0570679,6.8632813,16.1347046,9.6362305,16.9203491z" fill="#FFFFFF" opacity="0.2"/><path d="M13.9667969,17.0238647C16.9301758,16.3407593,19,14.171814,19,11.749939   c0-0.0427856-0.0117798-0.0840454-0.0130615-0.126709c-0.0698242,2.3711548-2.1078491,4.4793091-5.0201416,5.1506348   c-0.1513672,0.0351563-0.277832,0.1381836-0.3422852,0.2792969c-0.0482178,0.1055298-0.045105,0.2207642-0.0164185,0.3309326   c0.0072021-0.0268555,0.0046997-0.0552368,0.0164185-0.0809326C13.6889648,17.1620483,13.8154297,17.059021,13.9667969,17.0238647z   " fill="#FFFFFF" opacity="0.2"/><path d="M12-0.000061c-6.6166992,0-12,5.3833008-12,12   c0,0.0455322,0.0053101,0.0900269,0.0057983,0.135437C0.0681763,5.5718384,5.421936,0.249939,12,0.249939   s11.9318237,5.3218994,11.9942017,11.885437C23.9946899,12.0899658,24,12.0454712,24,11.999939   C24,5.3832397,18.6166992-0.000061,12-0.000061z" fill="#FFFFFF" opacity="0.2"/><path d="M9.3916016,23.9882603c0.1474609,0.0327148,0.3027344-0.003418,0.4213867-0.0981445   C9.9311523,23.7949009,10,23.6518345,10,23.499979v-0.25c0,0.1518555-0.0688477,0.2949219-0.1870117,0.3901367   c-0.1186523,0.0947266-0.2739258,0.1308594-0.4213867,0.0981445C3.9928589,22.539835,0.0678101,17.5669956,0.0057983,11.885416   C0.0054321,11.9239902,0,11.9613438,0,11.999979C0,17.7382603,3.949707,22.7802525,9.3916016,23.9882603z" fill="#010101" opacity="0.1"/><path d="M14.6083984,23.7382603C14.5722656,23.7460728,14.5361328,23.749979,14.5,23.749979   c-0.112793,0-0.2231445-0.0380859-0.3129883-0.1098633C14.0688477,23.5449009,14,23.4018345,14,23.249979v0.25   c0,0.1518555,0.0688477,0.2949219,0.1870117,0.3901367C14.2768555,23.9618931,14.387207,23.999979,14.5,23.999979   c0.0361328,0,0.0722656-0.0039063,0.1083984-0.0117188C20.050293,22.7802525,24,17.7382603,24,11.999979   c0-0.0386353-0.0054321-0.0759888-0.0057983-0.114563C23.9321899,17.5669956,20.0071411,22.539835,14.6083984,23.7382603z" fill="#010101" opacity="0.1"/><path d="M17.3325195,4.8344231c-0.5834961,0.2275391-1.340332,0.7045898-1.8320313,1.2885742   c-0.1342773,0.1606445-0.3554688,0.2211914-0.5541992,0.1474609c-1.875-0.6875-4.0175781-0.6875-5.8925781,0   C8.8569336,6.3432121,8.6347656,6.2831535,8.4995117,6.1229973C8.0078125,5.5390129,7.2509766,5.0619621,6.6674805,4.8344231   C6.4152222,5.2085075,6.2971802,5.7245598,6.2979736,6.2479973c0.0354004-0.434082,0.1578979-0.8497925,0.3695068-1.1635742   c0.5834961,0.2275391,1.340332,0.7045898,1.8320313,1.2885742c0.1352539,0.1601563,0.3574219,0.2202148,0.5541992,0.1474609   c1.875-0.6875,4.0175781-0.6875,5.8925781,0c0.1987305,0.0737305,0.4199219,0.0131836,0.5541992-0.1474609   c0.4916992-0.5839844,1.2485352-1.0610352,1.8320313-1.2885742c0.2116089,0.3137817,0.3341064,0.7294922,0.3695068,1.1635742   C17.7028198,5.7245598,17.5847778,5.2085075,17.3325195,4.8344231z" fill="#010101" opacity="0.1"/><linearGradient gradientUnits="userSpaceOnUse" id="SVGID_1_" x1="1.0743355" x2="22.8645897" y1="7.0373211" y2="17.1982841"><stop offset="0" style="stop-color:#FFFFFF;stop-opacity:0.2"/><stop offset="1" style="stop-color:#FFFFFF;stop-opacity:0"/></linearGradient><path d="M12-0.0000205c-6.6166992,0-12,5.3833008-12,12   c0,5.7382813,3.949707,10.7802734,9.3916016,11.9882813c0.1474609,0.0327148,0.3027344-0.003418,0.4213867-0.0981445   C9.9311523,23.7949009,10,23.6518345,10,23.499979v-3c0-0.2763672-0.2236328-0.5-0.5-0.5h-1   c-1.1850586,0-2.2431641-1.4619141-3.09375-2.6362305c-0.0839844-0.1162109-0.1669922-0.2304688-0.2490234-0.3422852   c0.3491211,0.1635742,0.6899414,0.3344727,0.9731445,0.4765625c0.8203125,0.4111328,1.5952148,0.7998047,2.2290039,0.9814453   c0.027832,0.0092773,0.0620117,0.0258789,0.1000977,0.0429688c0.2441406,0.1098633,0.6977539,0.3139648,1.1044922,0.0493164   C10,18.2895298,10,17.6952915,10,17.499979v-0.3486328c0-0.2236328-0.1484375-0.4199219-0.3637695-0.480957   C6.8632813,15.8847446,5,13.8071079,5,11.499979c0-1.199707,0.4926758-2.3452148,1.425293-3.3120117   c0.1435547-0.1489258,0.1806641-0.3701167,0.09375-0.5576167c-0.3720703-0.8022461-0.293457-1.8935547,0.1484375-2.5488281   c0.5834961,0.2275391,1.340332,0.7045898,1.8320313,1.2885742c0.1352539,0.1601563,0.3574219,0.2202148,0.5541992,0.1474609   c1.875-0.6875,4.0175781-0.6875,5.8925781,0c0.1987305,0.0737305,0.4199219,0.0131836,0.5541992-0.1474609   c0.4916992-0.5839844,1.2485352-1.0610352,1.8320313-1.2885742c0.4418945,0.6552734,0.5205078,1.746582,0.1484375,2.5488281   c-0.0869141,0.1875-0.0498047,0.4086909,0.09375,0.5576167C18.5073242,9.1547642,19,10.300272,19,11.499979   c0,2.421875-2.0698242,4.5908203-5.0332031,5.2739258c-0.1513672,0.0351563-0.277832,0.1381836-0.3422852,0.2792969   s-0.0600586,0.3041992,0.0126953,0.4414063C13.8847656,17.9633579,14,18.600565,14,19.499979v4   c0,0.1518555,0.0688477,0.2949219,0.1870117,0.3901367C14.2768555,23.9618931,14.387207,23.999979,14.5,23.999979   c0.0361328,0,0.0722656-0.0039063,0.1083984-0.0117188C20.050293,22.7802525,24,17.7382603,24,11.999979   C24,5.3832803,18.6166992-0.0000205,12-0.0000205z" fill="url(#SVGID_1_)"/></g><g/><g/><g/><g/><g/><g/><g/><g/><g/><g/><g/><g/><g/><g/><g/></svg>