<?xml version="1.0" ?><svg enable-background="new 0 0 24 24" id="Layer_1" version="1.1" viewBox="0 0 24 24" xml:space="preserve" xmlns="http://www.w3.org/2000/svg" xmlns:xlink="http://www.w3.org/1999/xlink"><g><path d="M12,20C6.4771523,20,2,15.5228472,2,10S6.4771523,0,12,0s10,4.4771523,10,10c0,8-5.4998913,14-10,14V20z" fill="#2F9E48"/><path d="M12,0C6.4771729,0,2,4.4771118,2,10c0,0.0421753,0.0057373,0.0829468,0.0062866,0.125   C2.0739136,4.6603394,6.5193481,0.25,12,0.25c5.4841919,0,9.9321899,4.4160767,9.9942017,9.8856201   C21.9945679,10.0897827,22,10.0459595,22,10C22,4.4771118,17.5228271,0,12,0z" fill="#FFFFFF" opacity="0.2"/><path d="M12,23.75V24c4.5001221,0,10-6,10-14c0-0.0386353-0.0053711-0.0758667-0.0057983-0.1143799   C21.9315796,17.8166504,16.4743042,23.75,12,23.75z" fill="#010101" opacity="0.1"/><path d="M12,20v-0.25c-5.4806519,0-9.9260864-4.4104004-9.9937134-9.875   C2.0057373,9.9170532,2,9.9578247,2,10C2,15.5228271,6.4771729,20,12,20z" fill="#010101" opacity="0.1"/><path d="M14.5000029,13H14.5l0.0001211-2H13V7h4v3.5000029C17,11.8807135,15.8807135,13,14.5000029,13z" fill="#FFFFFF"/><rect fill="#71CACB" height="1.75" width="0" x="14.500061" y="11.25"/><rect fill="#FFFFFF" height="0.25" opacity="0.2" width="4" x="13" y="7"/><rect fill="#010101" height="0.25" opacity="0.1" width="1.5001221" x="13" y="10.75"/><path d="M14.5,12.75V13c1.3807373,0,2.5-1.1193237,2.5-2.5v-0.25   C17,11.6306763,15.8807373,12.75,14.5,12.75z" fill="#010101" opacity="0.1"/><path d="M8.5000029,13H8.5l0.0001211-2H7V7h4v3.5000029C11,11.8807135,9.8807135,13,8.5000029,13z" fill="#FFFFFF"/><rect fill="#FFFFFF" height="0.25" opacity="0.2" width="4" x="7" y="7"/><rect fill="#010101" height="0.25" opacity="0.1" width="1.5001221" x="7" y="10.75"/><path d="M8.5,12.75V13c1.3807373,0,2.5-1.1193237,2.5-2.5v-0.25   C11,11.6306763,9.8807373,12.75,8.5,12.75z" fill="#010101" opacity="0.1"/><linearGradient gradientUnits="userSpaceOnUse" id="SVGID_1_" x1="10.375" x2="20.7947292" y1="7.625" y2="18.0447292"><stop offset="0" style="stop-color:#010101;stop-opacity:0.1"/><stop offset="1" style="stop-color:#010101;stop-opacity:0"/></linearGradient><path d="M7,11l1.5,1.5V13l0.0001221-2H7z M17,7v3.5c0,1.3806763-1.1192627,2.5-2.5,2.5l0.0001221-2H13V9   l-2-2v3.5c0,1.3806763-1.1192627,2.5-2.5,2.5l8.6607056,8.6607056c2.3521729-2.1455078,4.2661743-5.6206055,4.723999-9.776001L17,7   z" fill="url(#SVGID_1_)"/><linearGradient gradientUnits="userSpaceOnUse" id="SVGID_2_" x1="2.3671994" x2="21.0905704" y1="6.9899449" y2="15.7207966"><stop offset="0" style="stop-color:#FFFFFF;stop-opacity:0.2"/><stop offset="1" style="stop-color:#FFFFFF;stop-opacity:0"/></linearGradient><path d="M12,20C6.4771523,20,2,15.5228472,2,10S6.4771523,0,12,0s10,4.4771523,10,10c0,8-5.4998913,14-10,14   V20z" fill="url(#SVGID_2_)"/></g><g/><g/><g/><g/><g/><g/><g/><g/><g/><g/><g/><g/><g/><g/><g/></svg>