<?xml version="1.0" ?><svg enable-background="new 0 0 24 24" id="Layer_1" version="1.1" viewBox="0 0 24 24" xml:space="preserve" xmlns="http://www.w3.org/2000/svg" xmlns:xlink="http://www.w3.org/1999/xlink"><g><path d="M17,22H7c-2.7614236,0-5-2.2385769-5-5V7c0-2.7614236,2.2385764-5,5-5h10c2.7614231,0,5,2.2385764,5,5v10   C22,19.7614231,19.7614231,22,17,22z" fill="#FFFFFF"/><radialGradient cx="2.4583333" cy="22.208334" gradientUnits="userSpaceOnUse" id="SVGID_1_" r="26.8152752"><stop offset="0" style="stop-color:#FFD35A"/><stop offset="0.2548544" style="stop-color:#F7964C"/><stop offset="0.5995145" style="stop-color:#F05B70"/><stop offset="0.7174556" style="stop-color:#BD6186"/><stop offset="0.8532288" style="stop-color:#85659B"/><stop offset="0.9509482" style="stop-color:#5C66A9"/><stop offset="1" style="stop-color:#4766B0"/></radialGradient><path d="M17.0219727,1H6.9780273C3.6816406,1,1,3.6816406,1,6.9780273v10.0439453   C1,20.3183594,3.6816406,23,6.9780273,23h10.0439453C20.3183594,23,23,20.3183594,23,17.0219727V6.9780273   C23,3.6816406,20.3183594,1,17.0219727,1z M21,17.0219727C21,19.215332,19.215332,21,17.0219727,21H6.9780273   C4.784668,21,3,19.215332,3,17.0219727V6.9780273C3,4.784668,4.784668,3,6.9780273,3h10.0439453   C19.215332,3,21,4.784668,21,6.9780273V17.0219727z M12,6c-3.3085938,0-6,2.6914063-6,6s2.6914063,6,6,6s6-2.6914063,6-6   S15.3085938,6,12,6z M12,16c-2.2055664,0-4-1.7944336-4-4s1.7944336-4,4-4s4,1.7944336,4,4S14.2055664,16,12,16z M18,5   c-0.5512695,0-1,0.4487305-1,1s0.4487305,1,1,1s1-0.4487305,1-1S18.5512695,5,18,5z" fill="url(#SVGID_1_)"/><linearGradient gradientUnits="userSpaceOnUse" id="SVGID_2_" x1="0.5337821" x2="23.466217" y1="6.6532149" y2="17.3467846"><stop offset="0" style="stop-color:#FFFFFF;stop-opacity:0.2"/><stop offset="1" style="stop-color:#FFFFFF;stop-opacity:0"/></linearGradient><path d="M17.0219727,1H6.9780273C3.6816406,1,1,3.6816406,1,6.9780273v10.0439453   C1,20.3183594,3.6816406,23,6.9780273,23h10.0439453C20.3183594,23,23,20.3183594,23,17.0219727V6.9780273   C23,3.6816406,20.3183594,1,17.0219727,1z" fill="url(#SVGID_2_)"/></g><g/><g/><g/><g/><g/><g/><g/><g/><g/><g/><g/><g/><g/><g/><g/></svg>