<?xml version="1.0" ?><svg enable-background="new 0 0 24 24" id="Layer_1" version="1.1" viewBox="0 0 24 24" xml:space="preserve" xmlns="http://www.w3.org/2000/svg" xmlns:xlink="http://www.w3.org/1999/xlink"><g><linearGradient gradientUnits="userSpaceOnUse" id="XMLID_22_" x1="6.1438036" x2="17.6796341" y1="1.8567702" y2="21.8374157"><stop offset="0.0028864" style="stop-color:#EC5438"/><stop offset="0.3079062" style="stop-color:#F16B94"/><stop offset="0.6296292" style="stop-color:#9F3E97"/><stop offset="0.7594132" style="stop-color:#8679B8"/><stop offset="0.8757026" style="stop-color:#639FD5"/><stop offset="0.9584637" style="stop-color:#3BB5E8"/><stop offset="1" style="stop-color:#19BEF0"/></linearGradient><circle cx="12" cy="12" fill="url(#XMLID_22_)" id="XMLID_1497_" r="12"/><path d="M12,1C5.9248657,1,1,5.9248657,1,12s4.9248657,11,11,11s11-4.9248657,11-11S18.0751343,1,12,1z    M17,13.4550781c0,0.0097656,0,0.0195313,0,0.0292969c0,0.0048828,0,0.0107422,0,0.015625v2.4550781   c0,0.8515625-0.609375,1.5703125-1.4482422,1.7089844l-0.5341797,0.0888672   c-0.5048828,0.0810547-1.0161133-0.0585938-1.4052734-0.3876953S13,16.5537109,13,16.0439453   c0-0.8505859,0.6088867-1.5693359,1.4477539-1.7099609l0.9399414-0.15625C15.7426758,14.1191406,16,13.8144531,16,13.4550781   V8.5757446l-6,0.8579712v5.0213623c0,0.0097656,0,0.0195313-0.0004883,0.0302734C10,14.4902344,10,14.4960938,10,14.5009766   v2.4541016c0,0.8505859-0.6088867,1.5693359-1.4477539,1.7099609l-0.534668,0.0888672   c-0.0952148,0.015625-0.190918,0.0234375-0.2856445,0.0234375c-0.4072266,0-0.8037109-0.1435547-1.1196289-0.4111328   C6.2231445,18.0371094,6,17.5546875,6,17.0449219c0-0.8505859,0.6088867-1.5693359,1.4477539-1.7099609l0.9399414-0.15625   C8.7421875,15.1191406,9,14.8144531,9,14.4550781V6.5c0-0.2490234,0.1831055-0.4599609,0.4291992-0.4951172l7-1.0009766   c0.144043-0.0175781,0.2890625,0.0224609,0.3984375,0.1171875S17,5.3544922,17,5.4990234V13.4550781z" fill="#FAFAFA"/><path d="M12,1.25c3.5326538,0,6.683588,1.5824492,8.7699528,4.1091213   C18.7622013,2.6990874,15.5895386,1,12,1S5.2377982,2.6990874,3.2300467,5.3591213C5.3164115,2.8324492,8.4673462,1.25,12,1.25z" fill="#FFFFFF" opacity="0.2"/><path d="M12,22.75c-3.5326538,0-6.6835885-1.582449-8.7699528-4.1091213   c0.1426406,0.188982,0.2911608,0.3731136,0.4452927,0.5521297C5.6907053,21.5337601,8.6654797,23,12,23   c3.3393402,0,6.317894-1.4704819,8.333395-3.8171463c0.1510086-0.1758232,0.2966137-0.3565655,0.4365578-0.541975   C18.683588,21.167551,15.5326538,22.75,12,22.75z" fill="#010101" opacity="0.1"/><path d="M12,0.25c5.3213501,0,9.8378563,3.4220867,11.4659691,8.1991863   C21.95718,3.5462322,17.3914795,0,12,0S2.0428202,3.5462322,0.534031,8.4491863C2.1621439,3.6720867,6.6786499,0.25,12,0.25z" fill="#FFFFFF" opacity="0.2"/><path d="M12,23.75c-4.9705777,0-9.2389212-2.9858017-11.1069479-7.2727509   c-0.1318263-0.3025303-0.2516987-0.6115389-0.3590207-0.9264355c0.120821,0.3926191,0.2612445,0.7765388,0.4201247,1.1506329   C2.779341,20.9989796,7.0402603,24,12,24c4.5497475,0,8.5114346-2.5253754,10.54426-6.2603397   c0.2081795-0.3824921,0.3961315-0.7776718,0.5624123-1.184124c0.1341133-0.3278217,0.2541313-0.6629763,0.3592968-1.0047226   c-0.2567768,0.7534199-0.5854015,1.473135-0.9776974,2.1510353C20.3931961,21.3222198,16.4820938,23.75,12,23.75z" fill="#010101" opacity="0.1"/><path d="M7.4477539,15.5849609l0.9399414-0.15625C8.7421875,15.3691406,9,15.0644531,9,14.7050781   v-0.25c0,0.359375-0.2578125,0.6640625-0.6123047,0.7236328l-0.9399414,0.15625C6.6088867,15.4755859,6,16.1943359,6,17.0449219   c0,0.038208,0.0097656,0.074646,0.0122681,0.1124878C6.074585,16.3687744,6.6551514,15.7178345,7.4477539,15.5849609z" fill="#010101" opacity="0.1"/><path d="M10,14.7509766v-0.0458984c0,0.0097656,0,0.0195313-0.0004883,0.0302734   C10,14.7402344,10,14.7460938,10,14.7509766z" fill="#010101" opacity="0.1"/><path d="M16.8276367,5.1210938c-0.109375-0.0947266-0.2543945-0.1347656-0.3984375-0.1171875   l-7,1.0009766C9.1831055,6.0400391,9,6.2509766,9,6.5v0.25c0-0.2490234,0.1831055-0.4599609,0.4291992-0.4951172l7-1.0009766   c0.144043-0.0175781,0.2890625,0.0224609,0.3984375,0.1171875S17,5.6044922,17,5.7490234v-0.25   C17,5.3544922,16.9370117,5.2158203,16.8276367,5.1210938z" fill="#010101" opacity="0.1"/><path d="M14.4477539,14.5839844l0.9399414-0.15625   C15.7426758,14.3691406,16,14.0644531,16,13.7050781v-0.25c0,0.359375-0.2573242,0.6640625-0.6123047,0.7226563l-0.9399414,0.15625   C13.6088867,14.4746094,13,15.1933594,13,16.0439453c0,0.038208,0.0097656,0.074646,0.0122681,0.1124878   C13.074585,15.3677979,13.6551514,14.7168579,14.4477539,14.5839844z" fill="#010101" opacity="0.1"/><linearGradient gradientUnits="userSpaceOnUse" id="XMLID_23_" x1="1.1217111" x2="22.8782883" y1="6.9273705" y2="17.0726299"><stop offset="0" style="stop-color:#FFFFFF;stop-opacity:0.2"/><stop offset="1" style="stop-color:#FFFFFF;stop-opacity:0"/></linearGradient><circle cx="12" cy="12" fill="url(#XMLID_23_)" id="XMLID_1023_" r="12"/></g><g/><g/><g/><g/><g/><g/><g/><g/><g/><g/><g/><g/><g/><g/><g/></svg>