<?xml version="1.0" ?><svg enable-background="new 0 0 24 24" id="Layer_1" version="1.1" viewBox="0 0 24 24" xml:space="preserve" xmlns="http://www.w3.org/2000/svg" xmlns:xlink="http://www.w3.org/1999/xlink"><g><path d="M12.5273438,0C4.7568359,0,2,4.5810547,2,8.5039063c0,2.9941406,2.3466797,5.7231445,3.6054688,6.3466797   c0.1318359,0.065918,0.2871094,0.0698242,0.4208984,0.0107422C6.1611328,14.8027344,6.2636719,14.6875,6.3056641,14.546875   l0.828125-2.7460938c0.0527344-0.1728516,0.0078125-0.3603516-0.1171875-0.4902344C6.7382813,11.0200195,6,10.2485352,6,8.9931641   c0-3.4389648,2.4082031-5.4921875,6.4423828-5.4921875C15.5585938,3.5009766,18,5.6938477,18,8.4931641   c0,2.5761719-2.0712891,5.5131836-3.8886719,5.5131836c-2.1142578,0-2.1386719-1.9194336-2.140625-1.9916992   c1.1884766-1.1269531,1.5849609-3.5097656,1.5849609-4.046875c0.0009766-0.3164063,0.0029297-0.9052734-0.4746094-1.3588867   c-0.4238281-0.4023438-1.1425781-0.605957-2.1367188-0.605957c-2.4775391,0-3.1386719,1.8862305-3.1386719,3.0009766   c0,0.8417969,0.5068283,1.9619141,0.5292969,1.9916992L5.8740234,21.1625977   c-0.0273438,0.1455078-0.2402344,1.4589844,0.7392578,2.6542969C6.7109375,23.9370117,6.8544922,24,7,24   c0.0957031,0,0.1923828-0.0273438,0.2773438-0.0839844c0.4736328-0.315918,1.3261719-0.9638672,1.7099609-1.7548828   c0.4453125-0.9204102,1.7080078-4.1879883,2.4208984-6.0537109l0.0898438-0.0942383   c0.0117188,0.0097656,1.2373047,0.9941406,3.140625,0.9941406C20.0722656,17.0073242,22,12.4267578,22,8.5039063   C22,5.3452148,20.0048828,0,12.5273438,0z" fill="#DA1F32"/><path d="M14.1113281,14.2563477C15.9287109,14.2563477,18,11.3193359,18,8.7431641   c0-0.039856-0.0054321-0.0783691-0.0064087-0.117981c-0.0684814,2.5435791-2.0957031,5.3811646-3.8822632,5.3811646   c-1.7172852,0-2.0510254-1.2529297-2.1186523-1.7672119c-0.0078735,0.0076904-0.0139771,0.0179443-0.0219727,0.0255127   C11.9726563,12.3369141,11.9970703,14.2563477,14.1113281,14.2563477z" fill="#FFFFFF" opacity="0.2"/><path d="M10.9443359,6.2529297c0.9941406,0,1.7128906,0.2036133,2.1367188,0.605957   c0.3986206,0.3786011,0.4603882,0.8424072,0.4702759,1.1723633c0.0006104-0.0180054,0.0043335-0.0483398,0.0043335-0.0634766   c0.0009766-0.3164063,0.0029297-0.9052734-0.4746094-1.3588867c-0.4238281-0.4023438-1.1425781-0.605957-2.1367188-0.605957   c-2.4775391,0-3.1386719,1.8862305-3.1386719,3.0009766c0,0.0423584,0.0063477,0.0877075,0.0087891,0.1312866   C7.8579712,8.0108032,8.5487061,6.2529297,10.9443359,6.2529297z" fill="#FFFFFF" opacity="0.2"/><path d="M12.5273438,0.25c7.394043,0,9.4238281,5.2230835,9.4683228,8.3938599   C21.9962158,8.5974121,22,8.5501709,22,8.5039063C22,5.3452148,20.0048828,0,12.5273438,0C4.7568359,0,2,4.5810547,2,8.5039063   c0,0.0272217,0.0071411,0.0532837,0.0075073,0.0804443C2.0855713,4.7000122,4.8678589,0.25,12.5273438,0.25z" fill="#FFFFFF" opacity="0.2"/><path d="M6.3056641,14.2998161c-0.0419922,0.140625-0.1445313,0.2558594-0.2792969,0.3144531   c-0.1337891,0.059082-0.2890625,0.0551758-0.4208984-0.0107422c-1.2473755-0.6178589-3.5559692-3.3042603-3.5979614-6.2662354   C2.0063477,8.3935661,2,8.4508171,2,8.5068474c0,2.9941406,2.3466797,5.7231445,3.6054688,6.3466797   c0.1318359,0.065918,0.2871094,0.0698242,0.4208984,0.0107422c0.1347656-0.0585938,0.2373047-0.1738281,0.2792969-0.3144531   l0.828125-2.7460938c0.0278931-0.0914917,0.0249023-0.1856689,0.0007324-0.2745972   c-0.0020752,0.0081787,0.00177,0.0164795-0.0007324,0.0245972L6.3056641,14.2998161z" fill="#010101" opacity="0.1"/><path d="M14.6386719,16.7573242c-1.9033203,0-3.1289063-0.984375-3.140625-0.9941406   l-0.0898438,0.0942383c-0.7128906,1.8657227-1.9755859,5.1333008-2.4208984,6.0537109   c-0.3837891,0.7910156-1.2363281,1.4389648-1.7099609,1.7548828C7.1923828,23.7226563,7.0957031,23.75,7,23.75   c-0.1455078,0-0.2890625-0.0629883-0.3867188-0.1831055c-0.6031494-0.7360229-0.7529297-1.5148315-0.7735596-2.0402222   c-0.0182495,0.5006714,0.0634155,1.423584,0.7735596,2.2902222C6.7109375,23.9370117,6.8544922,24,7,24   c0.0957031,0,0.1923828-0.0273438,0.2773438-0.0839844c0.4736328-0.315918,1.3261719-0.9638672,1.7099609-1.7548828   c0.4453125-0.9204102,1.7080078-4.1879883,2.4208984-6.0537109l0.0898438-0.0942383   c0.0117188,0.0097656,1.2373047,0.9941406,3.140625,0.9941406C20.0722656,17.0073242,22,12.4267578,22,8.5039063   c0-0.0352783-0.0038452-0.0742188-0.0043335-0.1100464C21.9505615,12.2850342,20.0081787,16.7573242,14.6386719,16.7573242z" fill="#010101" opacity="0.1"/><linearGradient gradientUnits="userSpaceOnUse" id="SVGID_1_" x1="1.5770199" x2="19.6651821" y1="7.5694017" y2="16.0040512"><stop offset="0" style="stop-color:#FFFFFF;stop-opacity:0.2"/><stop offset="1" style="stop-color:#FFFFFF;stop-opacity:0"/></linearGradient><path d="M12.5273438,0C4.7568359,0,2,4.5810547,2,8.5039063   c0,2.9941406,2.3466797,5.7231445,3.6054688,6.3466797c0.1318359,0.065918,0.2871094,0.0698242,0.4208984,0.0107422   C6.1611328,14.8027344,6.2636719,14.6875,6.3056641,14.546875l0.828125-2.7460938   c0.0527344-0.1728516,0.0078125-0.3603516-0.1171875-0.4902344C6.7382813,11.0200195,6,10.2485352,6,8.9931641   c0-3.4389648,2.4082031-5.4921875,6.4423828-5.4921875C15.5585938,3.5009766,18,5.6938477,18,8.4931641   c0,2.5761719-2.0712891,5.5131836-3.8886719,5.5131836c-2.1142578,0-2.1386719-1.9194336-2.140625-1.9916992   c1.1884766-1.1269531,1.5849609-3.5097656,1.5849609-4.046875c0.0009766-0.3164063,0.0029297-0.9052734-0.4746094-1.3588867   c-0.4238281-0.4023438-1.1425781-0.605957-2.1367188-0.605957c-2.4775391,0-3.1386719,1.8862305-3.1386719,3.0009766   c0,0.8417969,0.5068283,1.9619141,0.5292969,1.9916992L5.8740234,21.1625977   c-0.0273438,0.1455078-0.2402344,1.4589844,0.7392578,2.6542969C6.7109375,23.9370117,6.8544922,24,7,24   c0.0957031,0,0.1923828-0.0273438,0.2773438-0.0839844c0.4736328-0.315918,1.3261719-0.9638672,1.7099609-1.7548828   c0.4453125-0.9204102,1.7080078-4.1879883,2.4208984-6.0537109l0.0898438-0.0942383   c0.0117188,0.0097656,1.2373047,0.9941406,3.140625,0.9941406C20.0722656,17.0073242,22,12.4267578,22,8.5039063   C22,5.3452148,20.0048828,0,12.5273438,0z" fill="url(#SVGID_1_)"/></g><g/><g/><g/><g/><g/><g/><g/><g/><g/><g/><g/><g/><g/><g/><g/></svg>