<?xml version="1.0" ?><svg enable-background="new 0 0 24 24" id="Layer_1" version="1.1" viewBox="0 0 24 24" xml:space="preserve" xmlns="http://www.w3.org/2000/svg" xmlns:xlink="http://www.w3.org/1999/xlink"><g><path d="M23.597662,17.5161133c-2.3516808-0.6123047-4.1509991-2.0268555-5.0647831-3.9716797   c0-0.0009766,0.0019474-0.0053711,0.0058441-0.0087891l2.1899662-1.7070313   c0.4987831-0.3896484,0.6994648-1.0556641,0.4997578-1.6572266c-0.2367268-0.7084961-0.9634686-1.1347656-1.6960545-0.9990234   l-1.5314178,0.2744141c0.4208469-2.5678711-0.0808582-4.847168-1.4115925-6.418457C15.4817343,1.7202148,13.8509502,1,12,1   c-1.8519239,0-3.482708,0.7207031-4.5903554,2.0292969C6.0779347,4.6015625,5.5772042,6.8823242,6.0048709,9.4658203   C5.3502192,9.3476563,4.4773502,9.1821289,4.4773502,9.1821289c-0.74038-0.1469727-1.4690697,0.2788086-1.7067707,0.9916992   c-0.1997077,0.6000977,0.0009742,1.2641602,0.4997566,1.6523438l2.1987333,1.706543   c-0.9157329,1.956543-2.7150509,3.3710938-5.0667315,3.9833984L0,17.6210938l0.0301997,0.4160156   c0.0311739,0.4135742,0.1870434,0.7431641,0.4627375,0.9790039c0.5669751,0.484375,1.4505601,0.4067383,2.2289333,0.340332   c0.3273258-0.0283203,0.819289-0.0727539,0.9079397-0.0439453c0.3789575,0.4750977,0.3896735,1.1826172,0.3896735,1.1875V21   h2.4939113c0.5494399,0,1.2489042,0.387207,1.9902587,0.796875C9.5226498,22.3608398,10.6780319,23,12,23   s2.4773502-0.6391602,3.4963465-1.203125C16.2377014,21.387207,16.9371643,21,17.4866047,21l2.490015-0.0019531   l0.0038967-0.4960938c0-0.0068359,0.0107155-0.7143555,0.3487587-1.1533203   c0.1285915-0.0634766,0.6225033-0.0200195,0.9488544,0.0078125c0.7773991,0.0664063,1.6619587,0.144043,2.2289333-0.340332   c0.2756939-0.2358398,0.4315643-0.5654297,0.462738-0.9790039L24,17.6210938L23.597662,17.5161133z" fill="#FCEE23"/><path d="M16.5893555,3.0283203C15.4817505,1.7202148,13.8509521,1,12,1   c-1.8519287,0-3.4827271,0.7207031-4.590332,2.0292969c-1.027832,1.213501-1.5545044,2.8516235-1.5475464,4.7225952   C5.9014282,5.9849243,6.4277344,4.4385986,7.409668,3.2792969C8.5172729,1.9707031,10.1480713,1.25,12,1.25   c1.8509521,0,3.4817505,0.7202148,4.5893555,2.0283203c0.9820557,1.1595459,1.5089111,2.7063599,1.550415,4.4684448   C18.1444092,5.8812256,17.6174316,4.2421875,16.5893555,3.0283203z" fill="#FFFFFF" opacity="0.2"/><path d="M2.7705688,10.1738281c-0.0648804,0.1950073-0.0731812,0.3945313-0.0570068,0.5913696   c0.0100098-0.1143799,0.0197144-0.229248,0.0570068-0.3413696C3.0083008,9.7109375,3.7369995,9.2851563,4.477356,9.4321289   c0,0,0.8728638,0.1655273,1.5275269,0.2836914C5.9905396,9.6292725,5.9857788,9.5459595,5.9735107,9.460083   C5.3226318,9.3423462,4.477356,9.1821289,4.477356,9.1821289C3.7369995,9.0351563,3.0083008,9.4609375,2.7705688,10.1738281z" fill="#FFFFFF" opacity="0.2"/><path d="M21.2284546,10.1713867c-0.2367554-0.7084961-0.963501-1.1347656-1.6960449-0.9990234   l-1.5005493,0.2688599c-0.012085,0.0858154-0.0167236,0.1690674-0.0308838,0.2555542l1.5314331-0.2744141   c0.7325439-0.1357422,1.4592896,0.2905273,1.6960449,0.9990234c0.0373535,0.1125488,0.0470581,0.2278442,0.0570679,0.3426514   C21.3016357,10.5667114,21.293335,10.3667603,21.2284546,10.1713867z" fill="#FFFFFF" opacity="0.2"/><path d="M23.9697876,17.7871094c-0.031189,0.4135742-0.1870117,0.7431641-0.4627075,0.9790039   c-0.5670166,0.484375-1.4515381,0.4067383-2.2289429,0.340332c-0.326355-0.027832-0.8202515-0.0712891-0.9488525-0.0078125   c-0.3380737,0.4389648-0.3487549,1.1464844-0.3487549,1.1533203l-0.0039063,0.4960938L17.4866333,20.75   c-0.5494385,0-1.2489624,0.387207-1.9902954,0.796875C14.477356,22.1108398,13.3219604,22.75,12,22.75   s-2.477356-0.6391602-3.4963379-1.203125C7.7623291,21.137207,7.0628052,20.75,6.5133667,20.75H4.0194702V21h2.4938965   c0.5494385,0,1.2489624,0.387207,1.9902954,0.796875C9.522644,22.3608398,10.6780396,23,12,23   s2.477356-0.6391602,3.4963379-1.203125C16.2376709,21.387207,16.9371948,21,17.4866333,21l2.4899902-0.0019531   l0.0039063-0.4960938c0-0.0068359,0.0106812-0.7143555,0.3487549-1.1533203   c0.1286011-0.0634766,0.6224976-0.0200195,0.9488525,0.0078125c0.7774048,0.0664063,1.6619263,0.144043,2.2289429-0.340332   c0.2756958-0.2358398,0.4315186-0.5654297,0.4627075-0.9790039L24,17.6210938l-0.0178223-0.0046387L23.9697876,17.7871094z" fill="#010101" opacity="0.1"/><path d="M0.0302124,18.0371094c0.031189,0.4135742,0.1870117,0.7431641,0.4627075,0.9790039   c0.5670166,0.484375,1.4505615,0.4067383,2.2289429,0.340332c0.3273315-0.0283203,0.8192749-0.0727539,0.907959-0.0439453   c0.3789673,0.4750977,0.3896484,1.1826172,0.3896484,1.1875v-0.25c0-0.0048828-0.0106812-0.7124023-0.3896484-1.1875   c-0.0886841-0.0288086-0.5806274,0.015625-0.907959,0.0439453c-0.7783813,0.0664063-1.6619263,0.144043-2.2289429-0.340332   c-0.2756958-0.2358398-0.4315186-0.5654297-0.4627075-0.9790039l-0.0123901-0.1706543L0,17.6210938L0.0302124,18.0371094z" fill="#010101" opacity="0.1"/><linearGradient gradientUnits="userSpaceOnUse" id="SVGID_1_" x1="3.5106969" x2="24.0426998" y1="8.5632124" y2="18.1374416"><stop offset="0" style="stop-color:#FFFFFF;stop-opacity:0.2"/><stop offset="1" style="stop-color:#FFFFFF;stop-opacity:0"/></linearGradient><path d="M23.597662,17.5161133c-2.3516808-0.6123047-4.1509991-2.0268555-5.0647831-3.9716797   c0-0.0009766,0.0019474-0.0053711,0.0058441-0.0087891l2.1899662-1.7070313   c0.4987831-0.3896484,0.6994648-1.0556641,0.4997578-1.6572266c-0.2367268-0.7084961-0.9634686-1.1347656-1.6960545-0.9990234   l-1.5314178,0.2744141c0.4208469-2.5678711-0.0808582-4.847168-1.4115925-6.418457C15.4817343,1.7202148,13.8509502,1,12,1   c-1.8519239,0-3.482708,0.7207031-4.5903554,2.0292969C6.0779347,4.6015625,5.5772042,6.8823242,6.0048709,9.4658203   C5.3502192,9.3476563,4.4773502,9.1821289,4.4773502,9.1821289c-0.74038-0.1469727-1.4690697,0.2788086-1.7067707,0.9916992   c-0.1997077,0.6000977,0.0009742,1.2641602,0.4997566,1.6523438l2.1987333,1.706543   c-0.9157329,1.956543-2.7150509,3.3710938-5.0667315,3.9833984L0,17.6210938l0.0301997,0.4160156   c0.0311739,0.4135742,0.1870434,0.7431641,0.4627375,0.9790039c0.5669751,0.484375,1.4505601,0.4067383,2.2289333,0.340332   c0.3273258-0.0283203,0.819289-0.0727539,0.9079397-0.0439453c0.3789575,0.4750977,0.3896735,1.1826172,0.3896735,1.1875V21   h2.4939113c0.5494399,0,1.2489042,0.387207,1.9902587,0.796875C9.5226498,22.3608398,10.6780319,23,12,23   s2.4773502-0.6391602,3.4963465-1.203125C16.2377014,21.387207,16.9371643,21,17.4866047,21l2.490015-0.0019531   l0.0038967-0.4960938c0-0.0068359,0.0107155-0.7143555,0.3487587-1.1533203   c0.1285915-0.0634766,0.6225033-0.0200195,0.9488544,0.0078125c0.7773991,0.0664063,1.6619587,0.144043,2.2289333-0.340332   c0.2756939-0.2358398,0.4315643-0.5654297,0.462738-0.9790039L24,17.6210938L23.597662,17.5161133z" fill="url(#SVGID_1_)"/></g><g/><g/><g/><g/><g/><g/><g/><g/><g/><g/><g/><g/><g/><g/><g/></svg>