<?xml version="1.0" ?><svg enable-background="new 0 0 24 24" id="Layer_1" version="1.1" viewBox="0 0 24 24" xml:space="preserve" xmlns="http://www.w3.org/2000/svg" xmlns:xlink="http://www.w3.org/1999/xlink"><g><circle cx="12" cy="12" fill="#08A94E" id="XMLID_1303_" r="12"/><path d="M12,0.25c5.3285522,0,9.8440552,3.4422607,11.4705811,8.2207642   C21.9632568,3.565979,17.3988037,0,12,0S2.0368042,3.565979,0.5294189,8.4706421C2.1559448,3.6922607,6.6713867,0.25,12,0.25z" fill="#FFFFFF" opacity="0.2"/><path d="M12,23.75c-4.7450914,0-8.8374472-2.6986141-10.8253527-6.6640053   c-0.2444347-0.4875889-0.4570514-0.9943295-0.6351512-1.5175619c0.1608156,0.5232897,0.3563147,1.0308924,0.5838224,1.5202017   C3.02824,21.1856155,7.1771917,24,12,24c4.6758442,0,8.7214317-2.6558895,10.7003746-6.5535698   c0.305975-0.6026421,0.5625458-1.234972,0.7644005-1.8917618c-0.1286106,0.3778324-0.2752476,0.7471523-0.4388905,1.1069431   C21.1199665,20.8520508,16.9072742,23.75,12,23.75z" fill="#010101" opacity="0.1"/><linearGradient gradientUnits="userSpaceOnUse" id="SVGID_1_" x1="6.7449203" x2="20.6145401" y1="6.4745011" y2="20.3441219"><stop offset="0" style="stop-color:#010101;stop-opacity:0.1"/><stop offset="1" style="stop-color:#010101;stop-opacity:0"/></linearGradient><path d="M20.4208984,9.3793945c0.3427734,0.2329102,0.4326172,0.6992188,0.1992188,1.0419922   C20.4755859,10.6347656,20.2392578,10.75,19.9990234,10.75c-0.1445313,0-0.2910156-0.0419922-0.4199219-0.1293945   C15.3466797,7.7475586,8.9169922,7.7363281,4.75,9.2070313C4.5228882,9.288208,4.2896729,9.2424316,4.1015015,9.121582   L4.0926514,9.12677l2.1811523,2.1811523c5.3658447-0.7481689,9.2788086-0.0385132,12.5181885,2.2858276   c0.2236328,0.1611328,0.2753906,0.4736328,0.1142578,0.6977539C18.8085938,14.4277344,18.6552734,14.5,18.5,14.5   c-0.1015625,0-0.203125-0.0302734-0.2919922-0.09375c-3.2714844-2.3491211-7.3173828-2.9394531-13.1210938-1.9140625   c-0.1417236,0.0252686-0.2794189-0.0158081-0.387146-0.0977783l-0.0004272,0.0001221l2.4298706,2.4298706   c3.3217163-0.4500122,7.3432617-0.0602417,10.0866089,1.8689575c0.1689453,0.1191406,0.2099609,0.3530273,0.0908203,0.5224609   C17.2333984,17.3193359,17.1171875,17.375,17,17.375c-0.0751953,0-0.1503906-0.0219727-0.2158203-0.0683594   c-3.0439453-2.140625-7.8154297-2.2666016-11.1953125-1.4423828c-0.1106567,0.0262451-0.2169189,0-0.3011475-0.0584717   L5.286438,15.8061523l8.1065674,8.1065674c5.6713257-0.6566772,10.1281128-5.2635498,10.5609131-11.0003052L20.4208984,9.3793945z" fill="url(#SVGID_1_)"/><g id="XMLID_2795_"><path d="M17,17.375c-0.0751953,0-0.1503906-0.0219727-0.2158203-0.0683594    c-3.0439453-2.140625-7.8154297-2.2666016-11.1953125-1.4423828c-0.2060547,0.0488281-0.4042969-0.074707-0.453125-0.2753906    c-0.0488281-0.2011719,0.0742188-0.4042969,0.2753906-0.453125c3.5429688-0.8652344,8.5683594-0.7182617,11.8046875,1.5576172    c0.1689453,0.1191406,0.2099609,0.3530273,0.0908203,0.5224609C17.2333984,17.3193359,17.1171875,17.375,17,17.375z" fill="#FFFFFF"/></g><g id="XMLID_2794_"><path d="M18.5,14.5c-0.1015625,0-0.203125-0.0302734-0.2919922-0.09375    c-3.2714844-2.3491211-7.3173828-2.9394531-13.1210938-1.9140625c-0.2685547,0.0478516-0.53125-0.1328125-0.5791016-0.4052734    c-0.0478516-0.2714844,0.1328125-0.53125,0.4052734-0.5791016c6.0888672-1.078125,10.3681641-0.4331055,13.8789063,2.0859375    c0.2236328,0.1611328,0.2753906,0.4736328,0.1142578,0.6977539C18.8085938,14.4277344,18.6552734,14.5,18.5,14.5z" fill="#FFFFFF"/></g><g id="XMLID_2793_"><path d="M19.9990234,10.75c-0.1445313,0-0.2910156-0.0419922-0.4199219-0.1293945    C15.3466797,7.7475586,8.9169922,7.7363281,4.75,9.2070313C4.359375,9.3466797,3.9306641,9.140625,3.7929688,8.75    S3.859375,7.9306641,4.25,7.7929688c4.5234375-1.5996094,11.5292969-1.565918,16.1708984,1.5864258    c0.3427734,0.2329102,0.4326172,0.6992188,0.1992188,1.0419922C20.4755859,10.6347656,20.2392578,10.75,19.9990234,10.75z" fill="#FFFFFF"/></g><linearGradient gradientUnits="userSpaceOnUse" id="XMLID_80_" x1="1.1216813" x2="22.8783092" y1="6.9273677" y2="17.0726509"><stop offset="0" style="stop-color:#FFFFFF;stop-opacity:0.2"/><stop offset="1" style="stop-color:#FFFFFF;stop-opacity:0"/></linearGradient><circle cx="12" cy="12" fill="url(#XMLID_80_)" id="XMLID_1020_" r="12"/></g><g/><g/><g/><g/><g/><g/><g/><g/><g/><g/><g/><g/><g/><g/><g/></svg>