<?xml version="1.0" ?><svg enable-background="new 0 0 24 24" id="Layer_1" version="1.1" viewBox="0 0 24 24" xml:space="preserve" xmlns="http://www.w3.org/2000/svg" xmlns:xlink="http://www.w3.org/1999/xlink"><g><path d="M21.8027344,5.1445498c0,0-0.000185-0.0000987-0.0005512-0.0002933   c-1.2868557-0.6832047-2.8913612-0.3442955-3.7747593,0.8142724c-0.0917282,0.1202998-0.1772251,0.2356319-0.2549629,0.3422098   c-0.1396484,0.1913962-0.2666016,0.3652148-0.3789063,0.5077858C16.5214844,7.925653,16,9.1189489,16,10.0007391   c0,0.8212452,1.0927734,2.6180258,1.9873047,3.5125093c0.6826172,0.6825819,0.6826172,1.7918978,0,2.4744787   c-0.6601563,0.6620741-1.8144531,0.6620741-2.4746094,0c-0.5576172-0.5575876-0.65625-1.4032459-0.2792969-2.0770388   c-0.4707031-1.0604906-0.8271484-1.3837156-0.9209089-1.412035c-0.3622942,0.2119036-1.2900286,2.5662708-1.5947161,4.4851151   C12.9033203,17.2913704,13,17.6390076,13,18.0003166c0,1.1024799-0.8974609,1.9998951-2,1.9998951s-2-0.8974152-2-1.9998951   c0-0.6142254,0.2900391-1.1932964,0.78125-1.5731583c0.4326172-0.7792568,1.1542969-2.7225132,1.6435547-4.0964642   c-0.8125,0.5761414-1.8388672,1.2889938-2.5546875,1.7333069C8.6435547,14.6245184,8.1074219,15.0004749,7.5,15.0004749   c-0.8271484,0-1.5-0.6728163-1.5-1.4999208s0.6728516-1.4999208,1.5-1.4999208   c0.4755859,0,1.3261719-0.5575876,2.5380859-1.6620216c-0.546875,0.0947218-1.0712891,0.1464767-1.4404297,0.1621008   C8.3164063,10.818078,7.921875,11.0006857,7.5,11.0006857c-0.8271484,0-1.5-0.6728153-1.5-1.4999208   C6,8.6736603,6.6728516,8.000844,7.5,8.000844c1.3251953,0.2392454,3.6806641,0.2470579,5.6005859-2.3006597   c0.5467806-0.7258582,0.9517107-1.5729456,1.2321739-2.3717666c0.4038277-1.1501877-0.0838947-2.4223576-1.1472063-3.018579   l-0.0000019-0.0000016c-0.7369814-0.4132411-1.6359386-0.4130889-2.3727789,0.0004019L2.1962891,5.1455264   C1.4580078,5.559567,1,6.33394,1,7.1659274v9.6694107C1,17.667326,1.4580078,18.4417,2.1962891,18.8567162l8.6181641,4.8347073   c0.3652344,0.2050667,0.7753906,0.3076,1.1855469,0.3076s0.8203125-0.1025333,1.1865234-0.3076l8.6171875-4.8356838   C22.5419922,18.4417,23,17.667326,23,16.8353386V7.1659274C23,6.33394,22.5419922,5.559567,21.8027344,5.1445498z" fill="#27B67B"/><path d="M13.1855469,0.3098439c-0.7369995-0.4132472-1.6359253-0.4131252-2.3728027,0.0003662   L2.1962891,5.1455264C1.4580078,5.559567,1,6.33394,1,7.1659274v0.2499866c0-0.8319874,0.4580078-1.6063604,1.1962891-2.020401   l8.6164551-4.8353162c0.7368774-0.4134913,1.6358032-0.4136134,2.3728027-0.0003662   c0.7669678,0.430092,1.2279053,1.2127657,1.2773438,2.046767C14.5014038,1.6813536,14.0289307,0.7827803,13.1855469,0.3098439z" fill="#FFFFFF" opacity="0.2"/><path d="M21.8027344,5.1445498c0,0-0.0001831-0.0001221-0.0005493-0.0003052   c-1.2868652-0.6831918-2.8913574-0.3442812-3.7747803,0.8142881c-0.0917358,0.1202936-0.1771851,0.2355833-0.2549438,0.342206   c-0.1396484,0.1913962-0.2666016,0.3652148-0.3789063,0.5077858C16.5214844,7.925653,16,9.1189489,16,10.0007391   c0,0.0358868,0.0129395,0.082881,0.0170288,0.1223078c0.0442505-0.8682404,0.543457-1.9973927,1.3765259-3.0645356   c0.1123047-0.1425705,0.2392578-0.3163896,0.3789063-0.5077858c0.0777588-0.1066227,0.163208-0.2219119,0.2549438-0.342206   c0.8834229-1.1585693,2.487915-1.4974794,3.7747803-0.8142881c0.0003662,0.0001831,0.0005493,0.0003052,0.0005493,0.0003052   C22.5419922,5.8095536,23,6.5839267,23,7.4159141V7.1659274C23,6.33394,22.5419922,5.559567,21.8027344,5.1445498z" fill="#FFFFFF" opacity="0.2"/><path d="M14.3124895,12.4986534c-0.3622942,0.2119036-1.2900286,2.5662708-1.5947161,4.4851151   c0.0146484,0.024229,0.0197144,0.0522442,0.0332031,0.0769615c0.3302612-1.8851547,1.2098999-4.1064119,1.5615129-4.312089   c0.0902205,0.0272808,0.4250593,0.3346987,0.8695784,1.3026047c0.020813-0.0460186,0.0263672-0.0959425,0.0513306-0.1405573   C14.7626953,12.8501978,14.40625,12.5269728,14.3124895,12.4986534z" fill="#FFFFFF" opacity="0.2"/><path d="M21.8037109,18.6067295l-8.6171875,4.8356819   C12.8203125,23.64748,12.4101563,23.7500134,12,23.7500134s-0.8203125-0.1025333-1.1855469-0.3076019l-8.6181641-4.8347054   C1.4580078,18.1926899,1,17.4183159,1,16.5863285v0.2499866c0,0.8319874,0.4580078,1.6063614,1.1962891,2.0213776   L10.8144531,23.6924C11.1796875,23.8974667,11.5898438,24,12,24s0.8203125-0.1025333,1.1865234-0.3076l8.6171875-4.8356838   C22.5419922,18.4426765,23,17.6683025,23,16.8363152v-0.2499866C23,17.4183159,22.5419922,18.1926899,21.8037109,18.6067295z" fill="#010101" opacity="0.1"/><path d="M7.5,7.9979033c1.3251953,0.2392449,3.6806641,0.2470574,5.6005859-2.3006601   c0.5467529-0.7258525,0.9517212-1.5729756,1.2321777-2.3717618c0.1125488-0.3205397,0.149231-0.6495628,0.130127-0.9718115   c-0.0100708,0.2412593-0.0466309,0.4839833-0.130127,0.7218246c-0.2804565,0.7987859-0.6854248,1.6459091-1.2321777,2.371762   C11.1806641,7.9949737,8.8251953,7.9871616,7.5,7.7479167c-0.8271484,0-1.5,0.6728158-1.5,1.4999204   c0,0.0427837,0.0090942,0.083065,0.0126343,0.1249933C6.0773315,8.6050491,6.7156372,7.9979033,7.5,7.9979033z" fill="#010101" opacity="0.1"/><linearGradient gradientUnits="userSpaceOnUse" id="SVGID_1_" x1="0.9196851" x2="23.0803509" y1="6.8337502" y2="17.1674385"><stop offset="0" style="stop-color:#FFFFFF;stop-opacity:0.2"/><stop offset="1" style="stop-color:#FFFFFF;stop-opacity:0"/></linearGradient><path d="M21.8027344,5.1445498c0,0-0.000185-0.0000987-0.0005512-0.0002933   c-1.2868557-0.6832047-2.8913612-0.3442955-3.7747593,0.8142724c-0.0917282,0.1202998-0.1772251,0.2356319-0.2549629,0.3422098   c-0.1396484,0.1913962-0.2666016,0.3652148-0.3789063,0.5077858C16.5214844,7.925653,16,9.1189489,16,10.0007391   c0,0.8212452,1.0927734,2.6180258,1.9873047,3.5125093c0.6826172,0.6825819,0.6826172,1.7918978,0,2.4744787   c-0.6601563,0.6620741-1.8144531,0.6620741-2.4746094,0c-0.5576172-0.5575876-0.65625-1.4032459-0.2792969-2.0770388   c-0.4707031-1.0604906-0.8271484-1.3837156-0.9209089-1.412035c-0.3622942,0.2119036-1.2900286,2.5662708-1.5947161,4.4851151   C12.9033203,17.2913704,13,17.6390076,13,18.0003166c0,1.1024799-0.8974609,1.9998951-2,1.9998951s-2-0.8974152-2-1.9998951   c0-0.6142254,0.2900391-1.1932964,0.78125-1.5731583c0.4326172-0.7792568,1.1542969-2.7225132,1.6435547-4.0964642   c-0.8125,0.5761414-1.8388672,1.2889938-2.5546875,1.7333069C8.6435547,14.6245184,8.1074219,15.0004749,7.5,15.0004749   c-0.8271484,0-1.5-0.6728163-1.5-1.4999208s0.6728516-1.4999208,1.5-1.4999208   c0.4755859,0,1.3261719-0.5575876,2.5380859-1.6620216c-0.546875,0.0947218-1.0712891,0.1464767-1.4404297,0.1621008   C8.3164063,10.818078,7.921875,11.0006857,7.5,11.0006857c-0.8271484,0-1.5-0.6728153-1.5-1.4999208   C6,8.6736603,6.6728516,8.000844,7.5,8.000844c1.3251953,0.2392454,3.6806641,0.2470579,5.6005859-2.3006597   c0.5467806-0.7258582,0.9517107-1.5729456,1.2321739-2.3717666c0.4038277-1.1501877-0.0838947-2.4223576-1.1472063-3.018579   l-0.0000019-0.0000016c-0.7369814-0.4132411-1.6359386-0.4130889-2.3727789,0.0004019L2.1962891,5.1455264   C1.4580078,5.559567,1,6.33394,1,7.1659274v9.6694107C1,17.667326,1.4580078,18.4417,2.1962891,18.8567162l8.6181641,4.8347073   c0.3652344,0.2050667,0.7753906,0.3076,1.1855469,0.3076s0.8203125-0.1025333,1.1865234-0.3076l8.6171875-4.8356838   C22.5419922,18.4417,23,17.667326,23,16.8353386V7.1659274C23,6.33394,22.5419922,5.559567,21.8027344,5.1445498z" fill="url(#SVGID_1_)"/></g><g/><g/><g/><g/><g/><g/><g/><g/><g/><g/><g/><g/><g/><g/><g/></svg>