<?xml version="1.0" ?><svg enable-background="new 0 0 24 24" id="Layer_1" version="1.1" viewBox="0 0 24 24" xml:space="preserve" xmlns="http://www.w3.org/2000/svg" xmlns:xlink="http://www.w3.org/1999/xlink"><g><path d="M1.5652174,3.0521476C3.5744538,5.6257963,7.1718545,8.0542965,12,8.3153868   c-0.2662907-1.1175189-0.2919273-4.1507182,1.8132-5.4113107c0.9415512-0.5638697,1.8328362-0.9040537,2.8828506-0.9040537   c1.319294,0,2.402132,0.456198,3.5539494,1.5660632c0.9375267-0.1377044,2.6888733-0.8969233,3.1044006-1.195152   c-0.270546,1.0464852-1.3529453,2.390192-2.1349106,2.7092276C21.9375267,5.0779238,23.5162907,4.6453466,24,4.3897381   c-0.6711273,1.0879869-1.8430901,2.1302214-2.4843273,2.562798c0.742506,6.7045627-5.1815643,15.0391254-13.6895723,15.0474796   C5.3964334,22.0023994,2.7560391,21.482048,0,19.8945122c2.7187636,0.3211613,5.6317658-0.5671692,7.304348-2.1052952   c-2.1093822-0.0481014-4.2458277-1.4820061-5.2173915-3.684267c1.0568728,0.3320112,2.0312777,0.5002546,2.6086955,0   c-0.9843271-0.1114168-4.173913-1.8735428-4.173913-5.2862816c0.7329818,0.611783,1.7883321,1.2439327,2.6086955,1.0756903   C1.7880712,9.0925188-0.1627826,6.0387974,1.5652174,3.0521476z" fill="#1BA8E1" id="XMLID_2804_"/><path d="M12.0431519,8.5702085C12.0262451,8.4992247,12.0144653,8.400836,12,8.3153868   C7.1942749,8.0418882,3.5682983,5.6178365,1.5652466,3.0521626C1.0826416,3.8862691,0.894165,4.7239156,0.8920898,5.517983   c0.0391846-0.7186279,0.241272-1.4693604,0.6731567-2.2158203C3.5744629,5.875771,7.2150269,8.3091612,12.0431519,8.5702085z" fill="#FFFFFF" opacity="0.2"/><path d="M13.8131714,3.1540303c0.9415894-0.5638428,1.8328857-0.9040527,2.8828735-0.9040527   c1.3192749,0,2.4021606,0.4562378,3.5539551,1.5661011c0.8787231-0.1290894,2.4584961-0.7994995,2.9969482-1.1293335   c0.0409546-0.1067505,0.0809937-0.213562,0.1074219-0.3158569C22.9388428,2.669167,21.1874962,3.4283834,20.25,3.5660787   c-1.1517944-1.1098633-2.2346802-1.5661011-3.5539551-1.5661011c-1.0499878,0-1.9412842,0.34021-2.8828735,0.9040527   c-1.6166382,0.9681396-1.9730225,2.9749146-1.9324341,4.3633423C11.8895264,5.8967671,12.2913208,4.0654073,13.8131714,3.1540303z" fill="#FFFFFF" opacity="0.2"/><path d="M21.5038929,6.71102c0.0087891,0.0794678,0.0048218,0.1616211,0.0117798,0.2415161   C22.1591663,6.5157075,23.3325806,5.471807,24,4.3899589c-0.0628662,0.0332031-0.1456299,0.0695801-0.2412109,0.1074829   C23.0745239,5.4501395,22.0743275,6.3261933,21.5038929,6.71102z" fill="#010101" opacity="0.1"/><path d="M0.5369873,8.839551c-0.0048828-0.0040283-0.010437-0.0080566-0.0152588-0.012085   c0,3.1231689,2.6900363,4.9310303,4.1739235,5.2774839c0.107605-0.0473022,0.2098389-0.1038818,0.2994995-0.1815796   C4.0367775,13.8148499,0.6972656,12.0773439,0.5369873,8.839551z" fill="#010101" opacity="0.1"/><path d="M7.8261108,21.7500153c-2.2719727,0.0021973-4.7296753-0.4646606-7.2923584-1.8217163   C0.3556519,19.9174957,0.1768188,19.9154205,0,19.8945465c2.7560425,1.5875244,5.3964233,2.1078491,7.8261108,2.1054688   c8.0369873-0.0078735,13.7605591-7.4442148,13.7445679-13.9192514   C21.4407349,14.4955587,15.7595825,21.7422028,7.8261108,21.7500153z" fill="#010101" opacity="0.1"/><path d="M2.2434692,14.1600466c-0.0523071-0.015686-0.1036987-0.0296631-0.1564941-0.0462646   c0.9289551,2.1056509,2.9424639,3.5794134,5.2173729,3.6754351c0.0910645-0.074646,0.1921997-0.1432495,0.2770386-0.2213135   C5.5710716,17.5220661,3.2711182,16.1887321,2.2434692,14.1600466z" fill="#010101" opacity="0.1"/><linearGradient gradientUnits="userSpaceOnUse" id="XMLID_96_" x1="0.2437822" x2="19.6893921" y1="5.8361177" y2="14.9037552"><stop offset="0" style="stop-color:#FFFFFF;stop-opacity:0.2"/><stop offset="1" style="stop-color:#FFFFFF;stop-opacity:0"/></linearGradient><path d="M1.5652174,3.0521476C3.5744538,5.6257963,7.1718545,8.0542965,12,8.3153868   c-0.2662907-1.1175189-0.2919273-4.1507182,1.8132-5.4113107c0.9415512-0.5638697,1.8328362-0.9040537,2.8828506-0.9040537   c1.319294,0,2.402132,0.456198,3.5539494,1.5660632c0.9375267-0.1377044,2.6888733-0.8969233,3.1044006-1.195152   c-0.270546,1.0464852-1.3529453,2.390192-2.1349106,2.7092276C21.9375267,5.0779238,23.5162907,4.6453466,24,4.3897381   c-0.6711273,1.0879869-1.8430901,2.1302214-2.4843273,2.562798c0.742506,6.7045627-5.1815643,15.0391254-13.6895723,15.0474796   C5.3964334,22.0023994,2.7560391,21.482048,0,19.8945122c2.7187636,0.3211613,5.6317658-0.5671692,7.304348-2.1052952   c-2.1093822-0.0481014-4.2458277-1.4820061-5.2173915-3.684267c1.0568728,0.3320112,2.0312777,0.5002546,2.6086955,0   c-0.9843271-0.1114168-4.173913-1.8735428-4.173913-5.2862816c0.7329818,0.611783,1.7883321,1.2439327,2.6086955,1.0756903   C1.7880712,9.0925188-0.1627826,6.0387974,1.5652174,3.0521476z" fill="url(#XMLID_96_)" id="XMLID_1016_"/></g><g/><g/><g/><g/><g/><g/><g/><g/><g/><g/><g/><g/><g/><g/><g/></svg>