<?xml version="1.0" ?><svg enable-background="new 0 0 24 24" id="Layer_1" version="1.1" viewBox="0 0 24 24" xml:space="preserve" xmlns="http://www.w3.org/2000/svg" xmlns:xlink="http://www.w3.org/1999/xlink"><g><path d="M19.54352,1c-3.5493231,0-6.4371367,2.9160156-6.4371367,6.5V8h1.9806576   c0.8960342,0,0.9569635,0.4267578,0.9859762,0.6318359C16.3075428,10.2802734,13.7108316,13.8129883,13.1063833,14   c-0.68472,0-1.2741785-3.4228516-1.6257257-5.4677734C10.8138294,4.6586914,10.1837521,1,8.1547384,1   C6.7790136,1,3.9008703,2.890625,0.3176983,8.2192383L0,8.6918945l2.8056092,1.4165039l1.52176-1.5366211   C4.8312378,12.1860352,6.7088976,23,11.1257257,23C16.1764984,23,24,12.0380859,24,6.5C24,3.4672852,22.000967,1,19.54352,1z" fill="#19BEF0"/><path d="M2.805603,10.1083984l1.5217896-1.5366211C4.8312378,12.1860352,6.7089233,23,11.1257324,23   C16.1765137,23,24,12.0380859,24,6.5c0-0.0427856-0.0043945-0.0841675-0.005188-0.126709   C23.8834229,11.9482422,16.1401367,22.75,11.1257324,22.75c-4.4168091,0-6.2944946-10.8139648-6.7983398-14.4282227   L2.805603,10.1083984z" fill="#010101" opacity="0.1"/><path d="M19.5435181,1c-3.5493164,0-6.4371338,2.9160156-6.4371338,6.5v0.25   c0-3.5839844,2.8878174-6.5,6.4371338-6.5c2.4227905,0,4.3960571,2.3994751,4.4512939,5.373291   C23.9956055,6.5828247,24,6.539917,24,6.5C24,3.4672852,22.0009766,1,19.5435181,1z" fill="#FFFFFF" opacity="0.2"/><path d="M8.1547241,1.25c2.0290527,0,2.6591187,3.6586914,3.3259277,7.5322266   C11.8322144,10.8271484,12.4216919,14.25,13.1063843,14.25c0.5889893-0.182251,3.0622559-3.5366211,2.9714966-5.2334595   C15.9411011,10.7727661,13.6673584,13.826416,13.1063843,14c-0.6846924,0-1.2741699-3.4228516-1.6257324-5.4677734   C10.8138428,4.6586914,10.1837769,1,8.1547241,1C6.7789917,1,3.9008789,2.890625,0.317688,8.2192383L0,8.6918945   L0.1254883,8.755249L0.317688,8.4692383C3.9008789,3.140625,6.7789917,1.25,8.1547241,1.25z" fill="#FFFFFF" opacity="0.2"/><linearGradient gradientUnits="userSpaceOnUse" id="SVGID_1_" x1="1.4912275" x2="21.1805401" y1="5.493947" y2="14.6752234"><stop offset="0" style="stop-color:#FFFFFF;stop-opacity:0.2"/><stop offset="1" style="stop-color:#FFFFFF;stop-opacity:0"/></linearGradient><path d="M19.54352,1c-3.5493231,0-6.4371367,2.9160156-6.4371367,6.5V8h1.9806576   c0.8960342,0,0.9569635,0.4267578,0.9859762,0.6318359C16.3075428,10.2802734,13.7108316,13.8129883,13.1063833,14   c-0.68472,0-1.2741785-3.4228516-1.6257257-5.4677734C10.8138294,4.6586914,10.1837521,1,8.1547384,1   C6.7790136,1,3.9008703,2.890625,0.3176983,8.2192383L0,8.6918945l2.8056092,1.4165039l1.52176-1.5366211   C4.8312378,12.1860352,6.7088976,23,11.1257257,23C16.1764984,23,24,12.0380859,24,6.5C24,3.4672852,22.000967,1,19.54352,1z" fill="url(#SVGID_1_)"/></g><g/><g/><g/><g/><g/><g/><g/><g/><g/><g/><g/><g/><g/><g/><g/></svg>