<?xml version="1.0" ?><svg enable-background="new 0 0 24 24" id="Layer_1" version="1.1" viewBox="0 0 24 24" xml:space="preserve" xmlns="http://www.w3.org/2000/svg" xmlns:xlink="http://www.w3.org/1999/xlink"><g><path d="M8.75,2C3.925293,2,0,5.3642578,0,9.5c0,2.2207031,1.1191406,4.2792969,3.0859375,5.7099609   l-1.0332031,2.0664063c-0.0986328,0.1972656-0.0566406,0.4355469,0.1035156,0.5869141C2.2514648,17.953125,2.3754883,18,2.5,18   c0.0849609,0,0.1704102-0.0214844,0.2480469-0.0654297L5.394043,16.421875   c1.4052734,0.5019531,2.9438477,0.671875,4.409668,0.5185547c0.2744141-0.0283203,0.4741211-0.2744141,0.4458008-0.5488281   c-0.0119629-0.1141968-0.067627-0.2106934-0.1413574-0.2886353l6.5328979-6.241333   c0.0910034,0.0914307,0.2172852,0.1481323,0.3584595,0.1481323C17.2758789,10.0097656,17.5,9.7763672,17.5,9.5   C17.5,5.3642578,13.574707,2,8.75,2z" fill="#27AE4A"/><path d="M8.75,2C3.925293,2,0,5.3642578,0,9.5c0,2.2207031,1.1191406,4.2792969,3.0859375,5.7099609   l-1.0332031,2.0664063c-0.0986328,0.1972656-0.0566406,0.4355469,0.1035156,0.5869141C2.2514648,17.953125,2.3754883,18,2.5,18   c0.0849609,0,0.1704102-0.0214844,0.2480469-0.0654297L5.394043,16.421875   c1.4052734,0.5019531,2.9438477,0.671875,4.409668,0.5185547c0.2744141-0.0283203,0.4741211-0.2744141,0.4458008-0.5488281   c-0.0119629-0.1141968-0.067627-0.2106934-0.1413574-0.2886353l6.5328979-6.241333   c0.0910034,0.0914307,0.2172852,0.1481323,0.3584595,0.1481323C17.2758789,10.0097656,17.5,9.7763672,17.5,9.5   C17.5,5.3642578,13.574707,2,8.75,2z" fill="#010101" opacity="0.1"/><path d="M9.8413696,16.6904297C8.3231812,16.84375,6.7296753,16.6738281,5.2741699,16.171875   l-2.7404785,1.5126953C2.4533081,17.7285156,2.3648071,17.75,2.2767944,17.75   c-0.0707397,0-0.1399536-0.0169678-0.2055664-0.0445557c0.0259399,0.0544434,0.0392456,0.114563,0.085022,0.1578369   C2.2514648,17.953125,2.3754883,18,2.5,18c0.0849609,0,0.1704102-0.0214844,0.2480469-0.0654297L5.394043,16.421875   c1.4052734,0.5019531,2.9438477,0.671875,4.409668,0.5185547c0.270813-0.0279541,0.4669189-0.2684326,0.4448242-0.5384521   C10.173645,16.5548706,10.0280762,16.671814,9.8413696,16.6904297z" fill="#010101" opacity="0.1"/><circle cx="6" cy="7" fill="#FFFFFF" r="1"/><circle cx="11" cy="7" fill="#FFFFFF" r="1"/><path d="M8.75,2.25c4.7487183,0,8.6176147,3.2609253,8.7385864,7.3070068   C17.4909058,9.5374756,17.5,9.5200806,17.5,9.5c0-4.1357422-3.925293-7.5-8.75-7.5S0,5.3642578,0,9.5   c0,0.0407715,0.006897,0.0803833,0.0076294,0.1210327C0.0891113,5.545166,3.9760742,2.25,8.75,2.25z" fill="#FFFFFF" opacity="0.2"/><path d="M24,15c0-3.3085938-3.3642578-6-7.5-6S9,11.6914063,9,15s3.3642578,6,7.5,6   c0.7729492,0,1.5444336-0.0986328,2.296875-0.2919922l2.4794922,1.2392578C21.3476563,21.9824219,21.4238281,22,21.5,22   c0.1225586,0,0.2441406-0.0449219,0.3383789-0.1318359c0.152832-0.140625,0.203125-0.3613281,0.1259766-0.5537109   l-0.6796875-1.6982422C22.9926758,18.4804688,24,16.7822266,24,15z" fill="#27AE4A"/><path d="M21.6874943,21.75c-0.0790348,0-0.1580753-0.0175781-0.2319889-0.0527344   l-2.5725098-1.2392578C18.102356,20.6513672,17.3019409,20.75,16.5,20.75c-2.5626831,0-4.8328857-0.9642334-6.2514648-2.4423828   C11.5927124,19.9282227,13.8917236,21,16.5,21c0.7729492,0,1.5444336-0.0986328,2.296875-0.2919922l2.4794922,1.2392578   C21.3476563,21.9824219,21.4238281,22,21.5,22c0.1225586,0,0.2441406-0.0449219,0.3383789-0.1318359   c0.0591431-0.0544434,0.088562-0.1271973,0.1155396-0.1993408C21.8717651,21.7172241,21.7819214,21.75,21.6874943,21.75z" fill="#010101" opacity="0.1"/><circle cx="14" cy="13" fill="#FFFFFF" r="1"/><circle cx="19" cy="13" fill="#FFFFFF" r="1"/><path d="M16.5,9.25c4.0802612,0,7.4031372,2.6209717,7.4916992,5.8685303   C23.9926758,15.0787964,24,15.0397949,24,15c0-3.3085938-3.3642578-6-7.5-6S9,11.6914063,9,15   c0,0.0421753,0.0068359,0.0830078,0.0079346,0.125C9.0922241,11.8745117,12.4169922,9.25,16.5,9.25z" fill="#FFFFFF" opacity="0.2"/><linearGradient gradientUnits="userSpaceOnUse" id="SVGID_1_" x1="0.4483928" x2="23.7108364" y1="7.0945005" y2="17.9419556"><stop offset="0" style="stop-color:#FFFFFF;stop-opacity:0.2"/><stop offset="1" style="stop-color:#FFFFFF;stop-opacity:0"/></linearGradient><path d="M24,15c0-3.0440063-2.8500366-5.5597534-6.5262451-5.9435425   C17.2036743,5.1275635,13.4000854,2,8.75,2C3.925293,2,0,5.3642578,0,9.5c0,2.2207031,1.1191406,4.2792969,3.0859375,5.7099609   l-1.0332031,2.0664063c-0.0986328,0.1972656-0.0566406,0.4355469,0.1035156,0.5869141C2.2514648,17.953125,2.3754883,18,2.5,18   c0.0849609,0,0.1704102-0.0214844,0.2480469-0.0654297L5.394043,16.421875   c1.2834473,0.4584351,2.6759033,0.6261597,4.0247803,0.5373535C10.4370117,19.3071899,13.2227173,21,16.5,21   c0.7729492,0,1.5444336-0.0986328,2.296875-0.2919922l2.4794922,1.2392578C21.3476563,21.9824219,21.4238281,22,21.5,22   c0.1225586,0,0.2441406-0.0449219,0.3383789-0.1318359c0.152832-0.140625,0.203125-0.3613281,0.1259766-0.5537109   l-0.6796875-1.6982422C22.9926758,18.4804688,24,16.7822266,24,15z" fill="url(#SVGID_1_)"/></g><g/><g/><g/><g/><g/><g/><g/><g/><g/><g/><g/><g/><g/><g/><g/></svg>