<?xml version="1.0" ?><svg enable-background="new 0 0 24 24" id="Layer_1" version="1.1" viewBox="0 0 24 24" xml:space="preserve" xmlns="http://www.w3.org/2000/svg" xmlns:xlink="http://www.w3.org/1999/xlink"><g><path d="M23.5,2.9999208h-4.0009766c-0.2763672,0-0.5,0.2236328-0.5,0.5v1c0,0.2763672,0.2236328,0.5,0.5,0.5   h0.9663086l-4.9238281,10.2578125l-1.7827148-4.4570313l2.8125-5.8007813H17.5c0.2763672,0,0.5-0.2236328,0.5-0.5v-1   c0-0.2763672-0.2236328-0.5-0.5-0.5h-4c-0.2763672,0-0.5,0.2236328-0.5,0.5v1c0,0.2763672,0.2236328,0.5,0.5,0.5h0.465332   l-1.378418,2.8710938l-1.1484375-2.8710938H12c0.2763672,0,0.5-0.2236328,0.5-0.5v-1c0-0.2763672-0.2236328-0.5-0.5-0.5H7   c-0.2763672,0-0.5,0.2236328-0.5,0.5v1c0,0.2763672,0.2236328,0.5,0.5,0.5h1.3564453l2.5283203,6.4179688l-1.8432617,3.8398438   L4.9384766,4.9999208H5.5c0.2763672,0,0.5-0.2236328,0.5-0.5v-1c0-0.2763672-0.2236328-0.5-0.5-0.5h-5   c-0.2763672,0-0.5,0.2236328-0.5,0.5v1c0,0.2763672,0.2236328,0.5,0.5,0.5h1.3564453L8.034668,20.6835155   c0.0727539,0.1845703,0.2480469,0.3085938,0.4462891,0.3164063c0.2016602,0.0048828,0.3823242-0.1035156,0.46875-0.2822266   l3.0888672-6.3701181l2.4960938,6.3359385c0.0727539,0.1845703,0.2480469,0.3085938,0.4462891,0.3164063   c0.0063477,0,0.0126953,0,0.019043,0c0.190918,0,0.3662109-0.109375,0.449707-0.2822266l7.621582-15.7177744H23.5   c0.2763672,0,0.5-0.2236328,0.5-0.5v-1C24,3.2235537,23.7763672,2.9999208,23.5,2.9999208z" fill="#CCCCCC"/><path d="M15.449707,20.4676952C15.3662109,20.6405468,15.190918,20.7499218,15,20.7499218   c-0.0063477,0-0.0126953,0-0.019043,0c-0.1982422-0.0078125-0.3735352-0.1318359-0.4462891-0.3164063l-2.4417486-6.1979914   l-0.0543451,0.1120529l2.4960938,6.3359385c0.0727539,0.1845703,0.2480469,0.3085938,0.4462891,0.3164063   c0.0063477,0,0.0126953,0,0.019043,0c0.190918,0,0.3662109-0.109375,0.449707-0.2822266l7.621582-15.7177744L15.449707,20.4676952z   " fill="#010101" opacity="0.1"/><path d="M8.9511032,20.4614449c-0.0834961,0.1728516-0.2587891,0.2822266-0.449707,0.2822266   c-0.0063477,0-0.0126953,0-0.019043,0c-0.1982422-0.0078125-0.3735352-0.1318359-0.4462891-0.3164063L1.8564453,4.9999208   l6.1796188,15.6773443c0.0727539,0.1845703,0.2480469,0.3085938,0.4462891,0.3164063c0.0063477,0,0.0126953,0,0.019043,0   c0.190918,0,0.3662109-0.109375,0.449707-0.2822266l7.621582-15.7177734L8.9511032,20.4614449z" fill="#010101" opacity="0.1"/><path d="M13.5,3.2499208h4c0.2763672,0,0.5,0.2236328,0.5,0.5v-0.25   c0-0.2763672-0.2236328-0.5-0.5-0.5h-4c-0.2763672,0-0.5,0.2236328-0.5,0.5v0.25C13,3.4735537,13.2236328,3.2499208,13.5,3.2499208   z" fill="#FFFFFF" opacity="0.2"/><path d="M7,3.2499208h5c0.2763672,0,0.5,0.2236328,0.5,0.5v-0.25c0-0.2763672-0.2236328-0.5-0.5-0.5   H7c-0.2763672,0-0.5,0.2236328-0.5,0.5v0.25C6.5,3.4735537,6.7236328,3.2499208,7,3.2499208z" fill="#FFFFFF" opacity="0.2"/><path d="M23.5,2.9999208h-4.0009766c-0.2763672,0-0.5,0.2236328-0.5,0.5v0.25   c0-0.2763672,0.2236328-0.5,0.5-0.5H23.5c0.2763672,0,0.5,0.2236328,0.5,0.5v-0.25   C24,3.2235537,23.7763672,2.9999208,23.5,2.9999208z" fill="#FFFFFF" opacity="0.2"/><path d="M0.5,3.2499208h5c0.2763672,0,0.5,0.2236328,0.5,0.5v-0.25   c0-0.2763672-0.2236328-0.5-0.5-0.5h-5c-0.2763672,0-0.5,0.2236328-0.5,0.5v0.25C0,3.4735537,0.2236328,3.2499208,0.5,3.2499208z" fill="#FFFFFF" opacity="0.2"/><linearGradient gradientUnits="userSpaceOnUse" id="SVGID_1_" x1="11.4674301" x2="17.2910461" y1="13.092061" y2="18.9156761"><stop offset="0" style="stop-color:#010101;stop-opacity:0.1"/><stop offset="1" style="stop-color:#010101;stop-opacity:0"/></linearGradient><path d="M14.980957,20.9999218c0.0063477,0,0.0126953,0,0.019043,0   c0.190918,0,0.3662109-0.109375,0.449707-0.2822266l1.2470093-2.5717163l-1.1552124-2.8882456l0,0l-1.7827148-4.4570313   l-1.7202148,3.546875l2.4960938,6.3359385C14.6074219,20.8680859,14.7827148,20.9921093,14.980957,20.9999218z" fill="url(#SVGID_1_)"/><linearGradient gradientUnits="userSpaceOnUse" id="SVGID_2_" x1="-0.4406254" x2="19.7411137" y1="4.3335395" y2="13.7444391"><stop offset="0" style="stop-color:#FFFFFF;stop-opacity:0.2"/><stop offset="1" style="stop-color:#FFFFFF;stop-opacity:0"/></linearGradient><path d="M23.5,2.9999208h-4.0009766c-0.2763672,0-0.5,0.2236328-0.5,0.5v1   c0,0.2763672,0.2236328,0.5,0.5,0.5h0.9663086l-4.9238281,10.2578125l-1.7827148-4.4570313l2.8125-5.8007813H17.5   c0.2763672,0,0.5-0.2236328,0.5-0.5v-1c0-0.2763672-0.2236328-0.5-0.5-0.5h-4c-0.2763672,0-0.5,0.2236328-0.5,0.5v1   c0,0.2763672,0.2236328,0.5,0.5,0.5h0.465332l-1.378418,2.8710938l-1.1484375-2.8710938H12c0.2763672,0,0.5-0.2236328,0.5-0.5v-1   c0-0.2763672-0.2236328-0.5-0.5-0.5H7c-0.2763672,0-0.5,0.2236328-0.5,0.5v1c0,0.2763672,0.2236328,0.5,0.5,0.5h1.3564453   l2.5283203,6.4179688l-1.8432617,3.8398438L4.9384766,4.9999208H5.5c0.2763672,0,0.5-0.2236328,0.5-0.5v-1   c0-0.2763672-0.2236328-0.5-0.5-0.5h-5c-0.2763672,0-0.5,0.2236328-0.5,0.5v1c0,0.2763672,0.2236328,0.5,0.5,0.5h1.3564453   L8.034668,20.6835155c0.0727539,0.1845703,0.2480469,0.3085938,0.4462891,0.3164063   c0.2016602,0.0048828,0.3823242-0.1035156,0.46875-0.2822266l3.0888672-6.3701181l2.4960938,6.3359385   c0.0727539,0.1845703,0.2480469,0.3085938,0.4462891,0.3164063c0.0063477,0,0.0126953,0,0.019043,0   c0.190918,0,0.3662109-0.109375,0.449707-0.2822266l7.621582-15.7177744H23.5c0.2763672,0,0.5-0.2236328,0.5-0.5v-1   C24,3.2235537,23.7763672,2.9999208,23.5,2.9999208z" fill="url(#SVGID_2_)"/></g><g/><g/><g/><g/><g/><g/><g/><g/><g/><g/><g/><g/><g/><g/><g/></svg>