<?xml version="1.0" ?><svg enable-background="new 0 0 24 24" id="Layer_1" version="1.1" viewBox="0 0 24 24" xml:space="preserve" xmlns="http://www.w3.org/2000/svg" xmlns:xlink="http://www.w3.org/1999/xlink"><g><path d="M9.1970501,15.6372786c0.4873266-0.2177086,1.3032808-0.5819139,1.3032808-1.5209112   c0-0.9389982-0.8159542-1.3032026-1.3032808-1.5209122c-0.1826248-0.0813866-0.4297056-0.185154-0.7207346-0.3072338   c-0.7588224-0.3194427-1.7979307-0.756896-2.7569575-1.2441978c-0.9629331-0.489337-1.6011448-0.3102865-1.9668834-0.0732479   C3.2812624,11.2769928,3,11.8690796,3,12.5537443v3.1252451c0,0.6846657,0.2812624,1.2767525,0.7524745,1.5829697   c0.1953211,0.1271667,0.469259,0.2380562,0.829138,0.2380562c0.3125138,0,0.6899719-0.0834217,1.1377454-0.3113041   c0.9590268-0.4873028,1.9981351-0.9247551,2.7569575-1.2441978C8.7673445,15.8224335,9.0144253,15.7186651,9.1970501,15.6372786z" fill="#DA1F32"/><path d="M12.6826344,18.5511818c-0.0219736-0.328598-0.0405293-0.6073475-0.0585966-0.8138657   c-0.0478535-0.5503769-0.1279354-1.4710617-0.9853945-1.7620192h-0.0009766   c-0.8559952-0.2899399-1.4404936,0.4059153-1.7896299,0.8220053c-0.1313534,0.1556511-0.3027477,0.3682728-0.5044165,0.6185379   C8.8182058,18.0689678,8.0979595,18.96422,7.3562274,19.762825c-0.7461267,0.8036919-0.7788429,1.4903927-0.6753225,1.9258099   c0.1362367,0.569706,0.5781503,1.0193672,1.212944,1.2350426l2.8531528,0.9654484   c0.2192488,0.0742645,0.4389849,0.1108894,0.649931,0.1108894c0.3906431,0,0.7519865-0.1251335,1.0283661-0.3672581   c0.3296041-0.2879047,0.6909485-0.8637142,0.5410395-1.97159C12.8174057,20.5634651,12.7397661,19.3996372,12.6826344,18.5511818z" fill="#DA1F32"/><path d="M19.2625141,15.9944534c-1.050827-0.192276-2.1382771-0.4750948-2.9322586-0.681613   c-0.3042126-0.0793524-0.5630121-0.1464958-0.7568684-0.192276c-0.5166245-0.1230974-1.3823853-0.3265638-1.9121943,0.4313488   h-0.0004883c-0.5288315,0.7599478-0.0747099,1.5544844,0.1967859,2.0285616   c0.1015673,0.1780319,0.2426863,0.4130363,0.4091978,0.6907673c0.4336128,0.7223072,1.0278778,1.7121716,1.5288763,2.6938972   c0.5034409,0.9878292,1.1201668,1.2319889,1.5493851,1.2635269c0.0327148,0.0020332,0.0654316,0.0040684,0.0981483,0.0040684   c0.5215073,0,1.0405731-0.3031654,1.4038696-0.8240395l1.7637501-2.5280704   c0.3867359-0.5544453,0.4926987-1.2055378,0.2846813-1.7416725C20.7337704,16.7238808,20.3196888,16.187746,19.2625141,15.9944534z   " fill="#DA1F32"/><path d="M13.6611929,13.9721317c0.3022594,0.4323664,0.7134104,0.552412,1.1069822,0.552412   c0.2964001,0,0.5830336-0.068162,0.805212-0.1210632c0.1938562-0.0457792,0.4526558-0.1129236,0.7568684-0.192275   c0.7939816-0.2065191,1.8814316-0.489337,2.9322586-0.681613c1.0571747-0.1932936,1.4712563-0.7294273,1.632885-1.1444988   c0.2080173-0.5361338,0.1020546-1.1872272-0.2846813-1.7416725l-1.7637501-2.5280714   c-0.3857574-0.5534286-0.9468174-0.8515067-1.502018-0.8199697c-0.4292183,0.0315375-1.0459442,0.2756972-1.5493851,1.2635264   c-0.5009985,0.9817257-1.0952635,1.97159-1.5288763,2.6938963c-0.1665115,0.2777319-0.3076305,0.5127354-0.4096861,0.6907682   c-0.2710075,0.4740772-0.7251291,1.2686138-0.1962976,2.0285606H13.6611929z" fill="#DA1F32"/><path d="M9.7288904,11.7665558c0.2763796,0.4588165,0.7519865,0.7334967,1.2720289,0.7334967   c0.156745,0,0.3100729-0.0254335,0.453145-0.0732479c0.6533489-0.2156744,1.0825672-0.8637152,1.0444794-1.5758476   l-0.5000219-9.3767519c-0.0249033-0.4598342-0.2407331-0.8820271-0.5918226-1.1577241   c-0.3457184-0.2726451-0.7969103-0.3784476-1.2310114-0.2807837L5.6740246,1.077445   C5.1998825,1.1893517,4.8048458,1.5332099,4.6168489,1.9991481C4.4293408,2.4671209,4.4708467,3.0022378,4.7286701,3.4315519   L9.7288904,11.7665558z" fill="#DA1F32"/><path d="M9.1970501,12.5954552c-0.1826248-0.0813866-0.4297056-0.185154-0.7207346-0.3072338   c-0.7588224-0.3194427-1.7979307-0.756896-2.7569575-1.2441978c-0.9629331-0.489337-1.6011448-0.3102865-1.9668834-0.0732479   C3.2812624,11.2769928,3,11.8690796,3,12.5537443v0.260437c0-0.6846647,0.2812624-1.2767515,0.7524745-1.5829687   c0.3657386-0.2370386,1.0039504-0.4160891,1.9668834,0.0732479c0.9590268,0.4873018,1.9981351,0.9247551,2.7569575,1.2441978   c0.291029,0.1220798,0.5381098,0.2258472,0.7207346,0.3072338c0.4629726,0.2068367,1.2141657,0.5520935,1.2888756,1.3906937   c0.0039063-0.0440636,0.0144053-0.0833578,0.0144053-0.1302185C10.5003309,13.1773691,9.6843767,12.8131647,9.1970501,12.5954552z" fill="#FFFFFF" opacity="0.2"/><path d="M12.9663382,21.6611671c-0.1489325-1.097702-0.226572-2.2615299-0.2837038-3.1099854   c-0.0219736-0.328598-0.0405293-0.6073475-0.0585966-0.8138657c-0.0478535-0.5503769-0.1279354-1.4710617-0.9853945-1.7620192   h-0.0009766c-0.8559952-0.2899399-1.4404936,0.4059153-1.7896299,0.8220053   c-0.1313534,0.1556511-0.3027477,0.3682728-0.5044165,0.6185379C8.8182058,18.0689678,8.0979595,18.96422,7.3562274,19.762825   c-0.624722,0.6729012-0.7469201,1.2615566-0.710175,1.6916332c0.0294199-0.3958702,0.2033782-0.885334,0.710175-1.4311962   c0.7417321-0.798605,1.4619784-1.6938572,1.9873929-2.3469849c0.2016687-0.2502651,0.3730631-0.4628868,0.5044165-0.6185379   c0.3491364-0.41609,0.9336348-1.1119452,1.7896299-0.8220043h0.0004883   c0.8579473,0.2909565,0.9380293,1.2116413,0.9858828,1.7620182c0.0180674,0.2065182,0.036623,0.4852676,0.0585966,0.8138657   c0.0571318,0.8484554,0.1347713,2.0122833,0.2837038,3.1099854c0.026063,0.1927204,0.0194712,0.3495808,0.017457,0.5113373   C13.006196,22.208683,13.0062571,21.9563847,12.9663382,21.6611671z" fill="#FFFFFF" opacity="0.2"/><path d="M20.8953991,17.1389523c-0.1616287-0.4150715-0.5757103-0.9512062-1.632885-1.1444988   c-1.050827-0.192276-2.1382771-0.4750948-2.9322586-0.681613c-0.3042126-0.0793524-0.5630121-0.1464958-0.7568684-0.192276   c-0.5166245-0.1230974-1.3823853-0.3265638-1.9121943,0.4313488h-0.0004883   c-0.2118626,0.3044367-0.2622185,0.613452-0.233531,0.9061899c0.0184946-0.2128773,0.083622-0.4303322,0.233531-0.6457529   h0.0004883c0.529809-0.7579126,1.3955698-0.5544462,1.9121943-0.4313488   c0.1938562,0.0457802,0.4526558,0.1129236,0.7568684,0.192276c0.7939816,0.2065182,1.8814316,0.489337,2.9322586,0.681613   c1.0571747,0.1932926,1.4712563,0.7294273,1.632885,1.1444988c0.0474262,0.1222706,0.0739155,0.2517891,0.0891151,0.3835335   C20.9933033,17.5600643,20.9735889,17.3405743,20.8953991,17.1389523z" fill="#FFFFFF" opacity="0.2"/><path d="M14.2666883,11.5132399c0.4336128-0.7223063,1.0278778-1.7121706,1.5288763-2.6938963   c0.5034409-0.9878292,1.1201668-1.2319889,1.5493851-1.2635264c0.5552006-0.0315371,1.1162605,0.266541,1.502018,0.8199697   l1.7637501,2.5280714c0.2413445,0.3459558,0.3592072,0.7279005,0.3737965,1.0977011   c0.0513325-0.4458456-0.0752602-0.9301596-0.3737965-1.3581381l-1.7637501-2.5280714   c-0.3857574-0.5534286-0.9468174-0.8515067-1.502018-0.8199697c-0.4292183,0.0315375-1.0459442,0.2756972-1.5493851,1.2635264   c-0.5009985,0.9817257-1.0952635,1.97159-1.5288763,2.6938963c-0.1665115,0.2777319-0.3076305,0.5127354-0.4096861,0.6907682   c-0.1941614,0.3396626-0.4764614,0.84445-0.4298286,1.382555c0.0429707-0.4378977,0.2674074-0.838028,0.4298286-1.122118   C13.9590578,12.0259752,14.1001768,11.7909718,14.2666883,11.5132399z" fill="#FFFFFF" opacity="0.2"/><path d="M5.6740246,1.3378822l4.5016632-1.0417483   c0.4341011-0.0976639,0.885293,0.0081387,1.2310114,0.2807837c0.3510895,0.2756971,0.5669193,0.69789,0.5918226,1.1577241   l0.4907446,9.2029152c0-0.0296297,0.0108643-0.0567169,0.0092773-0.0866003l-0.5000219-9.3767519   c-0.0249033-0.4598342-0.2407331-0.8820271-0.5918226-1.1577241c-0.3457184-0.2726451-0.7969103-0.3784476-1.2310114-0.2807837   L5.6740246,1.077445C5.1998825,1.1893517,4.8048458,1.5332099,4.6168489,1.9991481   c-0.0990033,0.247021-0.1300716,0.5120997-0.1032758,0.771138c0.0098882-0.1734552,0.037416-0.3462746,0.1032758-0.5107009   C4.8048458,1.7936471,5.1998825,1.4497887,5.6740246,1.3378822z" fill="#FFFFFF" opacity="0.2"/><path d="M9.1970501,15.6372786c0.3537149-0.1580038,0.8771753-0.3965683,1.1394548-0.8726797   c-0.2958508,0.3069801-0.7059021,0.4862843-1.0035229,0.6122427c-0.1927576,0.0813866-0.4535723,0.1851549-0.7607756,0.3072348   c-0.8010001,0.3194427-1.897789,0.7568951-2.9101019,1.2441978c-0.4726772,0.2278824-0.8710709,0.3113022-1.2009807,0.3113022   c-0.3798385,0-0.6690359-0.1108875-0.8751607-0.2380543c-0.1104784-0.0680351-0.2070403-0.1548901-0.296644-0.2489929   c0.122503,0.2049923,0.27229,0.3853779,0.4631553,0.5094299c0.1953211,0.1271667,0.469259,0.2380562,0.829138,0.2380562   c0.3125138,0,0.6899719-0.0834217,1.1377454-0.3113041c0.9590268-0.4873028,1.9981351-0.9247551,2.7569575-1.2441978   C8.7673445,15.8224335,9.0144253,15.7186651,9.1970501,15.6372786z" fill="#010101" opacity="0.1"/><path d="M11.4484491,23.7395763c-0.217844,0-0.4447222-0.036623-0.6711721-0.1108875   l-2.9462972-0.9654484c-0.5545897-0.1824856-0.953289-0.5383606-1.1522722-0.9867496   c0.0008545,0.0038147,0.0012817,0.0083294,0.0021973,0.0121441c0.1362367,0.569706,0.5781503,1.0193672,1.212944,1.2350426   l2.8531528,0.9654484c0.2192488,0.0742645,0.4389849,0.1108894,0.649931,0.1108894   c0.3906431,0,0.7519865-0.1251335,1.0283661-0.3672581c0.1819534-0.1589584,0.3645182-0.419014,0.4744473-0.7945366   c-0.1120043,0.23246-0.2494621,0.4158344-0.3893604,0.5340996C12.2250338,23.6144447,11.8518486,23.7395763,11.4484491,23.7395763z   " fill="#010101" opacity="0.1"/><path d="M18.9105701,21.1482582c-0.3773975,0.520874-0.916605,0.8240395-1.4583778,0.8240395   c-0.0339375,0-0.067934-0.0020351-0.1019325-0.0040684c-0.4458809-0.031538-1.0865345-0.2756977-1.6095076-1.2635269   c-0.5204697-0.9817257-1.1378059-1.97159-1.5882654-2.6938972c-0.1729813-0.2777309-0.3195333-0.5127354-0.4250679-0.6907673   c-0.0298471-0.0501671-0.0623808-0.1056767-0.0950356-0.1625824c0.0740385,0.1579399,0.1554022,0.301321,0.2251072,0.4230194   c0.1015673,0.1780319,0.2426863,0.4130363,0.4091978,0.6907673c0.4336128,0.7223072,1.0278778,1.7121716,1.5288763,2.6938972   c0.5034409,0.9878292,1.1201668,1.2319889,1.5493851,1.2635269c0.0327148,0.0020332,0.0654316,0.0040684,0.0981483,0.0040684   c0.5215073,0,1.0405731-0.3031654,1.4038696-0.8240395l1.7637501-2.5280704   c0.1024227-0.1468143,0.1820755-0.3006859,0.2445183-0.4571629c-0.0382099,0.0654907-0.0665321,0.1333961-0.1124325,0.1967258   L18.9105701,21.1482582z" fill="#010101" opacity="0.1"/><path d="M19.3422909,13.2691555c-1.0916615,0.192276-2.2212887,0.4750938-3.0460949,0.681613   c-0.3160534,0.0793514-0.5848637,0.1464958-0.7862883,0.192275c-0.2307844,0.0529013-0.5285273,0.1210632-0.836463,0.1210632   c-0.4088316,0-0.8359747-0.1200457-1.1499529-0.552412h-0.0004883c-0.0081186-0.0112543-0.0113535-0.0226355-0.0190439-0.0338898   c0.0379658,0.0981731,0.0886879,0.1965361,0.156745,0.2943268h0.0004883   c0.3022594,0.4323664,0.7134104,0.552412,1.1069822,0.552412c0.2964001,0,0.5830336-0.068162,0.805212-0.1210632   c0.1938562-0.0457792,0.4526558-0.1129236,0.7568684-0.192275c0.7939816-0.2065191,1.8814316-0.489337,2.9322586-0.681613   c1.0400238-0.1901779,1.4561806-0.7116241,1.6233635-1.1237068C20.6506367,12.7554026,20.203474,13.1175728,19.3422909,13.2691555z   " fill="#010101" opacity="0.1"/><path d="M11.5464144,12.1663675c-0.1475277,0.0478144-0.3056774,0.0732479-0.4673052,0.0732479   c-0.5362787,0-1.0267792-0.2746801-1.3118258-0.7334967L4.6136751,3.1758838   c0.0331435,0.0872362,0.0664091,0.1747904,0.114995,0.2556682l5.0002203,8.3350039   c0.2763796,0.4588165,0.7519865,0.7334967,1.2720289,0.7334967c0.156745,0,0.3100729-0.0254335,0.453145-0.0732479   c0.4533892-0.1496754,0.7864113-0.5139437,0.9426689-0.9569283C12.2078209,11.7902718,11.9181356,12.0474033,11.5464144,12.1663675   z" fill="#010101" opacity="0.1"/><linearGradient gradientUnits="userSpaceOnUse" id="SVGID_1_" x1="3.0000174" x2="20.9999828" y1="12" y2="12"><stop offset="0" style="stop-color:#FFFFFF;stop-opacity:0.2"/><stop offset="1" style="stop-color:#FFFFFF;stop-opacity:0"/></linearGradient><path d="M12.6826353,18.5511627c-0.0219727-0.3286133-0.0405264-0.6073608-0.0585918-0.8138428   c-0.0478506-0.550415-0.1279259-1.4710693-0.9853821-1.7620249h-0.0009766   c-0.8559914-0.289978-1.440506,0.4058847-1.7896776,0.8220224c-0.1313429,0.1556396-0.3027248,0.3682251-0.5043783,0.6185303   c-0.5254354,0.6530762-1.2456884,1.5483398-1.9874253,2.3469849c-0.7461314,0.8036499-0.7788453,1.4903564-0.6752715,1.9257813   c0.1362262,0.5697021,0.5781064,1.0193481,1.2129135,1.2350464l2.8531818,0.9654541   c0.2192307,0.0742798,0.4389505,0.1109009,0.6498814,0.1109009c0.3906736,0,0.7519903-0.1251221,1.02841-0.3672485   c0.3295794-0.2879028,0.6909571-0.8637085,0.5409985-1.9716187C12.8173962,20.5634308,12.7397623,19.3996124,12.6826353,18.5511627   z M9.1970272,15.6372824c0.4873505-0.2177124,1.3033037-0.5819092,1.3033037-1.5209351   c0-0.9389648-0.8159533-1.3032227-1.3033037-1.5209351c-0.1826115-0.0813599-0.4296741-0.1851196-0.7207413-0.3071899   c-0.7587657-0.319458-1.7979174-0.756897-2.7569327-1.2442017c-0.9629211-0.4893188-1.6011457-0.3103027-1.966857-0.0732422   c-0.4712377,0.3062134-0.7524788,0.8983154-0.7524788,1.5829468v3.1252441c0,0.6846933,0.2812412,1.2767344,0.7524788,1.5829477   c0.1953063,0.1271973,0.4692235,0.2380981,0.8291364,0.2380981c0.3124905,0,0.689981-0.0834351,1.1377206-0.3113403   c0.9590154-0.4873047,1.998167-0.9247437,2.7569327-1.2442026C8.7673531,15.822402,9.0144157,15.7186422,9.1970272,15.6372824z    M9.7288704,11.7665548c0.2764196,0.4588013,0.7519903,0.7334595,1.2720547,0.7334595   c0.1567335,0,0.3100491-0.0253906,0.4531107-0.0732422c0.6533613-0.2156372,1.0826073-0.8637085,1.0445232-1.5758057   l-0.5000458-9.37677c-0.0249014-0.4598389-0.240715-0.882019-0.5918388-1.1577148   c-0.3456926-0.272644-0.7969112-0.378479-1.2309799-0.2808228l-4.501689,1.041748   c-0.4741063,0.1119385-0.869174,0.4558105-1.0571566,0.9217529C4.4293547,2.4671164,4.4708576,3.0022116,4.728662,3.4315329   L9.7288704,11.7665548z M19.2625065,15.9944601c-1.0508099-0.1923218-2.1382999-0.4750977-2.9322205-0.6816406   c-0.3042507-0.0793457-0.5630312-0.1464844-0.7568731-0.1922607c-0.5166464-0.1231079-1.3824024-0.3265991-1.9122324,0.4313354   h-0.0004883c-0.5287914,0.7599497-0.0747042,1.5545053,0.1967716,2.0285654   c0.1016197,0.1780396,0.2427292,0.4130249,0.4092274,0.6907959c0.4335804,0.72229,1.0278606,1.7121582,1.528883,2.6938477   c0.5034027,0.987854,1.120142,1.2319946,1.5493889,1.2635498c0.0327148,0.0020142,0.0654278,0.0040894,0.0981426,0.0040894   c0.5215282,0,1.040556-0.3031616,1.4038868-0.8240356l1.7637367-2.5280762   c0.3867073-0.5544434,0.4926605-1.2055664,0.2846603-1.7416992C20.7337723,16.7238922,20.3196621,16.1877594,19.2625065,15.9944601   z M13.6611805,13.9721212c0.3022976,0.432373,0.713418,0.5524292,1.1070213,0.5524292   c0.2963772,0,0.5829897-0.0681763,0.8052111-0.1210938c0.1938419-0.0457764,0.4526224-0.112915,0.7568731-0.1922607   c0.7939205-0.206543,1.8814106-0.4893188,2.9322205-0.6816406c1.0571556-0.1932983,1.4712658-0.7294312,1.6328831-1.1444702   c0.2080002-0.5361328,0.102047-1.1872559-0.2846603-1.7416992l-1.7637367-2.5280762   c-0.3857918-0.5534058-0.9468708-0.8515015-1.5020294-0.8199463c-0.4292469,0.0315552-1.0459862,0.2756958-1.5493889,1.2635498   c-0.5010223,0.9816895-1.0953026,1.9715576-1.528883,2.6938477c-0.1664982,0.277771-0.3076077,0.5127563-0.4097157,0.6907959   c-0.2709875,0.4740601-0.7250748,1.2686157-0.1962833,2.0285645H13.6611805z" fill="url(#SVGID_1_)"/></g><g/><g/><g/><g/><g/><g/><g/><g/><g/><g/><g/><g/><g/><g/><g/></svg>