<?xml version="1.0" ?><svg enable-background="new 0 0 24 24" id="Layer_1" version="1.1" viewBox="0 0 24 24" xml:space="preserve" xmlns="http://www.w3.org/2000/svg" xmlns:xlink="http://www.w3.org/1999/xlink"><g><path d="M20.934082,3.673178l-1.8989258-0.2373338c-4.6513672-0.5811255-9.4189453-0.5811255-14.0703125,0   L3.065918,3.673178C1.3178711,3.8919547,0,5.3853011,0,7.1467466v9.7043085c0,1.761446,1.3178711,3.2547932,3.065918,3.4735699   l1.8989258,0.2373333C7.2905273,20.8525219,9.6577148,21,12,21s4.7094727-0.1474781,7.0351563-0.4380417l1.8989258-0.2373333   C22.6821289,20.1058483,24,18.6125011,24,16.8510551V7.1467466C24,5.3853011,22.6821289,3.8919547,20.934082,3.673178z" fill="#EE3325"/><path d="M20.934082,3.675293l-1.8989258-0.2373047   c-4.6513672-0.5810547-9.4189453-0.5810547-14.0703125,0L3.065918,3.675293C1.3178711,3.894043,0,5.387207,0,7.1484375v0.25   C0,5.637207,1.3178711,4.144043,3.065918,3.925293l1.8989258-0.2373047c4.6513672-0.5810547,9.4189453-0.5810547,14.0703125,0   L20.934082,3.925293C22.6821289,4.144043,24,5.637207,24,7.3984375v-0.25C24,5.387207,22.6821289,3.894043,20.934082,3.675293z" fill="#FFFFFF" opacity="0.2"/><path d="M20.934082,20.0731449l-1.8989258,0.2373047   C16.7094727,20.6009769,14.3422852,20.7484379,12,20.7484379s-4.7094727-0.1474609-7.0351563-0.4379883L3.065918,20.0731449   C1.3178711,19.8543949,0,18.3612309,0,16.6000004v0.25c0,1.7612305,1.3178711,3.2543945,3.065918,3.4731445l1.8989258,0.2373047   C7.2905273,20.8509769,9.6577148,20.9984379,12,20.9984379s4.7094727-0.1474609,7.0351563-0.4379883l1.8989258-0.2373047   C22.6821289,20.1043949,24,18.6112309,24,16.8500004v-0.25C24,18.3612309,22.6821289,19.8543949,20.934082,20.0731449z" fill="#010101" opacity="0.1"/><g id="XMLID_1334_"><polygon fill="#FFFFFF" points="9.5,7.5 9.5,16.5 16.5,12   "/></g><g id="XMLID_1304_"><linearGradient gradientUnits="userSpaceOnUse" id="SVGID_1_" x1="9" x2="14.75" y1="8" y2="13.75"><stop offset="0" style="stop-color:#010101;stop-opacity:0"/><stop offset="1" style="stop-color:#010101;stop-opacity:0.1"/></linearGradient><polygon fill="url(#SVGID_1_)" points="9.5,7.5 9.5,12 16.5,12   "/></g><linearGradient gradientUnits="userSpaceOnUse" id="SVGID_2_" x1="12.375" x2="20.5165157" y1="13.625" y2="21.7665157"><stop offset="0" style="stop-color:#010101;stop-opacity:0.1"/><stop offset="1" style="stop-color:#010101;stop-opacity:0"/></linearGradient><path d="M16.5,12l-7,4.5l4.4394531,4.4394531c1.7039795-0.0585938,3.4100342-0.1668701,5.0957031-0.3774414   l1.8989258-0.2373047c1.0109863-0.1265259,1.8678589-0.6869507,2.4193115-1.4713135L16.5,12z" fill="url(#SVGID_2_)"/><linearGradient gradientUnits="userSpaceOnUse" id="SVGID_3_" x1="-0.0117154" x2="24.0117149" y1="6.3977466" y2="17.6000557"><stop offset="0" style="stop-color:#FFFFFF;stop-opacity:0.2"/><stop offset="1" style="stop-color:#FFFFFF;stop-opacity:0"/></linearGradient><path d="M20.934082,3.673178l-1.8989258-0.2373338c-4.6513672-0.5811255-9.4189453-0.5811255-14.0703125,0   L3.065918,3.673178C1.3178711,3.8919547,0,5.3853011,0,7.1467466v9.7043085c0,1.761446,1.3178711,3.2547932,3.065918,3.4735699   l1.8989258,0.2373333C7.2905273,20.8525219,9.6577148,21,12,21s4.7094727-0.1474781,7.0351563-0.4380417l1.8989258-0.2373333   C22.6821289,20.1058483,24,18.6125011,24,16.8510551V7.1467466C24,5.3853011,22.6821289,3.8919547,20.934082,3.673178z" fill="url(#SVGID_3_)"/></g><g/><g/><g/><g/><g/><g/><g/><g/><g/><g/><g/><g/><g/><g/><g/></svg>