<?xml version="1.0" ?><svg enable-background="new 0 0 24 24" id="Layer_1" version="1.1" viewBox="0 0 24 24" xml:space="preserve" xmlns="http://www.w3.org/2000/svg" xmlns:xlink="http://www.w3.org/1999/xlink"><g><radialGradient cx="8.833333" cy="6.1666665" gradientUnits="userSpaceOnUse" id="SVGID_1_" r="17.5882702"><stop offset="0" style="stop-color:#4B1325;stop-opacity:0.98"/><stop offset="1" style="stop-color:#1A1107"/></radialGradient><rect fill="url(#SVGID_1_)" height="21" width="21" x="1.5" y="1.5"/><path d="M23,23H1V1h22V23z M2,22h20V2H2V22z" fill="#EE3D8B"/><rect fill="#EE3D8B" height="12" width="2" x="8" y="6"/><path d="M18,18l-3.3992376,0.0000019c-1.6701956,0.0000019-3.1901751-1.1286469-3.5253792-2.7648592   C10.6145458,12.9856796,12.3300562,11,14.5,11H16V8h2V18z M14.5,13c-0.8271484,0-1.5,0.6728516-1.5,1.5s0.6728516,1.5,1.5,1.5H16   v-3H14.5z" fill="#EE3D8B"/><linearGradient gradientUnits="userSpaceOnUse" id="SVGID_2_" x1="-1.2485763" x2="25.2485771" y1="5.8220873" y2="18.1779118"><stop offset="0" style="stop-color:#FFFFFF;stop-opacity:0.2"/><stop offset="1" style="stop-color:#FFFFFF;stop-opacity:0"/></linearGradient><path d="M23,23H1V1h22V23z" fill="url(#SVGID_2_)"/></g><g/><g/><g/><g/><g/><g/><g/><g/><g/><g/><g/><g/><g/><g/><g/></svg>