<?xml version="1.0" ?><svg enable-background="new 0 0 24 24" id="Layer_1" version="1.1" viewBox="0 0 24 24" xml:space="preserve" xmlns="http://www.w3.org/2000/svg" xmlns:xlink="http://www.w3.org/1999/xlink"><g><polygon fill="#007EE5" points="12,5.5 6,9.5 0,5.5 6,1.5  "/><polygon fill="#007EE5" points="12,5.5 18,9.5 24,5.5 18,1.5  "/><polygon fill="#007EE5" points="12,13.5 18,17.5 24,13.5 18,9.5  "/><polygon fill="#007EE5" points="6,18.5 12,22.5 18,18.5 12,14.5  "/><polygon fill="#007EE5" points="12,13.5 6,17.5 0,13.5 6,9.5  "/><linearGradient gradientUnits="userSpaceOnUse" id="SVGID_1_" x1="0.1894485" x2="22.9670773" y1="5.0937266" y2="15.7151089"><stop offset="0" style="stop-color:#FFFFFF;stop-opacity:0.2"/><stop offset="1" style="stop-color:#FFFFFF;stop-opacity:0"/></linearGradient><path d="M6,1.5l-6,4l6,4l6-4L6,1.5z M24,5.5l-6-4l-6,4l6,4L24,5.5z M12,13.5l6,4l6-4l-6-4L12,13.5z M6,18.5   l6,4l6-4l-6-4L6,18.5z M0,13.5l6,4l6-4l-6-4L0,13.5z" fill="url(#SVGID_1_)"/></g><g/><g/><g/><g/><g/><g/><g/><g/><g/><g/><g/><g/><g/><g/><g/></svg>