<?xml version="1.0" ?><svg enable-background="new 0 0 24 24" id="Layer_1" version="1.1" viewBox="0 0 24 24" xml:space="preserve" xmlns="http://www.w3.org/2000/svg" xmlns:xlink="http://www.w3.org/1999/xlink"><g><path d="M20,2h-0.5L0,21.5V22c0,1.1030273,0.8969727,2,2,2h0.6594238L22,4.4044189V4   C22,2.8969727,21.1030273,2,20,2z" fill="#FDDC49"/><path d="M2,2C0.8969727,2,0,2.8969727,0,4v17.5L19.5,2H2z" fill="#56A959"/><polygon fill="#5796FF" points="2.6594238,24 19.5,24 11.0245972,15.5245972  "/><polygon fill="#CCCCCC" points="13.5081787,13.0081787 22,21.5 22,4.4044189  "/><path d="M11.0245972,15.5245972L19.5,24H20c1.1030273,0,2-0.8969727,2-2v-0.5l-8.4918213-8.4918213   L11.0245972,15.5245972z" fill="#F2F2F2"/><path d="M20,2H2C0.8969727,2,0,2.8969727,0,4v0.25c0-1.1030273,0.8969727-2,2-2h18   c1.1030273,0,2,0.8969727,2,2V4C22,2.8969727,21.1030273,2,20,2z" fill="#FFFFFF" opacity="0.2"/><path d="M20,23.75H2c-1.1030273,0-2-0.8969727-2-2V22c0,1.1030273,0.8969727,2,2,2h18c1.1030273,0,2-0.8969727,2-2   v-0.25C22,22.8530273,21.1030273,23.75,20,23.75z" opacity="0.1"/><path d="M18,0c-3.3085938,0-6,2.6914062-6,6c0,0.2338867,0.0161133,0.4633789,0.0415039,0.6816406   c0.2084961,2.1323242,1.3486328,3.8886719,2.5561523,5.7475586c1.1870117,1.8276367,2.4140625,3.7172852,2.9125977,6.1704102   C17.5571289,18.8325195,17.762207,19,18,19s0.4428711-0.1674805,0.4897461-0.4003906   c0.4985352-2.453125,1.7255859-4.3427734,2.9125977-6.1704102C22.6098633,10.5703125,23.75,8.8139648,23.9575195,6.6899414   C23.9838867,6.4633789,24,6.2338867,24,6C24,2.6914062,21.3085938,0,18,0z" fill="#E53935"/><path d="M18,0.25c2.6693726,0,4.9413242,1.7137717,5.7706089,4.1043358   C23.0560703,1.8394431,20.7409058,0,18,0s-5.0542164,1.8329653-5.768755,4.347858C13.0605297,1.9572939,15.3306274,0.25,18,0.25z" fill="#FFFFFF" opacity="0.2"/><path d="M23.9575195,6.4399414C23.75,8.5639648,22.6098633,10.3203125,21.4023438,12.1791992   c-1.1870117,1.8276367-2.4140625,3.7172852-2.9125977,6.1704102C18.4428711,18.5825195,18.237793,18.75,18,18.75   s-0.4428711-0.1674805-0.4897461-0.4003906c-0.4985352-2.453125-1.7255859-4.3427734-2.9125977-6.1704102   C13.3901367,10.3203125,12.25,8.5639648,12.0415039,6.4316406c-0.0211792-0.1819458-0.0302734-0.3745728-0.0346069-0.5681763   C12.0058594,5.9093018,12,5.9539185,12,6c0,0.2338867,0.0161133,0.4633789,0.0415039,0.6816406   c0.2084961,2.1323242,1.3486328,3.8886719,2.5561523,5.7475586c1.1870117,1.8276367,2.4140625,3.7172852,2.9125977,6.1704102   C17.5571289,18.8325195,17.762207,19,18,19s0.4428711-0.1674805,0.4897461-0.4003906   c0.4985352-2.453125,1.7255859-4.3427734,2.9125977-6.1704102C22.6098633,10.5703125,23.75,8.8139648,23.9575195,6.6899414   C23.9838867,6.4633789,24,6.2338867,24,6c0-0.0463257-0.0059204-0.0911255-0.006958-0.137207   C23.9887695,6.057251,23.9795532,6.2504272,23.9575195,6.4399414z" opacity="0.1"/><circle cx="18" cy="6" fill="#B71C1C" r="2"/><circle cx="18" cy="6" opacity="0.1" r="2"/><path d="M5.5,10.5c-1.6542969,0-3-1.3457031-3-3s1.3457031-3,3-3   c0.6557617,0,1.2788086,0.2080078,1.8022461,0.6010742L6.7016602,5.9008789C6.3525391,5.6386719,5.9370117,5.5,5.5,5.5   c-1.1030273,0-2,0.8969727-2,2s0.8969727,2,2,2c0.9301758,0,1.7143555-0.6381836,1.9365234-1.5H6V7h2.5v0.5   C8.5,9.1542969,7.1542969,10.5,5.5,10.5z" fill="#F2F2F2"/><linearGradient gradientUnits="userSpaceOnUse" id="SVGID_1_" x1="-1.3687702" x2="23.9358921" y1="6.4920235" y2="18.2917805"><stop offset="0" style="stop-color:#FFFFFF;stop-opacity:0.2"/><stop offset="1" style="stop-color:#FFFFFF;stop-opacity:0"/></linearGradient><path d="M24,6c0-3.3085938-2.6914062-6-6-6c-1.7710571,0-3.3603516,0.7757568-4.4595337,2H2   C0.8969727,2,0,2.8969727,0,4v18c0,1.1030273,0.8969727,2,2,2h18c1.1030273,0,2-0.8969727,2-2V11.4970093   c0.9649658-1.5283203,1.7849121-3.0406494,1.9575195-4.8070679C23.9838867,6.4633789,24,6.2338867,24,6z" fill="url(#SVGID_1_)"/></g><g/><g/><g/><g/><g/><g/><g/><g/><g/><g/><g/><g/><g/><g/><g/></svg>