<?xml version="1.0" ?><svg enable-background="new 0 0 24 24" id="Layer_1" version="1.1" viewBox="0 0 24 24" xml:space="preserve" xmlns="http://www.w3.org/2000/svg" xmlns:xlink="http://www.w3.org/1999/xlink"><g><linearGradient gradientUnits="userSpaceOnUse" id="SVGID_1_" x1="0" x2="24" y1="12" y2="12"><stop offset="0" style="stop-color:#95DCF6"/><stop offset="1" style="stop-color:#507EFF"/></linearGradient><path d="M20.4970703,10.6772461C20.4990234,10.6186523,20.5,10.5595703,20.5,10.5   C20.5,6.9160156,17.5839844,4,14,4c-2.3662109,0-4.5400391,1.2973633-5.6796875,3.347168C7.8291016,7.1191406,7.2949219,7,6.75,7   c-1.9355469,0-3.5341797,1.4746094-3.7246094,3.4257812C1.203125,11.2114258,0,13.0097656,0,15c0,2.7568359,2.2431641,5,5,5h14.25   c2.6191406,0,4.75-2.1308594,4.75-4.75C24,13.0883789,22.5517578,11.2319336,20.4970703,10.6772461z" fill="url(#SVGID_1_)"/><radialGradient cx="12.333333" cy="19.75" gradientUnits="userSpaceOnUse" id="SVGID_2_" r="10.1980391"><stop offset="0" style="stop-color:#009ADA"/><stop offset="1" style="stop-color:#1E88E5;stop-opacity:0"/></radialGradient><path d="M20.4970703,10.6772461C20.4990234,10.6186523,20.5,10.5595703,20.5,10.5   C20.5,6.9160156,17.5839844,4,14,4c-2.3662109,0-4.5400391,1.2973633-5.6796875,3.347168C7.8291016,7.1191406,7.2949219,7,6.75,7   c-1.9355469,0-3.5341797,1.4746094-3.7246094,3.4257812C1.203125,11.2114258,0,13.0097656,0,15c0,2.7568359,2.2431641,5,5,5h14.25   c2.6191406,0,4.75-2.1308594,4.75-4.75C24,13.0883789,22.5517578,11.2319336,20.4970703,10.6772461z" fill="url(#SVGID_2_)"/><linearGradient gradientUnits="userSpaceOnUse" id="SVGID_3_" x1="14.9440107" x2="23.5559902" y1="13.2420845" y2="17.2579155"><stop offset="0" style="stop-color:#FFFFFF;stop-opacity:0.06"/><stop offset="1" style="stop-color:#FFFFFF;stop-opacity:0"/></linearGradient><circle cx="19.25" cy="15.25" fill="url(#SVGID_3_)" r="4.75"/><linearGradient gradientUnits="userSpaceOnUse" id="SVGID_4_" x1="8.5935068" x2="1.3435068" y1="12.5630245" y2="17.4796906"><stop offset="0" style="stop-color:#FFFFFF;stop-opacity:0"/><stop offset="1" style="stop-color:#FFFFFF;stop-opacity:0.06"/></linearGradient><circle cx="5" cy="15" fill="url(#SVGID_4_)" r="5"/><circle cx="6.75" cy="10.75" fill="#56C7DA" opacity="0.2" r="3.75"/><linearGradient gradientUnits="userSpaceOnUse" id="SVGID_5_" x1="14" x2="14" y1="4" y2="17"><stop offset="0" style="stop-color:#00ACCD;stop-opacity:0.2"/><stop offset="0.1274437" style="stop-color:#1AB4D2;stop-opacity:0.1745113"/><stop offset="0.4001057" style="stop-color:#5CCADF;stop-opacity:0.1199789"/><stop offset="0.7929201" style="stop-color:#C5ECF4;stop-opacity:0.041416"/><stop offset="1" style="stop-color:#FFFFFF;stop-opacity:0"/></linearGradient><circle cx="14" cy="10.5" fill="url(#SVGID_5_)" r="6.5"/><linearGradient gradientUnits="userSpaceOnUse" id="SVGID_6_" x1="2.4570346" x2="23.0878239" y1="8.6383133" y2="18.2586079"><stop offset="0" style="stop-color:#FFFFFF;stop-opacity:0.1"/><stop offset="1" style="stop-color:#FFFFFF;stop-opacity:0"/></linearGradient><path d="M20.4970703,10.6772461C20.4990234,10.6186523,20.5,10.5595703,20.5,10.5   C20.5,6.9160156,17.5839844,4,14,4c-2.3662109,0-4.5400391,1.2973633-5.6796875,3.347168C7.8291016,7.1191406,7.2949219,7,6.75,7   c-1.9355469,0-3.5341797,1.4746094-3.7246094,3.4257812C1.203125,11.2114258,0,13.0097656,0,15c0,2.7568359,2.2431641,5,5,5h14.25   c2.6191406,0,4.75-2.1308594,4.75-4.75C24,13.0883789,22.5517578,11.2319336,20.4970703,10.6772461z" fill="url(#SVGID_6_)"/></g><g/><g/><g/><g/><g/><g/><g/><g/><g/><g/><g/><g/><g/><g/><g/></svg>