<?xml version="1.0" ?><svg enable-background="new 0 0 24 24" id="Layer_1" version="1.1" viewBox="0 0 24 24" xml:space="preserve" xmlns="http://www.w3.org/2000/svg" xmlns:xlink="http://www.w3.org/1999/xlink"><g><path d="M12,0C5.3725586,0,0,5.3725586,0,12c0,6.6273804,5.3725586,12,12,12s12-5.3726196,12-12   C24,5.3725586,18.6274414,0,12,0z M12.5,20.5C8.9101562,20.5,6,16.694397,6,12c0-4.694458,2.9101562-8.5,6.5-8.5S19,7.305542,19,12   C19,16.694397,16.0898438,20.5,12.5,20.5z" fill="#EE3124"/><linearGradient gradientUnits="userSpaceOnUse" id="SVGID_1_" x1="14.3602533" x2="10.0685873" y1="20.6389751" y2="4.9306426"><stop offset="0" style="stop-color:#F2F2F2;stop-opacity:0.1"/><stop offset="0.3412152" style="stop-color:#969696;stop-opacity:0.1682431"/><stop offset="0.6626381" style="stop-color:#454545;stop-opacity:0.2325276"/><stop offset="0.8887917" style="stop-color:#131313;stop-opacity:0.2777584"/><stop offset="1" style="stop-color:#000000;stop-opacity:0.3"/></linearGradient><path d="M12,0C5.3725586,0,0,5.3725586,0,12c0,6.6273804,5.3725586,12,12,12s12-5.3726196,12-12   C24,5.3725586,18.6274414,0,12,0z M12.5,20.5C8.9101562,20.5,6,16.694397,6,12c0-4.694458,2.9101562-8.5,6.5-8.5S19,7.305542,19,12   C19,16.694397,16.0898438,20.5,12.5,20.5z" fill="url(#SVGID_1_)"/><path d="M16,22c-5.5228271,0-10-4.4771729-10-10C6,6.4771118,10.4771729,2,16,2   c1.2347412,0,2.4121094,0.234436,3.5039673,0.6436768C17.4483643,0.9929199,14.8416138,0,12,0C5.3725586,0,0,5.3725586,0,12   c0,6.6273804,5.3725586,12,12,12c2.8416138,0,5.4483643-0.9928589,7.5039673-2.6436768C18.4121094,21.765564,17.2347412,22,16,22z" fill="#EE3124"/><linearGradient gradientUnits="userSpaceOnUse" id="SVGID_2_" x1="8.7173166" x2="12.5506496" y1="3.3560038" y2="20.5226707"><stop offset="0" style="stop-color:#FFFFFF;stop-opacity:0.1"/><stop offset="1" style="stop-color:#000000;stop-opacity:0.3"/></linearGradient><path d="M16,22c-5.5228271,0-10-4.4771729-10-10C6,6.4771118,10.4771729,2,16,2   c1.2347412,0,2.4121094,0.234436,3.5039673,0.6436768C17.4483643,0.9929199,14.8416138,0,12,0C5.3725586,0,0,5.3725586,0,12   c0,6.6273804,5.3725586,12,12,12c2.8416138,0,5.4483643-0.9928589,7.5039673-2.6436768C18.4121094,21.765564,17.2347412,22,16,22z" fill="url(#SVGID_2_)"/><linearGradient gradientUnits="userSpaceOnUse" id="SVGID_3_" x1="1.1217058" x2="22.8782883" y1="6.9273629" y2="17.0726242"><stop offset="0" style="stop-color:#FFFFFF;stop-opacity:0.2"/><stop offset="1" style="stop-color:#FFFFFF;stop-opacity:0"/></linearGradient><path d="M12,0C5.3725586,0,0,5.3725586,0,12c0,6.6273804,5.3725586,12,12,12s12-5.3726196,12-12   C24,5.3725586,18.6274414,0,12,0z M12.5,20.5C8.9101562,20.5,6,16.694397,6,12c0-4.694458,2.9101562-8.5,6.5-8.5S19,7.305542,19,12   C19,16.694397,16.0898438,20.5,12.5,20.5z" fill="url(#SVGID_3_)"/></g><g/><g/><g/><g/><g/><g/><g/><g/><g/><g/><g/><g/><g/><g/><g/></svg>