<?xml version="1.0" ?><svg enable-background="new 0 0 24 24" id="Layer_1" version="1.1" viewBox="0 0 24 24" xml:space="preserve" xmlns="http://www.w3.org/2000/svg" xmlns:xlink="http://www.w3.org/1999/xlink"><g><linearGradient gradientUnits="userSpaceOnUse" id="SVGID_1_" x1="11.9999971" x2="11.9999971" y1="20" y2="3.9999995"><stop offset="0.1682959" style="stop-color:#15BEF0"/><stop offset="1" style="stop-color:#374499"/></linearGradient><circle cx="11.9999971" cy="11.999999" fill="url(#SVGID_1_)" r="8"/><linearGradient gradientUnits="userSpaceOnUse" id="SVGID_2_" x1="11.9999971" x2="11.9999971" y1="3.4999995" y2="20.5"><stop offset="0" style="stop-color:#000000;stop-opacity:0"/><stop offset="1" style="stop-color:#FFFFFF;stop-opacity:0.3"/></linearGradient><circle cx="11.9999971" cy="11.999999" fill="url(#SVGID_2_)" r="8.5"/><path d="M21.9531212,18.684082c1.6686478-2.4747028,2.3549843-5.4367781,1.9186211-8.4566059   c-0.7394104-5.1170554-4.8373165-9.2771244-9.9453516-10.0764723C5.8099632-1.1191223-1.119125,5.8099661,0.1510012,13.9263926   c0.799348,5.1080351,4.9594169,9.2059412,10.0764723,9.9453516c3.0198278,0.4363632,5.9819021-0.2499733,8.456605-1.9186192   L20.7975407,24h3.2024555v-3.2024574L21.9531212,18.684082z M9.4999971,11.999999   c0,0.668457,0.2602539,1.2958984,0.7382812,1.7734375l5.4770508,5.3046885C14.5688448,19.6826172,13.2963839,20,11.9999971,20   c-4.4111333,0-8-3.5888672-8-8.000001s3.5888669-7.9999995,8-7.9999995s7.999999,3.5888672,7.999999,7.9999995   c0,1.2963867-0.3173828,2.5688477-0.921875,3.715332l-5.3100576-5.4829102   c-0.472168-0.472168-1.0996094-0.7324219-1.7680664-0.7324219C10.6215792,9.499999,9.4999971,10.6215811,9.4999971,11.999999z" fill="#333333"/><radialGradient cx="11.333334" cy="-1.499992" gradientUnits="userSpaceOnUse" id="SVGID_3_" r="22.7699776"><stop offset="0" style="stop-color:#FFFFFF;stop-opacity:0.4"/><stop offset="1" style="stop-color:#FFFFFF;stop-opacity:0"/></radialGradient><path d="M21.9531212,18.684082c1.6686478-2.4747028,2.3549843-5.4367781,1.9186211-8.4566059   c-0.7394104-5.1170554-4.8373165-9.2771244-9.9453516-10.0764723C5.8099632-1.1191223-1.119125,5.8099661,0.1510012,13.9263926   c0.799348,5.1080351,4.9594169,9.2059412,10.0764723,9.9453516c3.0198278,0.4363632,5.9819021-0.2499733,8.456605-1.9186192   L20.7975407,24h3.2024555v-3.2024574L21.9531212,18.684082z M9.4999971,11.999999   c0,0.668457,0.2602539,1.2958984,0.7382812,1.7734375l5.4770508,5.3046885C14.5688448,19.6826172,13.2963839,20,11.9999971,20   c-4.4111333,0-8-3.5888672-8-8.000001s3.5888669-7.9999995,8-7.9999995s7.999999,3.5888672,7.999999,7.9999995   c0,1.2963867-0.3173828,2.5688477-0.921875,3.715332l-5.3100576-5.4829102   c-0.472168-0.472168-1.0996094-0.7324219-1.7680664-0.7324219C10.6215792,9.499999,9.4999971,10.6215811,9.4999971,11.999999z" fill="url(#SVGID_3_)"/><linearGradient gradientUnits="userSpaceOnUse" id="SVGID_4_" x1="1.1256232" x2="26.4537106" y1="6.9273109" y2="18.7379913"><stop offset="0" style="stop-color:#FFFFFF;stop-opacity:0.2"/><stop offset="1" style="stop-color:#FFFFFF;stop-opacity:0"/></linearGradient><path d="M21.9531212,18.684082c1.6686401-2.4747314,2.3549805-5.4367685,1.9186401-8.456605   c-0.7394409-5.117065-4.8373413-9.2771606-9.9453726-10.0764771C5.8099332-1.1191411-1.1191438,5.809936,0.1509978,13.9263906   c0.7993774,5.1080332,4.9594116,9.2059336,10.0764771,9.9453135c3.0198364,0.4364014,5.9818716-0.249939,8.4566031-1.9185791   L20.7975426,24h3.2024536v-3.2024536L21.9531212,18.684082z" fill="url(#SVGID_4_)"/></g><g/><g/><g/><g/><g/><g/><g/><g/><g/><g/><g/><g/><g/><g/><g/></svg>