<?xml version="1.0" encoding="UTF-8"?>
<svg width="127px" height="128px" viewBox="0 0 127 128" version="1.1" xmlns="http://www.w3.org/2000/svg" xmlns:xlink="http://www.w3.org/1999/xlink">
    <g id="Page-1" stroke="none" stroke-width="1" fill="none" fill-rule="evenodd" opacity="0.7">
        <g id="Dots-Square" transform="translate(-592.000000, -440.000000)" fill="#e7f6f0">
            <g id="Group-3" transform="translate(130.000000, 440.500000)">
                <g id="dots-copy-8" transform="translate(462.000000, 0.000000)">
                    <circle id="Oval-Copy-100" cx="125.194313" cy="125.194313" r="1.8056872"></circle>
                    <circle id="Oval-Copy-99" cx="111.350711" cy="125.194313" r="1.8056872"></circle>
                    <circle id="Oval-Copy-98" cx="98.1090047" cy="125.194313" r="1.8056872"></circle>
                    <circle id="Oval-Copy-97" cx="84.2654028" cy="125.194313" r="1.8056872"></circle>
                    <circle id="Oval-Copy-96" cx="70.4218009" cy="125.194313" r="1.8056872"></circle>
                    <circle id="Oval-Copy-95" cx="56.5781991" cy="125.194313" r="1.8056872"></circle>
                    <circle id="Oval-Copy-94" cx="42.7345972" cy="125.194313" r="1.8056872"></circle>
                    <circle id="Oval-Copy-93" cx="29.492891" cy="125.194313" r="1.8056872"></circle>
                    <circle id="Oval-Copy-92" cx="15.6492891" cy="125.194313" r="1.8056872"></circle>
                    <circle id="Oval-Copy-91" cx="1.8056872" cy="125.194313" r="1.8056872"></circle>
                    <circle id="Oval-Copy-90" cx="125.194313" cy="111.952607" r="1.8056872"></circle>
                    <circle id="Oval-Copy-89" cx="111.350711" cy="111.952607" r="1.8056872"></circle>
                    <circle id="Oval-Copy-88" cx="98.1090047" cy="111.952607" r="1.8056872"></circle>
                    <circle id="Oval-Copy-87" cx="84.2654028" cy="111.952607" r="1.8056872"></circle>
                    <circle id="Oval-Copy-86" cx="70.4218009" cy="111.952607" r="1.8056872"></circle>
                    <circle id="Oval-Copy-85" cx="56.5781991" cy="111.952607" r="1.8056872"></circle>
                    <circle id="Oval-Copy-84" cx="42.7345972" cy="111.952607" r="1.8056872"></circle>
                    <circle id="Oval-Copy-83" cx="29.492891" cy="111.952607" r="1.8056872"></circle>
                    <circle id="Oval-Copy-82" cx="15.6492891" cy="111.952607" r="1.8056872"></circle>
                    <circle id="Oval-Copy-81" cx="1.8056872" cy="111.952607" r="1.8056872"></circle>
                    <circle id="Oval-Copy-80" cx="125.194313" cy="98.1090047" r="1.8056872"></circle>
                    <circle id="Oval-Copy-79" cx="111.350711" cy="98.1090047" r="1.8056872"></circle>
                    <circle id="Oval-Copy-78" cx="98.1090047" cy="98.1090047" r="1.8056872"></circle>
                    <circle id="Oval-Copy-77" cx="84.2654028" cy="98.1090047" r="1.8056872"></circle>
                    <circle id="Oval-Copy-76" cx="70.4218009" cy="98.1090047" r="1.8056872"></circle>
                    <circle id="Oval-Copy-75" cx="56.5781991" cy="98.1090047" r="1.8056872"></circle>
                    <circle id="Oval-Copy-74" cx="42.7345972" cy="98.1090047" r="1.8056872"></circle>
                    <circle id="Oval-Copy-73" cx="29.492891" cy="98.1090047" r="1.8056872"></circle>
                    <circle id="Oval-Copy-72" cx="15.6492891" cy="98.1090047" r="1.8056872"></circle>
                    <circle id="Oval-Copy-71" cx="1.8056872" cy="98.1090047" r="1.8056872"></circle>
                    <circle id="Oval-Copy-70" cx="125.194313" cy="84.2654028" r="1.8056872"></circle>
                    <circle id="Oval-Copy-69" cx="111.350711" cy="84.2654028" r="1.8056872"></circle>
                    <circle id="Oval-Copy-68" cx="98.1090047" cy="84.2654028" r="1.8056872"></circle>
                    <circle id="Oval-Copy-67" cx="84.2654028" cy="84.2654028" r="1.8056872"></circle>
                    <circle id="Oval-Copy-66" cx="70.4218009" cy="84.2654028" r="1.8056872"></circle>
                    <circle id="Oval-Copy-65" cx="56.5781991" cy="84.2654028" r="1.8056872"></circle>
                    <circle id="Oval-Copy-64" cx="42.7345972" cy="84.2654028" r="1.8056872"></circle>
                    <circle id="Oval-Copy-63" cx="29.492891" cy="84.2654028" r="1.8056872"></circle>
                    <circle id="Oval-Copy-62" cx="15.6492891" cy="84.2654028" r="1.8056872"></circle>
                    <circle id="Oval-Copy-61" cx="1.8056872" cy="84.2654028" r="1.8056872"></circle>
                    <circle id="Oval-Copy-60" cx="125.194313" cy="70.4218009" r="1.8056872"></circle>
                    <circle id="Oval-Copy-59" cx="111.350711" cy="70.4218009" r="1.8056872"></circle>
                    <circle id="Oval-Copy-58" cx="98.1090047" cy="70.4218009" r="1.8056872"></circle>
                    <circle id="Oval-Copy-57" cx="84.2654028" cy="70.4218009" r="1.8056872"></circle>
                    <circle id="Oval-Copy-56" cx="70.4218009" cy="70.4218009" r="1.8056872"></circle>
                    <circle id="Oval-Copy-55" cx="56.5781991" cy="70.4218009" r="1.8056872"></circle>
                    <circle id="Oval-Copy-54" cx="42.7345972" cy="70.4218009" r="1.8056872"></circle>
                    <circle id="Oval-Copy-53" cx="29.492891" cy="70.4218009" r="1.8056872"></circle>
                    <circle id="Oval-Copy-52" cx="15.6492891" cy="70.4218009" r="1.8056872"></circle>
                    <circle id="Oval-Copy-51" cx="1.8056872" cy="70.4218009" r="1.8056872"></circle>
                    <circle id="Oval-Copy-50" cx="125.194313" cy="56.5781991" r="1.8056872"></circle>
                    <circle id="Oval-Copy-49" cx="111.350711" cy="56.5781991" r="1.8056872"></circle>
                    <circle id="Oval-Copy-48" cx="98.1090047" cy="56.5781991" r="1.8056872"></circle>
                    <circle id="Oval-Copy-47" cx="84.2654028" cy="56.5781991" r="1.8056872"></circle>
                    <circle id="Oval-Copy-46" cx="70.4218009" cy="56.5781991" r="1.8056872"></circle>
                    <circle id="Oval-Copy-45" cx="56.5781991" cy="56.5781991" r="1.8056872"></circle>
                    <circle id="Oval-Copy-44" cx="42.7345972" cy="56.5781991" r="1.8056872"></circle>
                    <circle id="Oval-Copy-43" cx="29.492891" cy="56.5781991" r="1.8056872"></circle>
                    <circle id="Oval-Copy-42" cx="15.6492891" cy="56.5781991" r="1.8056872"></circle>
                    <circle id="Oval-Copy-41" cx="1.8056872" cy="56.5781991" r="1.8056872"></circle>
                    <circle id="Oval-Copy-40" cx="125.194313" cy="42.7345972" r="1.8056872"></circle>
                    <circle id="Oval-Copy-39" cx="111.350711" cy="42.7345972" r="1.8056872"></circle>
                    <circle id="Oval-Copy-38" cx="98.1090047" cy="42.7345972" r="1.8056872"></circle>
                    <circle id="Oval-Copy-37" cx="84.2654028" cy="42.7345972" r="1.8056872"></circle>
                    <circle id="Oval-Copy-36" cx="70.4218009" cy="42.7345972" r="1.8056872"></circle>
                    <circle id="Oval-Copy-35" cx="56.5781991" cy="42.7345972" r="1.8056872"></circle>
                    <circle id="Oval-Copy-34" cx="42.7345972" cy="42.7345972" r="1.8056872"></circle>
                    <circle id="Oval-Copy-33" cx="29.492891" cy="42.7345972" r="1.8056872"></circle>
                    <circle id="Oval-Copy-32" cx="15.6492891" cy="42.7345972" r="1.8056872"></circle>
                    <circle id="Oval-Copy-31" cx="1.8056872" cy="42.7345972" r="1.8056872"></circle>
                    <circle id="Oval-Copy-30" cx="125.194313" cy="29.492891" r="1.8056872"></circle>
                    <circle id="Oval-Copy-29" cx="111.350711" cy="29.492891" r="1.8056872"></circle>
                    <circle id="Oval-Copy-28" cx="98.1090047" cy="29.492891" r="1.8056872"></circle>
                    <circle id="Oval-Copy-27" cx="84.2654028" cy="29.492891" r="1.8056872"></circle>
                    <circle id="Oval-Copy-26" cx="70.4218009" cy="29.492891" r="1.8056872"></circle>
                    <circle id="Oval-Copy-25" cx="56.5781991" cy="29.492891" r="1.8056872"></circle>
                    <circle id="Oval-Copy-24" cx="42.7345972" cy="29.492891" r="1.8056872"></circle>
                    <circle id="Oval-Copy-23" cx="29.492891" cy="29.492891" r="1.8056872"></circle>
                    <circle id="Oval-Copy-22" cx="15.6492891" cy="29.492891" r="1.8056872"></circle>
                    <circle id="Oval-Copy-21" cx="1.8056872" cy="29.492891" r="1.8056872"></circle>
                    <circle id="Oval-Copy-20" cx="125.194313" cy="15.6492891" r="1.8056872"></circle>
                    <circle id="Oval-Copy-19" cx="111.350711" cy="15.6492891" r="1.8056872"></circle>
                    <circle id="Oval-Copy-18" cx="98.1090047" cy="15.6492891" r="1.8056872"></circle>
                    <circle id="Oval-Copy-17" cx="84.2654028" cy="15.6492891" r="1.8056872"></circle>
                    <circle id="Oval-Copy-16" cx="70.4218009" cy="15.6492891" r="1.8056872"></circle>
                    <circle id="Oval-Copy-15" cx="56.5781991" cy="15.6492891" r="1.8056872"></circle>
                    <circle id="Oval-Copy-14" cx="42.7345972" cy="15.6492891" r="1.8056872"></circle>
                    <circle id="Oval-Copy-13" cx="29.492891" cy="15.6492891" r="1.8056872"></circle>
                    <circle id="Oval-Copy-12" cx="15.6492891" cy="15.6492891" r="1.8056872"></circle>
                    <circle id="Oval-Copy-11" cx="1.8056872" cy="15.6492891" r="1.8056872"></circle>
                    <circle id="Oval-Copy-10" cx="125.194313" cy="1.8056872" r="1.8056872"></circle>
                    <circle id="Oval-Copy-9" cx="111.350711" cy="1.8056872" r="1.8056872"></circle>
                    <circle id="Oval-Copy-8" cx="98.1090047" cy="1.8056872" r="1.8056872"></circle>
                    <circle id="Oval-Copy-7" cx="84.2654028" cy="1.8056872" r="1.8056872"></circle>
                    <circle id="Oval-Copy-6" cx="70.4218009" cy="1.8056872" r="1.8056872"></circle>
                    <circle id="Oval-Copy-5" cx="56.5781991" cy="1.8056872" r="1.8056872"></circle>
                    <circle id="Oval-Copy-4" cx="42.7345972" cy="1.8056872" r="1.8056872"></circle>
                    <circle id="Oval-Copy-3" cx="29.492891" cy="1.8056872" r="1.8056872"></circle>
                    <circle id="Oval-Copy-2" cx="15.6492891" cy="1.8056872" r="1.8056872"></circle>
                    <circle id="Oval-Copy" cx="1.8056872" cy="1.8056872" r="1.8056872"></circle>
                </g>
            </g>
        </g>
    </g>
</svg>
