<?xml version="1.0" ?><svg enable-background="new 0 0 24 24" id="Layer_1" version="1.1" viewBox="0 0 24 24" xml:space="preserve" xmlns="http://www.w3.org/2000/svg" xmlns:xlink="http://www.w3.org/1999/xlink"><g><path d="M21,23H3c-1.1045696,0-2-0.8954296-2-2V3c0-1.1045696,0.8954304-2,2-2h18c1.1045704,0,2,0.8954304,2,2v18   C23,22.1045704,22.1045704,23,21,23z" fill="#50205D"/><path d="M21,1H3C1.8954468,1,1,1.8953857,1,3v0.25c0-1.1046143,0.8954468-2,2-2h18   c1.1045532,0,2,0.8953857,2,2V3C23,1.8953857,22.1045532,1,21,1z" fill="#FFFFFF" opacity="0.2"/><path d="M21,22.75H3c-1.1045532,0-2-0.8954468-2-2V21c0,1.1045532,0.8954468,2,2,2h18   c1.1045532,0,2-0.8954468,2-2v-0.25C23,21.8545532,22.1045532,22.75,21,22.75z" fill="#010101" opacity="0.1"/><linearGradient gradientUnits="userSpaceOnUse" id="SVGID_1_" x1="7.5" x2="21.9142075" y1="8.5" y2="22.9142075"><stop offset="0" style="stop-color:#010101;stop-opacity:0.1"/><stop offset="1" style="stop-color:#010101;stop-opacity:0"/></linearGradient><path d="M15,8.75C15,7.7851563,14.2148438,7,13.25,7H9v3.5h4.25C14.2148438,10.5,15,9.7148438,15,8.75z    M15.9373779,5.9906616C16.5884399,6.6266479,17,7.5202637,17,8.5c0,1.15625-0.5634766,2.1835938-1.4301758,2.8212891   C16.9970703,11.9326172,18,13.3515625,18,15c0,2.2060547-1.7944336,4-4,4H7l4,4h10c1.1045532,0,2-0.8954468,2-2v-8   L15.9373779,5.9906616z M16,14.75c0-1.2402344-1.0092773-2.25-2.25-2.25H9V17h4.75C14.9907227,17,16,15.9902344,16,14.75z" fill="url(#SVGID_1_)"/><path d="M15.5698242,11.3212891C16.4365234,10.6835938,17,9.65625,17,8.5C17,6.5703125,15.4296875,5,13.5,5H7v14h7   c2.2055664,0,4-1.7939453,4-4C18,13.3515625,16.9970703,11.9326172,15.5698242,11.3212891z M13.25,10.5H9V7h4.25   C14.2148438,7,15,7.7851563,15,8.75S14.2148438,10.5,13.25,10.5z M13.75,17H9v-4.5h4.75c1.2407227,0,2.25,1.0097656,2.25,2.25   S14.9907227,17,13.75,17z" fill="#FFFFFF"/><linearGradient gradientUnits="userSpaceOnUse" id="SVGID_2_" x1="-0.6527924" x2="24.652792" y1="6.099906" y2="17.9000931"><stop offset="0" style="stop-color:#FFFFFF;stop-opacity:0.2"/><stop offset="1" style="stop-color:#FFFFFF;stop-opacity:0"/></linearGradient><path d="M21,23H3c-1.1045696,0-2-0.8954296-2-2V3c0-1.1045696,0.8954304-2,2-2h18   c1.1045704,0,2,0.8954304,2,2v18C23,22.1045704,22.1045704,23,21,23z" fill="url(#SVGID_2_)"/></g><g/><g/><g/><g/><g/><g/><g/><g/><g/><g/><g/><g/><g/><g/><g/></svg>