<?xml version="1.0" ?><svg enable-background="new 0 0 24 24" id="Layer_1" version="1.1" viewBox="0 0 24 24" xml:space="preserve" xmlns="http://www.w3.org/2000/svg" xmlns:xlink="http://www.w3.org/1999/xlink"><g><path d="M22.8867188,6.4816804L14.109375,0.6272594c-1.2529297-0.8363459-2.9658203-0.8363459-4.21875,0   L1.1132813,6.4816804C0.4160156,6.9467511,0,7.7244749,0,8.5627747v6.8627262c0,0.8383007,0.4160156,1.616024,1.1132813,2.0810947   l8.7773438,5.8544197C10.5170898,23.7791882,11.246582,24,12,24s1.4829102-0.2208118,2.109375-0.6389847l8.7773438-5.8544197   C23.5839844,17.0415249,24,16.2638016,24,15.4255009V8.5627747C24,7.7244749,23.5839844,6.9467511,22.8867188,6.4816804z M13,3.5   c0-0.1831055,0.1000977-0.3510742,0.2602539-0.4389648c0.1611328-0.0874023,0.355957-0.0810547,0.5102539,0.0185547l7,4.5   C20.9145508,7.671875,21.0009766,7.8320313,21,8.003418c-0.0009766,0.1708984-0.0898438,0.3295898-0.2348633,0.4204102l-4,2.5   C16.684082,10.9746094,16.5917969,11,16.5,11c-0.0966797,0-0.1933594-0.027832-0.2773438-0.0839844l-3-2   C13.0834961,8.8232422,13,8.6669922,13,8.5V3.5z M3.2294922,7.5795898l7-4.5   c0.152832-0.0996094,0.3491211-0.105957,0.5102539-0.0185547C10.8999023,3.1489258,11,3.3168945,11,3.5v5   c0,0.1669922-0.0834961,0.3232422-0.2226563,0.4160156l-3,2C7.6933594,10.972168,7.5966797,11,7.5,11   c-0.0917969,0-0.184082-0.0253906-0.2651367-0.0761719l-4-2.5C3.0898438,8.3330078,3.0009766,8.1743164,3,8.003418   C2.9990234,7.8320313,3.0854492,7.671875,3.2294922,7.5795898z M2.5,14c-0.0849609,0-0.1699219-0.0214844-0.246582-0.0649414   C2.0966797,13.8461914,2,13.6801758,2,13.5v-3c0-0.1801758,0.0966797-0.3461914,0.253418-0.4350586   s0.3486328-0.0859375,0.5039063,0.0063477l2.5,1.5C5.4077148,11.6616211,5.5,11.8242188,5.5,12   s-0.0922852,0.3383789-0.2426758,0.4287109l-2.5,1.5C2.6782227,13.9760742,2.5888672,14,2.5,14z M11,20.5   c0,0.1831055-0.1000977,0.3510742-0.2602539,0.4389648C10.6645508,20.9794922,10.5825195,21,10.5,21   c-0.0942383,0-0.1884766-0.0263672-0.2705078-0.0795898l-7-4.5C3.0854492,16.328125,2.9990234,16.1679688,3,15.996582   c0.0009766-0.1708984,0.0898438-0.3295898,0.2348633-0.4204102l4-2.5c0.1660156-0.1049805,0.3789063-0.1025391,0.5424805,0.0078125   l3,2C10.9165039,15.1767578,11,15.3330078,11,15.5V20.5z M12,14.5c-0.0966797,0-0.1933594-0.027832-0.2773438-0.0839844l-3-2   C8.5834961,12.3232422,8.5,12.1669922,8.5,12s0.0834961-0.3232422,0.2226563-0.4160156l3-2   c0.1679688-0.1123047,0.3867188-0.1123047,0.5546875,0l3,2C15.4165039,11.6767578,15.5,11.8330078,15.5,12   s-0.0834961,0.3232422-0.2226563,0.4160156l-3,2C12.1933594,14.472168,12.0966797,14.5,12,14.5z M20.7705078,16.4204102l-7,4.5   C13.6884766,20.9736328,13.5942383,21,13.5,21c-0.0825195,0-0.1645508-0.0205078-0.2397461-0.0610352   C13.1000977,20.8510742,13,20.6831055,13,20.5v-5c0-0.1669922,0.0834961-0.3232422,0.2226563-0.4160156l3-2   c0.1645508-0.1098633,0.3764648-0.1118164,0.5424805-0.0078125l4,2.5C20.9101563,15.6669922,20.9990234,15.8256836,21,15.996582   C21.0009766,16.1679688,20.9145508,16.328125,20.7705078,16.4204102z M22,13.5c0,0.1801758-0.0966797,0.3461914-0.253418,0.4350586   C21.6699219,13.9785156,21.5849609,14,21.5,14c-0.0888672,0-0.1782227-0.0239258-0.2573242-0.0712891l-2.5-1.5   C18.5922852,12.3383789,18.5,12.1757813,18.5,12s0.0922852-0.3383789,0.2426758-0.4287109l2.5-1.5   c0.1547852-0.0922852,0.3476563-0.0952148,0.5039063-0.0063477C21.9033203,10.1538086,22,10.3198242,22,10.5V13.5z" fill="#313C42"/><linearGradient gradientUnits="userSpaceOnUse" id="SVGID_1_" x1="0.6153637" x2="23.3836174" y1="6.6867242" y2="17.3037357"><stop offset="0" style="stop-color:#FFFFFF;stop-opacity:0.2"/><stop offset="1" style="stop-color:#FFFFFF;stop-opacity:0"/></linearGradient><path d="M22.8867188,6.4816804L14.109375,0.6272594c-1.2529297-0.8363459-2.9658203-0.8363459-4.21875,0   L1.1132813,6.4816804C0.4160156,6.9467511,0,7.7244749,0,8.5627747v6.8627262c0,0.8383007,0.4160156,1.616024,1.1132813,2.0810947   l8.7773438,5.8544197C10.5170898,23.7791882,11.246582,24,12,24s1.4829102-0.2208118,2.109375-0.6389847l8.7773438-5.8544197   C23.5839844,17.0415249,24,16.2638016,24,15.4255009V8.5627747C24,7.7244749,23.5839844,6.9467511,22.8867188,6.4816804z M13,3.5   c0-0.1831055,0.1000977-0.3510742,0.2602539-0.4389648c0.1611328-0.0874023,0.355957-0.0810547,0.5102539,0.0185547l7,4.5   C20.9145508,7.671875,21.0009766,7.8320313,21,8.003418c-0.0009766,0.1708984-0.0898438,0.3295898-0.2348633,0.4204102l-4,2.5   C16.684082,10.9746094,16.5917969,11,16.5,11c-0.0966797,0-0.1933594-0.027832-0.2773438-0.0839844l-3-2   C13.0834961,8.8232422,13,8.6669922,13,8.5V3.5z M3.2294922,7.5795898l7-4.5   c0.152832-0.0996094,0.3491211-0.105957,0.5102539-0.0185547C10.8999023,3.1489258,11,3.3168945,11,3.5v5   c0,0.1669922-0.0834961,0.3232422-0.2226563,0.4160156l-3,2C7.6933594,10.972168,7.5966797,11,7.5,11   c-0.0917969,0-0.184082-0.0253906-0.2651367-0.0761719l-4-2.5C3.0898438,8.3330078,3.0009766,8.1743164,3,8.003418   C2.9990234,7.8320313,3.0854492,7.671875,3.2294922,7.5795898z M2.5,14c-0.0849609,0-0.1699219-0.0214844-0.246582-0.0649414   C2.0966797,13.8461914,2,13.6801758,2,13.5v-3c0-0.1801758,0.0966797-0.3461914,0.253418-0.4350586   s0.3486328-0.0859375,0.5039063,0.0063477l2.5,1.5C5.4077148,11.6616211,5.5,11.8242188,5.5,12   s-0.0922852,0.3383789-0.2426758,0.4287109l-2.5,1.5C2.6782227,13.9760742,2.5888672,14,2.5,14z M11,20.5   c0,0.1831055-0.1000977,0.3510742-0.2602539,0.4389648C10.6645508,20.9794922,10.5825195,21,10.5,21   c-0.0942383,0-0.1884766-0.0263672-0.2705078-0.0795898l-7-4.5C3.0854492,16.328125,2.9990234,16.1679688,3,15.996582   c0.0009766-0.1708984,0.0898438-0.3295898,0.2348633-0.4204102l4-2.5c0.1660156-0.1049805,0.3789063-0.1025391,0.5424805,0.0078125   l3,2C10.9165039,15.1767578,11,15.3330078,11,15.5V20.5z M12,14.5c-0.0966797,0-0.1933594-0.027832-0.2773438-0.0839844l-3-2   C8.5834961,12.3232422,8.5,12.1669922,8.5,12s0.0834961-0.3232422,0.2226563-0.4160156l3-2   c0.1679688-0.1123047,0.3867188-0.1123047,0.5546875,0l3,2C15.4165039,11.6767578,15.5,11.8330078,15.5,12   s-0.0834961,0.3232422-0.2226563,0.4160156l-3,2C12.1933594,14.472168,12.0966797,14.5,12,14.5z M20.7705078,16.4204102l-7,4.5   C13.6884766,20.9736328,13.5942383,21,13.5,21c-0.0825195,0-0.1645508-0.0205078-0.2397461-0.0610352   C13.1000977,20.8510742,13,20.6831055,13,20.5v-5c0-0.1669922,0.0834961-0.3232422,0.2226563-0.4160156l3-2   c0.1645508-0.1098633,0.3764648-0.1118164,0.5424805-0.0078125l4,2.5C20.9101563,15.6669922,20.9990234,15.8256836,21,15.996582   C21.0009766,16.1679688,20.9145508,16.328125,20.7705078,16.4204102z M22,13.5c0,0.1801758-0.0966797,0.3461914-0.253418,0.4350586   C21.6699219,13.9785156,21.5849609,14,21.5,14c-0.0888672,0-0.1782227-0.0239258-0.2573242-0.0712891l-2.5-1.5   C18.5922852,12.3383789,18.5,12.1757813,18.5,12s0.0922852-0.3383789,0.2426758-0.4287109l2.5-1.5   c0.1547852-0.0922852,0.3476563-0.0952148,0.5039063-0.0063477C21.9033203,10.1538086,22,10.3198242,22,10.5V13.5z" fill="url(#SVGID_1_)"/></g><g/><g/><g/><g/><g/><g/><g/><g/><g/><g/><g/><g/><g/><g/><g/></svg>