<?xml version="1.0" ?><svg enable-background="new 0 0 24 24" id="Layer_1" version="1.1" viewBox="0 0 24 24" xml:space="preserve" xmlns="http://www.w3.org/2000/svg" xmlns:xlink="http://www.w3.org/1999/xlink"><g><path d="M22.9179688,13.2617188C22.9736328,12.7993164,23,12.3945313,23,12c0-6.0654297-4.9345703-11-11-11   c-0.3896484,0-0.7939453,0.0263672-1.2617188,0.0820313C9.6201172,0.3735352,8.3310547,0,7,0C3.140625,0,0,3.1401367,0,7   c0,1.331543,0.3740234,2.6201172,1.0820313,3.7382813C1.0263672,11.2006836,1,11.6054688,1,12c0,6.0654297,4.9345703,11,11,11   c0.3896484,0,0.7939453-0.0263672,1.2617188-0.0820313C14.3798828,23.6264648,15.6689453,24,17,24c3.859375,0,7-3.1401367,7-7   C24,15.668457,23.6259766,14.3798828,22.9179688,13.2617188z" fill="#19BEF0"/><path d="M17,23.75c-1.3310547,0-2.6201172-0.3735352-3.7382813-1.0820313   C12.7939453,22.7236328,12.3896484,22.75,12,22.75c-6.0319824,0-10.940979-4.8814697-10.9949951-10.9008789   C1.0042114,11.8986816,1,11.9508057,1,12c0,6.0654297,4.9345703,11,11,11c0.3896484,0,0.7939453-0.0263672,1.2617188-0.0820313   C14.3798828,23.6264648,15.6689453,24,17,24c3.859375,0,7-3.1401367,7-7c0-0.0352173-0.0068359-0.069519-0.0073853-0.1046753   C23.9141846,20.6876831,20.8103027,23.75,17,23.75z" fill="#010101" opacity="0.1"/><path d="M7,0.25c1.3310547,0,2.6201172,0.3735352,3.7382813,1.0820313   C11.2060547,1.2763672,11.6103516,1.25,12,1.25c6.0319824,0,10.940979,4.8814697,10.9949951,10.9008789   C22.9957886,12.1013184,23,12.0491943,23,12c0-6.0654297-4.9345703-11-11-11c-0.3896484,0-0.7939453,0.0263672-1.2617188,0.0820313   C9.6201172,0.3735352,8.3310547,0,7,0C3.140625,0,0,3.1401367,0,7c0,0.0352173,0.0068359,0.069519,0.0073853,0.1046753   C0.0858154,3.3123169,3.1896973,0.25,7,0.25z" fill="#FFFFFF" opacity="0.2"/><path d="M12.2539063,10.112793C9.578125,9.3935547,9,9.0185547,9,8c0-0.3056641,0.9443359-1,2.5-1   c1.4111328,0,2.2783203,0.4355469,2.5068359,0.6391602C14.0771484,8.4013672,14.7197266,9,15.5,9C16.3271484,9,17,8.3271484,17,7.5   C17,5.5048828,14.6357422,4,11.5,4C8.4160156,4,6,5.7568359,6,8c0,3.5385742,3.1640625,4.3886719,5.4755859,5.0102539   C14.3740234,13.7885742,15,14.2304688,15,15.5c0,0.6118164-1.1689453,1.5-3,1.5   c-2.0214844,0-2.9570313-0.6948242-3.0068359-0.9848633C8.8466797,15.1689453,8.2470703,14.6000977,7.5,14.6000977   c-0.8271484,0-1.5,0.6728516-1.5,1.5C6,18.3232422,8.5791016,20,12,20c3.3642578,0,6-1.9765625,6-4.5   C18,11.65625,14.5419922,10.7275391,12.2539063,10.112793z" fill="#FFFFFF"/><linearGradient gradientUnits="userSpaceOnUse" id="SVGID_1_" x1="8.2662802" x2="21.7704926" y1="8.6200094" y2="22.1242218"><stop offset="0" style="stop-color:#010101;stop-opacity:0.1"/><stop offset="1" style="stop-color:#010101;stop-opacity:0"/></linearGradient><path d="M22.9179688,13.2617188c0.0361328-0.300293,0.0556641-0.5725708,0.0679321-0.8372192   l-6.8530884-6.8530273C16.680603,6.1182251,17,6.7751465,17,7.5C17,8.3271484,16.3271484,9,15.5,9   c-0.7802734,0-1.4228516-0.5986328-1.4931641-1.3608398C13.7783203,7.4355469,12.9111328,7,11.5,7C9.9443359,7,9,7.6943359,9,8   c0,1.0185547,0.578125,1.3935547,3.2539063,2.112793C14.5419922,10.7275391,18,11.65625,18,15.5c0,2.5234375-2.6357422,4.5-6,4.5   c-1.9139404,0-3.5634155-0.5253906-4.6460571-1.3771973l4.362854,4.362854C11.8118286,22.9880981,11.9044189,23,12,23   c0.3896484,0,0.7939453-0.0263672,1.2617188-0.0820313C14.3798828,23.6264648,15.6689453,24,17,24c3.859375,0,7-3.1401367,7-7   C24,15.668457,23.6259766,14.3798828,22.9179688,13.2617188z" fill="url(#SVGID_1_)"/><linearGradient gradientUnits="userSpaceOnUse" id="SVGID_2_" x1="-0.3658491" x2="24.3658485" y1="6.2337098" y2="17.7662907"><stop offset="0" style="stop-color:#FFFFFF;stop-opacity:0.2"/><stop offset="1" style="stop-color:#FFFFFF;stop-opacity:0"/></linearGradient><path d="M22.9179688,13.2617188C22.9736328,12.7993164,23,12.3945313,23,12c0-6.0654297-4.9345703-11-11-11   c-0.3896484,0-0.7939453,0.0263672-1.2617188,0.0820313C9.6201172,0.3735352,8.3310547,0,7,0C3.140625,0,0,3.1401367,0,7   c0,1.331543,0.3740234,2.6201172,1.0820313,3.7382813C1.0263672,11.2006836,1,11.6054688,1,12c0,6.0654297,4.9345703,11,11,11   c0.3896484,0,0.7939453-0.0263672,1.2617188-0.0820313C14.3798828,23.6264648,15.6689453,24,17,24c3.859375,0,7-3.1401367,7-7   C24,15.668457,23.6259766,14.3798828,22.9179688,13.2617188z" fill="url(#SVGID_2_)"/></g><g/><g/><g/><g/><g/><g/><g/><g/><g/><g/><g/><g/><g/><g/><g/></svg>