<?xml version="1.0" ?><svg enable-background="new 0 0 24 24" id="Layer_1" version="1.1" viewBox="0 0 24 24" xml:space="preserve" xmlns="http://www.w3.org/2000/svg" xmlns:xlink="http://www.w3.org/1999/xlink"><g><path d="M21,1H3C1.8969727,1,1,1.8969727,1,3v18c0,1.1030273,0.8969727,2,2,2h18c1.1030273,0,2-0.8969727,2-2V3   C23,1.8969727,22.1030273,1,21,1z" fill="#024751"/><g><g><rect fill="#00B2B9" height="0.25" width="2.9874878" x="1.0125122" y="11.8874512"/><rect fill="#00B2B9" height="0.25" width="8" x="15" y="11.8874512"/></g><path d="M4.8686523,7.0249634c0.1333008-0.1123047,0.3828125-0.3798828,0.6240234-0.6386719    c0.1295776-0.1386719,0.2453613-0.2610474,0.34375-0.3615723C5.9794922,6.159668,6.1187134,6.2982788,6.2579346,6.4368896    C6.305603,6.3876343,6.3525391,6.3380737,6.4014893,6.2901001C6.2666626,6.1478882,6.1268921,6.0090332,5.9956665,5.864624    c0.0999756-0.1004028,0.2420044-0.2340698,0.4013062-0.3821411C6.65625,5.2407837,6.9243164,4.9907837,7.0371094,4.8569946    c0.0664063-0.0791016,0.2495117-0.269043,0.4609375-0.4882813c0.375-0.3886719,0.8417969-0.8725586,1.0029297-1.0952148    C8.7421875,2.9406128,9.2130737,1.7365723,9.4246216,1H9.1650391C8.9432373,1.74823,8.5010986,2.8473511,8.2988281,3.1270142    C8.1479492,3.335022,7.668457,3.8320923,7.3183594,4.1948853C7.0942383,4.4273071,6.9174805,4.6104126,6.8457031,4.6958618    C6.7426758,4.8179321,6.46875,5.0737915,6.2265625,5.2993774C6.0690918,5.4459839,5.930542,5.5769653,5.8305664,5.6764526    C4.6057129,4.2978516,3.6035767,2.8018799,3.3640747,1H3.2369385c-0.0606689,1.0119629,0.9441528,2.9297485,1.59198,3.8289795    C4.0541382,4.2495728,2.2767334,3.34198,1,3.2455444V3.427063c1.868042,0.2478027,3.3512573,1.2330322,4.6531982,2.4274292    c-0.0979614,0.1002197-0.2134399,0.222168-0.3431396,0.3613892C5.0849609,6.4575806,4.8295898,6.7310181,4.7075195,6.8335571    C4.6230469,6.9048462,4.4423828,7.0791626,4.2143555,7.2993774c-0.3657227,0.3530273-0.8662109,0.8359375-1.0756836,0.987793    C2.8574829,8.4905396,1.7484131,8.9360352,1,9.1566772v0.2595825c0.7352905-0.2098999,1.9504395-0.6844482,2.2851563-0.9269409    c0.2241211-0.1621094,0.7109375-0.6323242,1.1025391-1.0097656C4.6040039,7.2710571,4.7905273,7.0908813,4.8686523,7.0249634z" fill="#00B2B9"/><path d="M23,3.2369385c-1.0119629-0.0606689-2.9296875,0.9441528-3.8289185,1.59198    C19.7504883,4.0541382,20.6580811,2.2767334,20.7545166,1H20.572998c-0.2478027,1.868103-1.2329712,3.3512573-2.4274292,4.6531982    c-0.1002197-0.0980225-0.222168-0.213501-0.3613892-0.3431396c-0.2416992-0.2250977-0.5151367-0.4804688-0.6176758-0.6025391    c-0.0712891-0.0844727-0.2456055-0.2651367-0.4658203-0.4931641c-0.3530273-0.3657227-0.8359375-0.8662109-0.987793-1.0756836    C15.5095215,2.8574829,15.0640259,1.7484131,14.8433838,1h-0.2595825    c0.2098999,0.7352905,0.6844482,1.9504395,0.9269409,2.2851563c0.1621094,0.2241211,0.6323242,0.7109375,1.0097656,1.1025391    c0.2084961,0.2163086,0.3886719,0.402832,0.4545898,0.480957c0.1123047,0.1333008,0.3798828,0.3828125,0.6386719,0.6240234    c0.1386108,0.1295776,0.2610474,0.2453003,0.3615723,0.34375c-0.1349487,0.1430664-0.2736206,0.2822876-0.4122314,0.4215088    c0.0491943,0.0476685,0.0988159,0.0946655,0.1467896,0.1435547c0.1422119-0.1348267,0.2811279-0.2745972,0.4255371-0.4058228    c0.1004028,0.0999756,0.2340698,0.2420044,0.3821411,0.4013062c0.2416992,0.2592773,0.4916992,0.5273438,0.6254883,0.6401367    c0.0791016,0.0664063,0.269043,0.2495117,0.4882813,0.4609375c0.3886719,0.375,0.8725586,0.8417969,1.0952148,1.0029297    C21.0594482,8.7421875,22.2634888,9.2130737,23,9.4246216V9.1650391c-0.748291-0.2218628-1.84729-0.6639404-2.1269531-0.8662109    c-0.2080078-0.1508789-0.7050781-0.6303711-1.0678711-0.9804688c-0.2324219-0.2241211-0.4155273-0.4008789-0.5009766-0.4726563    c-0.1220703-0.1030273-0.3779297-0.3769531-0.6035156-0.6191406c-0.1466064-0.1574707-0.2775879-0.2960205-0.3770752-0.3959961    C19.7022095,4.6057739,21.1981812,3.6035767,23,3.3640747V3.2369385z" fill="#00B2B9"/><path d="M7.4920044,19.6247559c-0.2084961-0.2163086-0.3886719-0.402832-0.4545898-0.480957    c-0.1123047-0.1333008-0.3798828-0.3828125-0.6386719-0.6240234c-0.1386719-0.1295776-0.2610474-0.2453613-0.3615723-0.34375    c0.1351318-0.1432495,0.2739868-0.2826538,0.4127808-0.4220581c-0.0493164-0.0475464-0.0999146-0.0936279-0.1480103-0.1424561    c-0.1420288,0.1346436-0.2807007,0.274231-0.4248657,0.4052124c-0.1004028-0.0999756-0.2340698-0.2419434-0.3821411-0.4012451    c-0.2416992-0.2592773-0.4916992-0.5273438-0.6254883-0.6401367c-0.0791016-0.0664063-0.269043-0.2495117-0.4882813-0.4609375    c-0.3886719-0.375-0.8725586-0.8417969-1.0952148-1.0029297C2.9511108,15.2688599,1.7352295,14.7940674,1,14.5842896v0.2595825    c0.7484131,0.22052,1.8581543,0.6662598,2.1394653,0.869751c0.2080078,0.1508789,0.7050781,0.6303711,1.0678711,0.9804688    c0.2324219,0.2241211,0.4155273,0.4008789,0.5009766,0.4726563c0.1220703,0.1030273,0.3779297,0.3769531,0.6035156,0.6191406    c0.1466064,0.1574097,0.2776489,0.2959595,0.3770752,0.3959351C4.3071289,19.4094849,2.8074951,20.4140015,1,20.6504517v0.1253662    c1.008728,0.0691528,2.9387817-0.9419556,3.8414307-1.5922852C4.263855,19.9558716,3.3607788,21.7241211,3.2596436,23h0.1818848    c0.2506104-1.8621826,1.2337036-3.3417358,2.425415-4.6407471c0.1002197,0.0979614,0.222168,0.2134399,0.3613892,0.3431396    c0.2416992,0.2250977,0.5151367,0.4804688,0.6176758,0.6025391c0.0712891,0.0844727,0.2456055,0.2651367,0.4658203,0.4931641    c0.3530273,0.3657227,0.8359375,0.8662109,0.987793,1.0756836C8.5018311,21.1533813,8.9436646,22.25177,9.1655884,23h0.2596436    c-0.2116699-0.7365723-0.682312-1.9399414-0.9234619-2.2727051C8.3396606,20.5031738,7.8694458,20.0163574,7.4920044,19.6247559z" fill="#00B2B9"/><path d="M19.3049927,17.178894c0.0844727-0.0712891,0.2651367-0.2456055,0.4931641-0.4658203    c0.3657227-0.3530273,0.8662109-0.8359375,1.0756836-0.987793C21.1534424,15.5230713,22.25177,15.0812378,23,14.859314v-0.2595825    c-0.7365723,0.2116699-1.9398804,0.682251-2.272644,0.9234009c-0.2241211,0.1621094-0.7109375,0.6323242-1.1025391,1.0097656    c-0.2163086,0.2084961-0.402832,0.3886719-0.480957,0.4545898c-0.1333008,0.1123047-0.3828125,0.3798828-0.6240234,0.6386719    c-0.1295776,0.1386108-0.2453003,0.2610474-0.34375,0.3615723c-0.1473389-0.1389771-0.2908325-0.2817383-0.434082-0.4245605    c-0.0475464,0.0490723-0.0942993,0.0985718-0.1431274,0.1464233c0.1389771,0.1464233,0.2828369,0.2894897,0.4179688,0.4382324    c-0.0999756,0.1004028-0.2420044,0.2340698-0.4013062,0.3821411c-0.2592773,0.2416992-0.5273438,0.4916992-0.6401367,0.6254883    c-0.0664063,0.0791016-0.2495117,0.269043-0.4609375,0.4882813c-0.375,0.3886719-0.8417969,0.8725586-1.0029297,1.0952148    C15.2717285,21.0699463,14.8046875,22.2623901,14.5913696,23h0.2596436    c0.2231445-0.7479858,0.6615601-1.8364868,0.8626709-2.114563c0.1508789-0.2080078,0.6303711-0.7050781,0.9804688-1.0678711    c0.2241211-0.2324219,0.4008789-0.4155273,0.4726563-0.5009766c0.1030273-0.1220703,0.3769531-0.3779297,0.6191406-0.6035156    c0.1574707-0.1466064,0.2960205-0.2775879,0.3959961-0.3770752C19.4039307,19.7114258,20.4039307,21.2037964,20.6464233,23    h0.1288452c0.0523071-1.0149536-0.9462891-2.9207153-1.5916748-3.8165283    C19.9559326,19.7610474,21.7241211,20.6640625,23,20.7652588V20.583313    c-1.8621216-0.2506104-3.3416748-1.2336426-4.640686-2.425354c0.0980225-0.1002197,0.213501-0.222168,0.3431396-0.3613892    C18.9275513,17.5548706,19.1829224,17.2814331,19.3049927,17.178894z" fill="#00B2B9"/><g><path d="M12,4c0.0422363,0,0.0830078,0.0056763,0.125061,0.0063477V1h-0.25v3.0062866     C11.9171143,4.0056152,11.9578247,4,12,4z" fill="#00B2B9"/><path d="M12,20c-0.0421753,0-0.0828857-0.0056152-0.124939-0.0062866V23h0.25v-3.0063477     C12.0830078,19.9943237,12.0422363,20,12,20z" fill="#00B2B9"/></g></g><path d="M21,1H3C1.8969727,1,1,1.8969727,1,3v18c0,1.1030273,0.8969727,2,2,2h18   c1.1030273,0,2-0.8969727,2-2V3C23,1.8969727,22.1030273,1,21,1z" fill="#051938" opacity="0.38"/><path d="M12,4c-4.2494507,0-7.7153931,3.315918-7.9747314,7.5H9v-2C9,9.2236328,9.2236328,9,9.5,9h5   C14.7763672,9,15,9.2236328,15,9.5v5c0,0.2763672-0.2236328,0.5-0.5,0.5h-5C9.2236328,15,9,14.7763672,9,14.5v-2H4.0252686   C4.2846069,16.684082,7.7505493,20,12,20c4.4182739,0,8-3.5817261,8-8S16.4182739,4,12,4z" fill="#FFFFFF"/><path d="M12,19.75c-4.1636353,0-7.5670166-3.18573-7.9470825-7.25H4.0252686   C4.2846069,16.684082,7.7505493,20,12,20c4.4182739,0,8-3.5817261,8-8c0-0.0421753-0.0056152-0.0829468-0.0062866-0.125   C19.9261475,16.2350464,16.3760986,19.75,12,19.75z" fill="#010101" opacity="0.1"/><path d="M9,11.75V11.5H4.0529175c-0.0078125,0.0837402-0.0223999,0.1655273-0.0276489,0.25H9z" fill="#010101" opacity="0.1"/><path d="M9.5,9.25h5c0.2763672,0,0.5,0.2236328,0.5,0.5V9.5C15,9.2236328,14.7763672,9,14.5,9h-5   C9.2236328,9,9,9.2236328,9,9.5v0.25C9,9.4736328,9.2236328,9.25,9.5,9.25z" fill="#010101" opacity="0.1"/><path d="M12,4.0063477c-4.2494507,0-7.7153931,3.315918-7.9747314,7.5h0.0276489   c0.3800659-4.06427,3.7834473-7.25,7.9470825-7.25c4.3760986,0,7.9261475,3.5149536,7.9937134,7.875   C19.9943848,12.0892944,20,12.0485229,20,12.0063477C20,7.5880737,16.4182739,4.0063477,12,4.0063477z" fill="#FFFFFF" opacity="0.2"/><path d="M21,1H3C1.8969727,1,1,1.8969727,1,3v0.25c0-1.1030273,0.8969727-2,2-2h18   c1.1030273,0,2,0.8969727,2,2V3C23,1.8969727,22.1030273,1,21,1z" fill="#FFFFFF" opacity="0.2"/><path d="M21,22.75H3c-1.1030273,0-2-0.8969727-2-2V21c0,1.1030273,0.8969727,2,2,2h18   c1.1030273,0,2-0.8969727,2-2v-0.25C23,21.8530273,22.1030273,22.75,21,22.75z" fill="#010101" opacity="0.1"/><linearGradient gradientUnits="userSpaceOnUse" id="SVGID_1_" x1="12.0734406" x2="22.4313812" y1="12.0379486" y2="22.3958893"><stop offset="0" style="stop-color:#010101;stop-opacity:0.1"/><stop offset="1" style="stop-color:#010101;stop-opacity:0"/></linearGradient><path d="M17.7098999,6.4014893C19.124939,7.8445435,20,9.8192139,20,12c0,4.4182739-3.5817261,8-8,8   c-1.8900146,0-3.6226807-0.6585693-4.989502-1.7550659L7.0090332,18.246521L11.7625732,23H21c1.1030273,0,2-0.8969727,2-2   v-9.3084717L17.7098999,6.4014893z" fill="url(#SVGID_1_)"/><linearGradient gradientUnits="userSpaceOnUse" id="SVGID_2_" x1="-0.6523309" x2="24.6523304" y1="6.100121" y2="17.8998795"><stop offset="0" style="stop-color:#FFFFFF;stop-opacity:0.2"/><stop offset="1" style="stop-color:#FFFFFF;stop-opacity:0"/></linearGradient><path d="M21,1H3C1.8969727,1,1,1.8969727,1,3v18c0,1.1030273,0.8969727,2,2,2h18   c1.1030273,0,2-0.8969727,2-2V3C23,1.8969727,22.1030273,1,21,1z" fill="url(#SVGID_2_)"/></g><g/><g/><g/><g/><g/><g/><g/><g/><g/><g/><g/><g/><g/><g/><g/></svg>