<?xml version="1.0" ?><svg enable-background="new 0 0 24 24" id="Layer_1" version="1.1" viewBox="0 0 24 24" xml:space="preserve" xmlns="http://www.w3.org/2000/svg" xmlns:xlink="http://www.w3.org/1999/xlink"><g><circle cx="12" cy="12" fill="#303C42" id="XMLID_1302_" r="12"/><path d="M12,0.25c5.3285522,0,9.8440552,3.4422607,11.4705811,8.2207642   C21.9632568,3.565979,17.3988037,0,12,0S2.0368042,3.565979,0.5294189,8.4706421C2.1559448,3.6922607,6.6713867,0.25,12,0.25z" fill="#FFFFFF" opacity="0.2"/><path d="M12,23.75c-4.7450914,0-8.8374472-2.6986141-10.8253527-6.6640053   c-0.2444347-0.4875889-0.4570514-0.9943295-0.6351512-1.5175619c0.1608156,0.5232897,0.3563147,1.0308924,0.5838224,1.5202017   C3.02824,21.1856155,7.1771917,24,12,24c4.6758442,0,8.7214317-2.6558895,10.7003746-6.5535698   c0.305975-0.6026421,0.5625458-1.234972,0.7644005-1.8917618c-0.1286106,0.3778324-0.2752476,0.7471523-0.4388905,1.1069431   C21.1199665,20.8520508,16.9072742,23.75,12,23.75z" fill="#010101" opacity="0.1"/><path d="M12,3.25c-4.8242188,0-8.7490234,3.9248047-8.75,8.7490234   c0,2.1469727,0.9492188,4.2524414,2.6738281,5.9272461c1.9736328,1.9179688,3.8945313,2.8227539,6.0703125,2.8227539   c0.5019531,0,1.0175781-0.0478516,1.5498047-0.1430664C13.6630859,20.5844727,13.75,20.480957,13.75,20.3598633v-2.0405273   c0-0.0766602-0.0351563-0.1484375-0.0947266-0.1962891c-0.0615234-0.0478516-0.1376953-0.0654297-0.2128906-0.046875   c-1.4873047,0.3510742-2.8779297,0.1728516-4.2480469-0.5478516c-1.8925781-0.9956055-3.1982422-2.8544922-3.4082031-4.8505859   c-0.1894531-1.7998047,0.3671875-3.5253906,1.5683594-4.8583984C8.5380859,6.5043945,10.2314453,5.75,12,5.75   c3.0126953,0,4.9755859,2.1567383,5.25,5.75c0,1.1245117-0.3730469,1.7539063-0.6337891,2.0566406l-1.0458984-3.1381836   C15.3359375,9.7197266,14.6845703,9.25,13.9482422,9.25c-0.6757813,0-1.2880859,0.3984375-1.5615234,1.0151367   l-1.3535156,3.0449219L9.7353516,9.4208984C9.7011719,9.3188477,9.6054688,9.25,9.4980469,9.25H7.5   c-0.0820313,0-0.1591797,0.0405273-0.2060547,0.1083984S7.2373047,9.5126953,7.2666016,9.5898438l2.140625,5.5644531   C9.6591797,15.8095703,10.3007813,16.25,11.0517578,16.25c0.6757813,0,1.2880859-0.3984375,1.5615234-1.0151367   l1.3535156-3.0444336l0.9628906,2.8911133C15.1640625,15.7802734,15.8154297,16.25,16.5517578,16.25h0.3525391   c0.4921875,0,0.9580078-0.2084961,1.2783203-0.5717773C18.7675781,15.0136719,19.75,13.5874023,19.75,11.4853516   C19.4628906,6.5595703,16.3486328,3.25,12,3.25z" fill="#F3F0EB"/><linearGradient gradientUnits="userSpaceOnUse" id="SVGID_1_" x1="7.5898442" x2="20.489687" y1="7.5718389" y2="20.4716816"><stop offset="0" style="stop-color:#010101;stop-opacity:0.1"/><stop offset="1" style="stop-color:#010101;stop-opacity:0"/></linearGradient><path d="M17.6104736,5.7699585C18.8410645,7.1972046,19.6143188,9.1572876,19.75,11.4853516   c0,2.1020508-0.9824219,3.5283203-1.5673828,4.1928711C17.8623047,16.0415039,17.3964844,16.25,16.9042969,16.25h-0.3525391   c-0.7363281,0-1.3876953-0.4697266-1.6220703-1.168457l-0.9628906-2.8911133l-1.3535156,3.0444336   C12.3398438,15.8515625,11.7275391,16.25,11.0517578,16.25c-0.7509766,0-1.3925781-0.4404297-1.6445313-1.0957031   l-2.140625-5.5644531C7.2373047,9.5126953,7.2470703,9.4262695,7.2939453,9.3583984S7.4179688,9.25,7.5,9.25h1.9980469   c0.1074219,0,0.203125,0.0688477,0.2373047,0.1708984l1.2978516,3.8891602l1.3535156-3.0449219   C12.6601563,9.6484375,13.2724609,9.25,13.9482422,9.25c0.7363281,0,1.3876953,0.4697266,1.6220703,1.168457l1.0458984,3.1381836   C16.8769531,13.2539063,17.25,12.6245117,17.25,11.5C16.9755859,7.9067383,15.0126953,5.75,12,5.75   c-1.7685547,0-3.4619141,0.7543945-4.6455078,2.0693359c-1.2011719,1.3330078-1.7578125,3.0585938-1.5683594,4.8583984   c0.2099609,1.9960938,1.515625,3.8549805,3.4082031,4.8505859c1.3701172,0.7207031,2.7607422,0.8989258,4.2480469,0.5478516   c0.0751953-0.0185547,0.1513672-0.0009766,0.2128906,0.046875C13.7148438,18.1708984,13.75,18.2426758,13.75,18.3193359v2.0405273   c0,0.1210938-0.0869141,0.2246094-0.2060547,0.2460938c-0.5322266,0.0952148-1.0478516,0.1430664-1.5498047,0.1430664   c-1.6720581,0-3.1935425-0.5401611-4.7041016-1.65802l0.0025024,0.0060425l4.8935547,4.8935547   c6.489502-0.0996704,11.7247925-5.3446655,11.8062134-11.8388062L17.6104736,5.7699585z" fill="url(#SVGID_1_)"/><linearGradient gradientUnits="userSpaceOnUse" id="XMLID_3_" x1="1.1216813" x2="22.8783092" y1="6.9273677" y2="17.0726509"><stop offset="0" style="stop-color:#FFFFFF;stop-opacity:0.2"/><stop offset="1" style="stop-color:#FFFFFF;stop-opacity:0"/></linearGradient><circle cx="12" cy="12" fill="url(#XMLID_3_)" id="XMLID_1019_" r="12"/></g><g/><g/><g/><g/><g/><g/><g/><g/><g/><g/><g/><g/><g/><g/><g/></svg>